<svg width="23" height="22" viewBox="0 0 23 22" fill="none" xmlns="http://www.w3.org/2000/svg">
<path d="M4.3125 8.625V21.5625H0V8.625H4.3125ZM21.5625 7.1875C21.9434 7.1875 22.31 7.33844 22.5788 7.60869C22.8491 7.8775 23 8.24406 23 8.625V13.9768C23 14.237 22.9296 14.4929 22.7944 14.7171C22.2166 15.6803 20.5491 18.4604 19.5256 20.1667C19.0052 21.0321 18.0694 21.5625 17.0602 21.5625C14.9457 21.5625 11.2197 21.5625 8.625 21.5625C7.86312 21.5625 7.13144 21.2592 6.59237 20.7201C6.05331 20.1811 5.75 19.4494 5.75 18.6875C5.75 15.4459 5.75 10.3457 5.75 8.19662C5.75 7.54256 5.97281 6.91006 6.37963 6.39975C7.87319 4.53388 11.5 0 11.5 0C12.2935 0 12.9375 0.644 12.9375 1.4375V7.1875H21.5625Z" fill="black" fill-opacity="0.5"/>
</svg>
