<svg width="6" height="23" viewBox="0 0 6 23" fill="none" xmlns="http://www.w3.org/2000/svg">
<path d="M0 11.5C0 12.2625 0.302901 12.9938 0.842069 13.5329C1.38124 14.0721 2.1125 14.375 2.875 14.375C3.6375 14.375 4.36876 14.0721 4.90793 13.5329C5.4471 12.9938 5.75 12.2625 5.75 11.5C5.75 10.7375 5.4471 10.0062 4.90793 9.46707C4.36876 8.9279 3.6375 8.625 2.875 8.625C2.1125 8.625 1.38124 8.9279 0.842069 9.46707C0.302901 10.0062 0 10.7375 0 11.5ZM0 2.875C0 3.6375 0.302901 4.36876 0.842069 4.90793C1.38124 5.4471 2.1125 5.75 2.875 5.75C3.6375 5.75 4.36876 5.4471 4.90793 4.90793C5.4471 4.36876 5.75 3.6375 5.75 2.875C5.75 2.1125 5.4471 1.38123 4.90793 0.842068C4.36876 0.302901 3.6375 0 2.875 0C2.1125 0 1.38124 0.302901 0.842069 0.842068C0.302901 1.38123 0 2.1125 0 2.875ZM0 20.125C0 20.8875 0.302901 21.6188 0.842069 22.1579C1.38124 22.6971 2.1125 23 2.875 23C3.6375 23 4.36876 22.6971 4.90793 22.1579C5.4471 21.6188 5.75 20.8875 5.75 20.125C5.75 19.3625 5.4471 18.6312 4.90793 18.0921C4.36876 17.5529 3.6375 17.25 2.875 17.25C2.1125 17.25 1.38124 17.5529 0.842069 18.0921C0.302901 18.6312 0 19.3625 0 20.125Z" fill="black" fill-opacity="0.5"/>
</svg>
