<svg width="23" height="23" viewBox="0 0 23 23" fill="none" xmlns="http://www.w3.org/2000/svg">
<path d="M9.55004 17.18C11.1572 17.18 12.46 18.4828 12.46 20.09C12.46 21.6971 11.1572 23 9.55006 23C7.94291 23 6.64006 21.6971 6.64006 20.09C6.64006 18.4828 7.94288 17.18 9.55004 17.18ZM9.55004 21C10.0526 21 10.46 20.5926 10.46 20.09C10.46 19.5875 10.0526 19.18 9.55004 19.18C9.04745 19.18 8.64003 19.5875 8.64003 20.09C8.64003 20.5926 9.04747 21 9.55004 21ZM18.14 17.18C19.7472 17.18 21.0501 18.4828 21.0501 20.09C21.0501 21.6971 19.7472 23 18.14 23C16.5329 23 15.23 21.6971 15.23 20.09C15.23 18.4828 16.5329 17.18 18.14 17.18H18.14ZM18.14 21C18.6426 21 19.0501 20.5926 19.0501 20.09C19.0501 19.5875 18.6426 19.18 18.14 19.18C17.6374 19.18 17.23 19.5875 17.23 20.09C17.23 20.5926 17.6374 21 18.14 21ZM18.12 19.18H8.11927C6.24977 19.18 4.73426 17.6645 4.73426 15.795C4.73426 14.227 5.80044 12.9079 7.24742 12.5233L7.27101 12.518L4.44602 3.29999C4.19962 2.53987 3.49794 1.99995 2.67012 1.99995H0V0H2.67511C4.3918 0 5.84637 1.12202 6.34546 2.67272L6.35305 2.70001V2.71001L9.93906 14.41H8.12006C7.35515 14.41 6.73504 15.0301 6.73504 15.795C6.73504 16.56 7.35512 17.1801 8.12006 17.1801H18.1201L18.12 19.18ZM20.8041 14.41H8.58999V12.41H19.296L20.96 6.59001V5.82005H6.69001V3.82003H22.9601V6.87001L20.8041 14.41Z" fill="black"/>
</svg>
