<svg width="23" height="23" viewBox="0 0 23 23" fill="none" xmlns="http://www.w3.org/2000/svg">
<path d="M21.7307 0H1.26931C0.567813 0 0 0.567813 0 1.26931V21.7307C0 22.4322 0.567813 23 1.26931 23H12.2863V14.1048H9.29919V10.6246H12.2863V8.0615C12.2863 5.09019 14.1004 3.473 16.7512 3.473C18.0205 3.473 19.1116 3.56787 19.4292 3.60956V6.71456L17.6022 6.716C16.1604 6.716 15.8815 7.40169 15.8815 8.4065V10.6246H19.3286L18.8801 14.1062H15.8815V23H21.7321C22.4322 23 23 22.4322 23 21.7307V1.26931C23 0.567813 22.4322 0 21.7307 0Z" fill="white"/>
</svg>
