<svg width="23" height="23" viewBox="0 0 23 23" fill="none" xmlns="http://www.w3.org/2000/svg">
<path d="M4.82 0H18.18C20.8408 0.00285254 22.9971 2.1591 23 4.81971V18.18C22.9971 20.8408 20.8409 22.9971 18.1803 23H4.82C2.15917 22.9971 0.00285254 20.8409 0 18.1803V4.82001C0.00285254 2.15915 2.15912 0.00285254 4.81971 0H4.81998H4.82ZM18.18 21C19.7368 20.9983 20.9983 19.7368 21 18.1802V4.82005C20.9983 3.26328 19.7368 2.00174 18.1802 2.00003H4.81998C3.26321 2.00174 2.0017 3.26328 2.00001 4.81987V18.18C2.0017 19.7368 3.26321 20.9983 4.81983 21H4.81998H18.18ZM11.5 5.73001C14.6867 5.73001 17.27 8.31333 17.27 11.5C17.27 14.6867 14.6867 17.27 11.5 17.27C8.31331 17.27 5.73001 14.6867 5.73001 11.5C5.73399 8.31493 8.31493 5.73399 11.4996 5.73001H11.5ZM11.5 15.27C13.5821 15.27 15.27 13.5821 15.27 11.5C15.27 9.41789 13.5821 7.73 11.5 7.73C9.41787 7.73 7.73 9.41789 7.73 11.5C7.73225 13.5812 9.41879 15.2677 11.4998 15.27H11.5ZM19.13 5.3C19.13 6.08977 18.4898 6.72999 17.7 6.72999C16.9102 6.72999 16.27 6.08977 16.27 5.3C16.27 4.51022 16.9102 3.87 17.7 3.87C18.4898 3.87 19.13 4.51022 19.13 5.3Z" fill="white"/>
</svg>
