<svg width="65" height="88" viewBox="0 0 65 88" fill="none" xmlns="http://www.w3.org/2000/svg">
<path d="M32.4985 20.6895C30.1331 20.6895 27.8207 21.3954 25.8539 22.718C23.8871 24.0406 22.3542 25.9205 21.449 28.1199C20.5438 30.3194 20.3069 32.7395 20.7684 35.0744C21.2299 37.4093 22.3689 39.5541 24.0416 41.2374C25.7142 42.9208 27.8452 44.0672 30.1652 44.5316C32.4852 44.9961 34.89 44.7577 37.0754 43.8467C39.2608 42.9356 41.1286 41.3929 42.4428 39.4134C43.757 37.434 44.4584 35.1068 44.4584 32.7262C44.4548 29.535 43.1936 26.4755 40.9515 24.2189C38.7093 21.9624 35.6694 20.6931 32.4985 20.6895ZM32.4985 38.7446C31.3158 38.7446 30.1596 38.3916 29.1762 37.7303C28.1928 37.069 27.4264 36.129 26.9737 35.0293C26.5211 33.9296 26.4027 32.7195 26.6335 31.5521C26.8642 30.3846 27.4337 29.3122 28.27 28.4706C29.1064 27.6289 30.1719 27.0557 31.3319 26.8235C32.4919 26.5912 33.6942 26.7104 34.7869 27.1659C35.8796 27.6215 36.8136 28.3928 37.4707 29.3826C38.1278 30.3723 38.4785 31.5359 38.4785 32.7262C38.4766 34.3218 37.846 35.8515 36.725 36.9798C35.6039 38.108 34.0839 38.7427 32.4985 38.7446Z" fill="black"/>
<path d="M55.4806 9.57769C49.7983 3.86032 42.2131 0.463975 34.1889 0.0441439C26.1648 -0.375687 18.2705 2.21076 12.0297 7.30431C5.78896 12.3978 1.64412 19.6374 0.395143 27.6257C-0.853829 35.614 0.881615 43.7848 5.26653 50.5611L27.8609 85.4701C28.3637 86.2468 29.0512 86.8851 29.861 87.3268C30.6709 87.7686 31.5774 88 32.4986 88C33.4198 88 34.3264 87.7686 35.1362 87.3268C35.9461 86.8851 36.6335 86.2468 37.1363 85.4701L59.7314 50.5611C63.8001 44.2751 65.5982 36.7726 64.8243 29.3111C64.0504 21.8495 60.7515 14.8825 55.4806 9.57769ZM54.721 47.276L32.4987 81.6089L10.2762 47.276C3.47404 36.7666 4.93296 22.7024 13.7452 13.8332C16.2079 11.3546 19.1316 9.38849 22.3493 8.04707C25.5671 6.70565 29.0158 6.01523 32.4987 6.01523C35.9816 6.01523 39.4303 6.70565 42.6481 8.04707C45.8658 9.38849 48.7895 11.3546 51.2522 13.8332C60.0644 22.7024 61.5232 36.7666 54.721 47.276Z" fill="black"/>
</svg>
