<svg width="84" height="84" viewBox="0 0 84 84" fill="none" xmlns="http://www.w3.org/2000/svg">
<path d="M57.7291 83.9826C46.0228 83.9826 31.3806 76.5408 19.5224 64.5649C11.6136 56.8768 5.49233 47.3945 1.8136 36.7726L1.66258 36.2719C-1.41768 26.089 -0.190699 17.5728 5.11759 12.2868L17.3836 0L41.2262 23.8256L31.8515 33.19C30.9219 34.1466 30.3487 35.4536 30.3487 36.8943C30.3487 38.3349 30.9219 39.6419 31.8528 40.5998L31.8516 40.5985L43.343 52.0817C44.3003 53.029 45.6178 53.6141 47.0721 53.6141C48.5264 53.6141 49.8439 53.029 50.8016 52.0813L60.1722 42.7175L84 66.5432L71.6413 78.8044C68.2293 82.0221 63.616 84 58.5403 84C58.2551 84 57.9715 83.9938 57.6892 83.9815L57.7294 83.9829L57.7291 83.9826ZM17.3909 7.86764L9.05043 16.2282C5.25835 20.0027 4.52806 26.5518 6.98573 34.6753C10.5381 44.8906 16.1877 53.5956 23.4604 60.6365L23.4776 60.6532C34.3276 71.6141 47.4537 78.4336 57.7291 78.4336C57.9792 78.45 58.2713 78.4594 58.5656 78.4594C62.1087 78.4594 65.334 77.0991 67.7469 74.8728L67.7377 74.8811L76.1485 66.5354L60.1646 50.5738L54.7155 56.0154C52.753 57.9623 50.0494 59.1655 47.0646 59.1655C44.0797 59.1655 41.3761 57.9623 39.4129 56.0148L27.9 44.5174C25.9786 42.5545 24.793 39.8654 24.793 36.8996C24.793 33.9338 25.9785 31.2449 27.9019 29.2799L33.3491 23.8366L17.3909 7.86764Z" fill="black"/>
</svg>
