<svg width="23" height="19" viewBox="0 0 23 19" fill="none" xmlns="http://www.w3.org/2000/svg">
<path d="M22.9562 2.22741C22.1102 2.59828 21.2046 2.85344 20.2501 2.96916C21.224 2.38481 21.9686 1.4605 22.3237 0.359375C21.4101 0.89125 20.3996 1.2765 19.325 1.49428C18.4683 0.577156 17.2435 0 15.8844 0C13.2789 0 11.1672 2.11097 11.1672 4.71284C11.1672 5.08731 11.2125 5.44669 11.2908 5.78737C7.3715 5.60409 3.89706 3.72097 1.57334 0.876156C1.16509 1.56903 0.932938 2.37403 0.932938 3.25019C0.932938 4.88966 1.76741 6.32716 3.02881 7.17241C2.25759 7.15013 1.53166 6.93666 0.895562 6.58519V6.64197C0.895562 8.92831 2.51994 10.8344 4.67619 11.2686C4.28303 11.3728 3.86328 11.4332 3.43706 11.4332C3.13447 11.4332 2.84553 11.4037 2.55731 11.3505C3.16394 13.2221 4.90044 14.5849 6.97044 14.6258C5.36116 15.8873 3.32134 16.6391 1.12341 16.6391C0.748937 16.6391 0.375188 16.6211 0 16.5758C2.09659 17.9127 4.57125 18.6947 7.24428 18.6947C15.9174 18.6947 20.6569 11.5108 20.6569 5.28928C20.6569 5.09091 20.6569 4.88894 20.6418 4.68625C21.5668 4.02716 22.3675 3.19197 23 2.24538L22.9562 2.22741Z" fill="white"/>
</svg>
