<svg width="23" height="23" viewBox="0 0 23 23" fill="none" xmlns="http://www.w3.org/2000/svg">
<path d="M11.4057 0C15.0971 0 18.0897 2.99256 18.0897 6.68408C18.0897 10.3756 15.0971 13.3682 11.4057 13.3682C7.71411 13.3682 4.72155 10.3756 4.72155 6.68408C4.72605 2.99438 7.71593 0.00451464 11.4052 0H11.4057ZM11.4057 11.3818C14.0001 11.3818 16.1034 9.27856 16.1034 6.6841C16.1034 4.08964 14.0001 1.98638 11.4057 1.98638C8.81115 1.98638 6.70791 4.08962 6.70791 6.68408C6.71074 9.27741 8.81227 11.379 11.4054 11.3818H11.4056L11.4057 11.3818ZM20.8567 23L20.4893 20.962C19.6745 16.626 15.9182 13.3891 11.4057 13.3881H11.4051C6.89667 13.3881 3.14266 16.6182 2.33111 20.8905L2.32201 20.9481L1.95556 22.9802L0 22.6246L0.367461 20.5886C1.36419 15.327 5.92577 11.4017 11.4042 11.4017H11.4057H11.4057C16.8893 11.4031 21.4537 15.3371 22.432 20.5368L22.4428 20.6065L22.8113 22.6474L20.8567 23Z" fill="black"/>
</svg>
