<svg width="25" height="18" viewBox="0 0 25 18" fill="none" xmlns="http://www.w3.org/2000/svg">
<path d="M24.4781 2.6946C24.1811 1.64037 23.359 0.813556 22.3001 0.521279C20.3503 2.49205e-05 12.5119 2.50465e-05 12.5119 2.50465e-05C12.5119 2.50465e-05 4.68844 -0.0124789 2.71831 0.521279C1.66486 0.814337 0.838827 1.64037 0.544987 2.6946C0.175342 4.69287 -0.00830802 6.71537 0.000288363 8.74724C-0.00361908 10.7658 0.179249 12.7852 0.544987 14.771C0.838827 15.8252 1.66486 16.652 2.71831 16.949C4.66813 17.4702 12.5119 17.4702 12.5119 17.4702C12.5119 17.4702 20.3307 17.4702 22.3001 16.949C23.359 16.652 24.1811 15.826 24.4781 14.771C24.8368 12.7852 25.0119 10.7658 24.9994 8.74724C25.0119 6.71537 24.8407 4.69287 24.4781 2.6946ZM10.008 12.4882V4.98984L16.5327 8.74724L10.008 12.4882Z" fill="white"/>
</svg>
