<svg width="17" height="16" viewBox="0 0 17 16" fill="none" xmlns="http://www.w3.org/2000/svg">
<g opacity="0.5">
<path d="M8.31738 0.0489254C8.17793 0.115149 7.14863 1.09588 7.08887 1.21887C7.00254 1.39231 7.11211 1.54367 7.32461 1.54367C7.39434 1.54367 7.50391 1.46168 7.82598 1.15895L8.23438 0.774225V2.38565V3.99708L7.38105 4.44487C6.90957 4.694 6.49785 4.9242 6.46797 4.95574C6.33184 5.1008 6.43809 5.33731 6.63398 5.33731C6.69375 5.33731 7.05898 5.16387 7.60352 4.87374C8.08496 4.61831 8.49668 4.41649 8.5166 4.41964C8.57969 4.43541 12.6803 6.60185 12.6836 6.62077C12.6836 6.646 8.5498 8.82821 8.5 8.82821C8.47676 8.82821 7.52715 8.33626 6.38828 7.73395C4.81113 6.89828 4.32969 6.62708 4.35957 6.60185C4.38281 6.57978 4.72813 6.39057 5.12988 6.17929C5.53164 5.968 5.89355 5.76618 5.93672 5.72834C6.08945 5.59589 5.97656 5.32785 5.76738 5.32785C5.67109 5.32785 3.8582 6.29912 3.72871 6.41895L3.61914 6.51986V9.07102V11.6222L2.13828 12.4042C1.3248 12.8331 0.654102 13.18 0.647461 13.1737C0.64082 13.1674 0.700586 12.9435 0.783594 12.6754C0.863281 12.4074 0.929688 12.1646 0.929688 12.1362C0.929688 12.1078 0.899805 12.0479 0.859961 12.0006C0.770313 11.8934 0.604297 11.8871 0.508008 11.9911C0.441602 12.0605 0 13.4733 0 13.6183C0 13.7476 0.122852 13.8958 0.275586 13.9495C0.481445 14.022 1.81289 14.3783 1.87598 14.3783C1.95566 14.3783 2.0918 14.2333 2.0918 14.145C2.0918 13.9841 1.97559 13.9179 1.44434 13.7792C1.17207 13.7066 0.933008 13.6373 0.919727 13.631C0.903125 13.6215 0.962891 13.5742 1.05254 13.5269C1.48086 13.2967 3.79844 12.0731 3.82168 12.0668C3.83496 12.0637 4.16699 12.2308 4.55879 12.4389L5.26934 12.8174L5.28926 13.1169C5.33242 13.7035 5.48848 14.1607 5.80723 14.618C6.26875 15.2834 6.96602 15.7501 7.79609 15.9456C8.10488 16.0181 8.89512 16.0181 9.20391 15.9456C10.024 15.7532 10.7213 15.2928 11.1729 14.6432C11.4949 14.1891 11.6709 13.6877 11.7107 13.1169L11.7307 12.8174L12.4379 12.4421C12.8264 12.2371 13.1551 12.0668 13.165 12.0668C13.2148 12.0605 16.1002 13.6057 16.077 13.6246C16.0637 13.6373 15.8313 13.7066 15.5557 13.7792C15.0244 13.9179 14.9082 13.9841 14.9082 14.145C14.9082 14.2333 15.0443 14.3783 15.124 14.3783C15.2004 14.3783 16.7045 13.9684 16.8041 13.9179C16.8938 13.8738 17 13.7035 17 13.6026C17 13.467 16.5551 12.0574 16.492 11.988C16.3957 11.8871 16.2297 11.8934 16.14 12.0006C16.1002 12.0479 16.0703 12.1078 16.0703 12.1362C16.0703 12.1646 16.1367 12.4074 16.2164 12.6754C16.2994 12.9435 16.3592 13.1674 16.3525 13.1737C16.3459 13.18 15.6752 12.8331 14.8617 12.4042L13.3809 11.6222V10.6856C13.3809 9.78686 13.3775 9.74902 13.3111 9.66703C13.2215 9.55981 13.0555 9.5535 12.9559 9.65757C12.8828 9.7301 12.8828 9.74902 12.8828 10.6951V11.66L12.2852 11.9785C11.9564 12.1551 11.6742 12.297 11.6576 12.297C11.641 12.297 11.6178 12.2434 11.6045 12.1772C11.5646 11.9659 11.3654 11.5433 11.1762 11.2753C10.9438 10.9442 10.4889 10.5311 10.1336 10.3293C9.81816 10.1527 9.31016 9.97607 8.99805 9.94138L8.78223 9.91615L8.77227 9.58504L8.76562 9.25392L10.7943 8.18174C11.91 7.59204 12.8363 7.10325 12.8529 7.1001C12.8695 7.09379 12.8828 7.44698 12.8828 7.94523V8.79982L12.9658 8.87551C13.0688 8.97642 13.1949 8.97642 13.2979 8.87551L13.3809 8.79982V7.65827V6.51986L13.2746 6.41895C13.2148 6.36219 12.1756 5.79456 10.967 5.15756L8.76562 3.99393V2.38565V0.774225L9.17402 1.15895C9.49609 1.46168 9.60566 1.54367 9.67539 1.54367C9.88789 1.54367 9.99746 1.39231 9.91113 1.21571C9.84473 1.08327 8.77227 0.0741539 8.65273 0.0300045C8.52656 -0.014143 8.43359 -0.0109901 8.31738 0.0489254ZM6.20898 8.18174L8.23438 9.25392L8.22773 9.58504L8.21777 9.91615L8.01855 9.93823C6.96602 10.0644 5.92344 10.8496 5.51504 11.824C5.46191 11.9533 5.40547 12.1141 5.39551 12.1804C5.38223 12.2434 5.35898 12.297 5.34238 12.297C5.32578 12.297 5.04688 12.1551 4.7248 11.9848L4.13379 11.6726L4.12383 9.38006C4.12051 7.93577 4.12715 7.09379 4.14707 7.1001C4.16699 7.10325 5.09336 7.59204 6.20898 8.18174ZM8.87852 10.4049C9.46953 10.4869 9.9709 10.7298 10.4092 11.146C10.8707 11.5843 11.1064 12.0416 11.1928 12.6691C11.2924 13.3787 11.0201 14.1702 10.4822 14.7126C9.42305 15.7911 7.68652 15.8195 6.5875 14.7757C6.1293 14.3405 5.87695 13.8391 5.80059 13.2084C5.71094 12.4516 6.03301 11.6316 6.6373 11.0892C7.2416 10.5469 8.06836 10.2946 8.87852 10.4049Z" fill="black"/>
<path d="M6.7502 12.0008C6.68379 12.0639 6.67051 12.0986 6.68711 12.1806C6.72363 12.3666 6.79668 12.3919 7.2748 12.3919H7.70312V12.5464V12.7009L7.26816 12.7135C6.83984 12.723 6.8332 12.723 6.75352 12.8113C6.71035 12.8586 6.67383 12.9279 6.67383 12.9595C6.67383 12.991 6.71035 13.0604 6.75352 13.1077C6.8332 13.196 6.83984 13.196 7.26816 13.2055L7.70312 13.2181V13.3726V13.5271H7.30469C7.08223 13.5271 6.87305 13.5429 6.82656 13.5618C6.73027 13.6059 6.65723 13.7479 6.69043 13.8425C6.73691 13.9875 6.82656 14.0064 7.4209 13.9938L7.97539 13.9844L8.08828 13.8677L8.20117 13.7479V12.9626C8.20117 12.2153 8.19785 12.1743 8.13145 12.0954C8.00195 11.9378 7.91562 11.9188 7.35449 11.9188C6.84316 11.9188 6.83652 11.9188 6.7502 12.0008Z" fill="black"/>
<path d="M8.7291 12.0097L8.63281 12.1012V12.9589V13.8167L8.73242 13.9113L8.83203 14.0059L9.29023 13.9932C9.78828 13.9806 9.86465 13.9586 10.0572 13.7757C10.2797 13.5675 10.3096 13.4666 10.3096 12.9589C10.3096 12.4449 10.2764 12.344 10.0406 12.1264C9.86465 11.9624 9.68535 11.9183 9.22051 11.9183C8.82871 11.9183 8.82539 11.9183 8.7291 12.0097ZM9.65879 12.4417C9.77832 12.5206 9.82812 12.6782 9.82812 12.9589C9.82812 13.4035 9.7252 13.5265 9.35664 13.5265H9.13086V12.9589V12.3913H9.35664C9.50938 12.3913 9.60566 12.407 9.65879 12.4417Z" fill="black"/>
</g>
</svg>
