<svg width="20" height="25" viewBox="0 0 20 25" fill="none" xmlns="http://www.w3.org/2000/svg">
<path d="M10 0.398926C4.5 0.398926 0 4.77151 0 10.1158C0 16.6747 8.75 24.0838 9.125 24.4482C9.375 24.5696 9.75 24.6911 10 24.6911C10.25 24.6911 10.625 24.5696 10.875 24.4482C11.25 24.0838 20 16.6747 20 10.1158C20 4.77151 15.5 0.398926 10 0.398926ZM10 21.8975C7.375 19.4683 2.5 14.2455 2.5 10.1158C2.5 6.10758 5.875 2.82814 10 2.82814C14.125 2.82814 17.5 6.10758 17.5 10.1158C17.5 14.124 12.625 19.4683 10 21.8975ZM10 5.25736C7.25 5.25736 5 7.44365 5 10.1158C5 12.7879 7.25 14.9742 10 14.9742C12.75 14.9742 15 12.7879 15 10.1158C15 7.44365 12.75 5.25736 10 5.25736ZM10 12.545C8.625 12.545 7.5 11.4519 7.5 10.1158C7.5 8.77972 8.625 7.68657 10 7.68657C11.375 7.68657 12.5 8.77972 12.5 10.1158C12.5 11.4519 11.375 12.545 10 12.545Z" fill="#0D0D0D"/>
</svg>
