<svg width="28" height="28" viewBox="0 0 28 28" fill="none" xmlns="http://www.w3.org/2000/svg">
<g clip-path="url(#clip0_1366_1705)">
<path d="M1.75 0.946095C1.48203 1.03359 1.02266 1.50391 0.940627 1.78281C0.847659 2.1 0.84219 25.8891 0.940627 26.2008C1.02813 26.5016 1.33985 26.8461 1.6625 26.9938L1.94141 27.125H10.5C18.993 27.125 19.0586 27.1195 19.3047 27.0102C19.6328 26.8625 19.8406 26.6602 19.9938 26.332C20.1195 26.0695 20.125 26.0094 20.125 24.757V23.4555L19.9883 23.3242C19.8133 23.1437 19.5617 23.1437 19.3867 23.3242L19.25 23.4555V24.7188V25.982L19.1133 26.1133L18.982 26.25H10.5H2.01797L1.88672 26.1133L1.75 25.982V14V2.01797L1.88672 1.88672L2.01797 1.75H8.88672H15.75V2.93125C15.75 4.33672 15.7773 4.45703 16.1602 4.83984C16.543 5.22266 16.6633 5.25 18.0688 5.25H19.25V9.70703V14.1695L19.3867 14.3008C19.5617 14.4812 19.8133 14.4812 19.9883 14.3008L20.125 14.1695V9.39531V4.62109L18.2492 2.75078L16.3789 0.875L9.16016 0.880468C4.06328 0.885939 1.88672 0.902344 1.75 0.946095ZM17.6367 3.39062L18.6211 4.375H17.757C16.9148 4.375 16.893 4.36953 16.7617 4.23828C16.6305 4.10703 16.625 4.08516 16.625 3.25391C16.625 2.78906 16.6305 2.40625 16.6414 2.40625C16.6469 2.40625 17.0953 2.84922 17.6367 3.39062Z" fill="black"/>
<path d="M6.69922 4.51172C6.61172 4.59375 6.5625 4.70859 6.5625 4.8125C6.5625 4.91641 6.61172 5.03125 6.69922 5.11328L6.83047 5.25H10.2812H13.732L13.8633 5.11328C13.9508 5.03125 14 4.91641 14 4.8125C14 4.70859 13.9508 4.59375 13.8633 4.51172L13.732 4.375H10.2812H6.83047L6.69922 4.51172Z" fill="black"/>
<path d="M3.63672 7.13672C3.54922 7.21875 3.5 7.33359 3.5 7.4375C3.5 7.54141 3.54922 7.65625 3.63672 7.73828L3.76797 7.875H8.75H13.732L13.8633 7.73828C14.0438 7.56328 14.0438 7.31172 13.8633 7.13672L13.732 7H8.75H3.76797L3.63672 7.13672Z" fill="black"/>
<path d="M15.0117 7.13672C14.9242 7.21875 14.875 7.33359 14.875 7.4375C14.875 7.54141 14.9242 7.65625 15.0117 7.73828C15.143 7.875 15.1539 7.875 16.1875 7.875C17.2211 7.875 17.232 7.875 17.3633 7.73828C17.4508 7.65625 17.5 7.54141 17.5 7.4375C17.5 7.33359 17.4508 7.21875 17.3633 7.13672C17.232 7 17.2211 7 16.1875 7C15.1539 7 15.143 7 15.0117 7.13672Z" fill="black"/>
<path d="M3.63672 9.76172C3.54922 9.84375 3.5 9.95859 3.5 10.0625C3.5 10.1664 3.54922 10.2812 3.63672 10.3633L3.76797 10.5H10.5H17.232L17.3633 10.3633C17.5438 10.1883 17.5438 9.93672 17.3633 9.76172L17.232 9.625H10.5H3.76797L3.63672 9.76172Z" fill="black"/>
<path d="M24.6859 11.4242C24.1336 11.5664 24.1062 11.5938 19.4523 16.2367L14.9297 20.7539L14.4648 22.3781C14.2078 23.275 14 24.057 14 24.1172C14 24.2539 14.2516 24.5 14.3937 24.5C14.4484 24.5 15.225 24.2922 16.1219 24.0352L17.7461 23.5703L22.2633 19.0477C27.3984 13.9016 27.0977 14.257 27.0977 13.3711C27.0977 12.9445 27.0758 12.8352 26.9445 12.5453C26.6328 11.8727 25.993 11.4406 25.2492 11.4023C25.0359 11.3914 24.7789 11.3969 24.6859 11.4242ZM25.6539 12.3758C25.9766 12.5508 26.2008 12.8789 26.2391 13.2289C26.2719 13.6062 26.1461 13.918 25.8398 14.2188L25.5938 14.4648L24.8172 13.6828L24.0406 12.9062L24.2539 12.682C24.675 12.25 25.1945 12.1352 25.6539 12.3758ZM23.6523 13.7812L23.8711 14L20.1359 17.7352L16.4062 21.4648L16.1766 21.2297L15.9414 21L19.6602 17.2812C21.7055 15.2359 23.3898 13.5625 23.4062 13.5625C23.4227 13.5625 23.5375 13.6609 23.6523 13.7812ZM24.7461 14.875L24.9648 15.0938L21.2297 18.8289L17.5 22.5586L17.2703 22.3234L17.0352 22.0938L20.7539 18.375C22.7992 16.3297 24.4836 14.6562 24.5 14.6562C24.5164 14.6562 24.6312 14.7547 24.7461 14.875ZM16.5812 22.9742C16.5266 23.0289 15.143 23.4172 15.1102 23.3898C15.0883 23.3625 15.4602 22.0008 15.5148 21.9078C15.5312 21.8859 15.7883 22.1047 16.0836 22.4C16.3789 22.6953 16.6031 22.9523 16.5812 22.9742Z" fill="black"/>
<path d="M3.73519 12.3153C3.66956 12.3481 3.58753 12.4411 3.54925 12.5286C3.46722 12.7309 3.57113 13.0044 3.75706 13.0755C3.93753 13.1411 5.82972 13.1411 5.96097 13.07C6.09769 12.9989 6.18519 12.7145 6.12503 12.5559C6.02113 12.277 5.90628 12.2497 4.83988 12.2552C4.27113 12.2552 3.80628 12.2825 3.73519 12.3153Z" fill="black"/>
<path d="M7.23517 12.316C7.0547 12.4035 6.97267 12.6496 7.0547 12.852C7.09298 12.9449 7.16954 13.0434 7.22423 13.0707C7.35548 13.1418 17.1992 13.1418 17.3305 13.0707C17.3852 13.0434 17.4617 12.9449 17.5 12.852C17.582 12.6605 17.5 12.3926 17.3305 12.3051C17.1883 12.2285 7.39376 12.2395 7.23517 12.316Z" fill="black"/>
<path d="M3.63672 15.0117C3.54922 15.0938 3.5 15.2086 3.5 15.3125C3.5 15.4164 3.54922 15.5312 3.63672 15.6133L3.76797 15.75H10.5H17.232L17.3633 15.6133C17.5438 15.4383 17.5438 15.1867 17.3633 15.0117L17.232 14.875H10.5H3.76797L3.63672 15.0117Z" fill="black"/>
<path d="M3.63672 17.6367C3.54922 17.7188 3.5 17.8336 3.5 17.9375C3.5 18.0414 3.54922 18.1562 3.63672 18.2383L3.76797 18.375H7.875H11.982L12.1133 18.2383C12.2938 18.0633 12.2938 17.8117 12.1133 17.6367L11.982 17.5H7.875H3.76797L3.63672 17.6367Z" fill="black"/>
<path d="M13.2617 17.6367C13.1742 17.7188 13.125 17.8336 13.125 17.9375C13.125 18.0414 13.1742 18.1562 13.2617 18.2383C13.393 18.375 13.4039 18.375 14.4375 18.375C15.4711 18.375 15.482 18.375 15.6133 18.2383C15.7008 18.1562 15.75 18.0414 15.75 17.9375C15.75 17.8336 15.7008 17.7188 15.6133 17.6367C15.482 17.5 15.4711 17.5 14.4375 17.5C13.4039 17.5 13.393 17.5 13.2617 17.6367Z" fill="black"/>
<path d="M3.63672 20.2617C3.54922 20.3438 3.5 20.4586 3.5 20.5625C3.5 20.6664 3.54922 20.7812 3.63672 20.8633L3.76797 21H8.3125H12.857L12.9883 20.8633C13.1688 20.6883 13.1688 20.4367 12.9883 20.2617L12.857 20.125H8.3125H3.76797L3.63672 20.2617Z" fill="black"/>
<path d="M3.63672 22.8867C3.54922 22.9688 3.5 23.0836 3.5 23.1875C3.5 23.2914 3.54922 23.4062 3.63672 23.4883C3.76797 23.625 3.77891 23.625 4.8125 23.625C5.84609 23.625 5.85703 23.625 5.98828 23.4883C6.07578 23.4062 6.125 23.2914 6.125 23.1875C6.125 23.0836 6.07578 22.9688 5.98828 22.8867C5.85703 22.75 5.84609 22.75 4.8125 22.75C3.77891 22.75 3.76797 22.75 3.63672 22.8867Z" fill="black"/>
<path d="M7.13672 22.8867C7.04922 22.9688 7 23.0836 7 23.1875C7 23.2914 7.04922 23.4062 7.13672 23.4883L7.26797 23.625H9.625H11.982L12.1133 23.4883C12.2008 23.4062 12.25 23.2914 12.25 23.1875C12.25 23.0836 12.2008 22.9688 12.1133 22.8867L11.982 22.75H9.625H7.26797L7.13672 22.8867Z" fill="black"/>
</g>
<defs>
<clipPath id="clip0_1366_1705">
<rect width="28" height="28" fill="white"/>
</clipPath>
</defs>
</svg>
