<svg width="112" height="94" viewBox="0 0 112 94" fill="none" xmlns="http://www.w3.org/2000/svg">
<path d="M53.375 0.625002C46.6156 1.15 40.9281 3.5125 34.3875 8.56563C32.2437 10.2063 29.9031 11.4094 27.5844 12.0438C26.0969 12.4594 25.0687 12.525 18.2656 12.6344L10.6094 12.7656L9.49375 13.3563C8.33437 13.9688 7.28437 15.0188 6.62812 16.2219C6.25625 16.8563 6.23437 17.9719 6.16875 30.1781L6.10312 43.4344L4.2875 45.2938C2.82187 46.7594 2.25312 47.5469 1.575 48.9906C-0.0437541 52.3375 -0.0218792 52.0094 0.0437458 72.6156L0.109371 90.8813L0.699996 91.7781C1.64062 93.2 2.47187 93.4844 5.79687 93.4844C8.94687 93.4844 9.5375 93.3094 10.5656 92.0625C11.3531 91.1438 11.5937 90.1156 11.5937 87.6656C11.5937 85.85 11.6594 85.4563 12.0969 84.8219C12.3594 84.4063 12.9281 83.9031 13.3437 83.7063C14.0656 83.3344 16.5594 83.3125 56 83.3125C95.4406 83.3125 97.9344 83.3344 98.6562 83.7063C99.0719 83.9031 99.6406 84.4063 99.9031 84.8219C100.341 85.4563 100.406 85.85 100.406 87.6656C100.406 90.1156 100.647 91.1438 101.434 92.0625C102.462 93.3094 103.053 93.4844 106.203 93.4844C108.916 93.4844 109.091 93.4625 110.075 92.8938C110.775 92.4781 111.212 91.9969 111.541 91.3188C112.022 90.3563 112.022 90.3563 111.956 71.5875L111.891 52.7969L111.387 51.2656C110.534 48.75 109.594 47.2406 107.691 45.25L105.897 43.3906L105.831 30.1563C105.766 17.9719 105.744 16.8563 105.372 16.2219C104.716 15.0188 103.666 13.9688 102.506 13.3563L101.391 12.7656L93.7344 12.6344C86.8875 12.525 85.9031 12.4594 84.3937 12.0438C82.1406 11.4313 79.8437 10.2719 77.9844 8.85C74.2875 5.9625 71.05 4.01563 67.9656 2.79063C63.5906 1.04063 58.2969 0.253127 53.375 0.625002ZM61.0969 4.25625C66.15 5.0875 70.3062 7.07813 75.6875 11.2344C77.9406 12.9625 79.8 13.9688 82.3812 14.8219C85.2031 15.7625 87.0187 15.9375 93.975 15.9375C100.909 15.9375 101.369 16.025 102.156 17.2938C102.572 17.9938 102.594 18.3656 102.594 29.8938C102.594 41.1156 102.572 41.7719 102.222 41.6625C100.275 41.0719 98.6562 40.875 95.4406 40.875H91.9187L91.8312 34.0281C91.7656 28.3844 91.7 27.0719 91.4156 26.4375C91.0219 25.5844 89.7094 24.3375 88.8781 24.0094C88.5719 23.9 83.6062 23.8125 77.2625 23.8125C66.1719 23.8125 66.1719 23.8125 65.2969 24.3156C64.8375 24.5781 64.1375 25.2344 63.7656 25.7375C63.175 26.5906 63.1094 26.8969 63.0219 28.6688C62.9562 30.4625 63 30.6813 63.4594 31.1625C64.1375 31.9063 65.2312 31.8844 65.8219 31.1188C66.1719 30.6813 66.2812 30.2219 66.2812 29.2375C66.2812 26.875 65.2094 27.0938 77.3062 27.0938C86.8656 27.0938 87.9156 27.1375 88.1781 27.4656C88.4187 27.75 88.4844 29.1281 88.4844 34.2906V40.7656L77.3937 40.8313L66.2812 40.875V39.1469C66.2812 38.1844 66.2156 37.2438 66.15 37.0469C65.9312 36.5219 64.8375 36.0406 64.2031 36.1938C63.2625 36.4344 63 37.0688 63 39.0594V40.875H56H49.0219L48.9562 33.7875L48.8906 26.7L48.2344 25.7375C47.8625 25.2344 47.1625 24.5781 46.7031 24.3156C45.8281 23.8125 45.8281 23.8125 34.7375 23.8125C27.4531 23.8125 23.45 23.9 23.0344 24.0531C22.7062 24.1625 22.0937 24.6 21.6781 24.9719C20.2781 26.3063 20.2562 26.4813 20.1687 34.0281L20.0812 40.875H16.625C13.475 40.875 11.1125 41.1375 9.8 41.6406C9.42812 41.7938 9.40625 41.1375 9.40625 29.9156C9.40625 18.3656 9.42812 17.9938 9.84375 17.2938C10.6312 16.025 11.0906 15.9375 18.025 15.9375C24.9812 15.9375 26.7969 15.7625 29.6187 14.8219C32.375 13.9031 34.0156 12.9844 37.3406 10.4906C38.9375 9.2875 41.0594 7.86563 42.0437 7.34063C47.8625 4.19063 54.3156 3.14063 61.0969 4.25625ZM45.5 27.5094C45.6312 27.7719 45.7187 30.375 45.7187 34.4V40.875L34.6281 40.8313L23.5156 40.7656V34.2906C23.5156 29.1281 23.5812 27.75 23.8219 27.4656C24.0844 27.1375 25.1344 27.0938 34.6937 27.0938C44.9312 27.0938 45.2812 27.1156 45.5 27.5094ZM100.034 44.4844C104.191 45.5563 107.428 48.8375 108.391 52.95C108.631 53.9781 108.719 55.7938 108.719 60.1688V66.0313H62.0156C15.5969 66.0313 15.3125 66.0313 14.875 66.4688C14.3281 67.0156 14.3062 68.0219 14.8531 68.6781L15.2687 69.2031L61.9937 69.2688L108.719 69.3125V79.55C108.719 87.2281 108.653 89.8531 108.456 90.05C108.106 90.4 104.541 90.4 104.081 90.0281C103.797 89.8313 103.709 89.2188 103.644 87.1406C103.578 84.9969 103.469 84.3625 103.097 83.6406C102.484 82.4594 101.216 81.2344 99.9906 80.6438L98.9844 80.1406H56H13.0156L12.0094 80.6438C10.7844 81.2344 9.51562 82.4594 8.90312 83.6406C8.53125 84.3625 8.42187 84.9969 8.35625 87.1406C8.29062 89.2188 8.20312 89.8313 7.91875 90.05C7.45937 90.4 3.89375 90.4 3.54375 90.05C3.34687 89.8531 3.28125 87.2281 3.28125 79.5719V69.3563L6.10312 69.2688C8.50937 69.2031 8.99062 69.1375 9.38437 68.7875C9.975 68.2406 9.99687 67.0594 9.40625 66.4688C9.0125 66.075 8.68437 66.0313 6.125 66.0313H3.28125V60.1688C3.28125 55.7938 3.36875 53.9781 3.60937 52.95C4.57187 48.8813 7.7875 45.6 11.8781 44.4844C13.65 44.025 98.1969 44.0031 100.034 44.4844Z" fill="black"/>
</svg>
