<svg width="24" height="26" viewBox="0 0 24 26" fill="none" xmlns="http://www.w3.org/2000/svg">
<path d="M9.25014 1.61787C9.44354 1.13986 9.77529 0.730488 10.2029 0.44224C10.6304 0.153993 11.1343 0 11.65 0C12.1657 0 12.6696 0.153993 13.0971 0.44224C13.5247 0.730488 13.8565 1.13986 14.0499 1.61787C15.964 2.14429 17.6524 3.28451 18.8557 4.86342C20.0591 6.44233 20.7109 8.37261 20.711 10.3578V16.4377L23.0823 19.9948C23.2124 20.1897 23.2871 20.4163 23.2985 20.6504C23.3098 20.8845 23.2575 21.1172 23.1469 21.3239C23.0363 21.5305 22.8718 21.7032 22.6707 21.8236C22.4697 21.9441 22.2397 22.0077 22.0054 22.0076H16.1352C15.9793 23.086 15.4402 24.0721 14.6164 24.7854C13.7927 25.4986 12.7396 25.8912 11.65 25.8912C10.5604 25.8912 9.50729 25.4986 8.68357 24.7854C7.85985 24.0721 7.32068 23.086 7.16482 22.0076H1.29462C1.06027 22.0077 0.830311 21.9441 0.629272 21.8236C0.428232 21.7032 0.263655 21.5305 0.153099 21.3239C0.0425425 21.1172 -0.00984506 20.8845 0.00152463 20.6504C0.0128943 20.4163 0.0875948 20.1897 0.217657 19.9948L2.58904 16.4377V10.3578C2.58904 6.18459 5.41088 2.66894 9.25014 1.61787ZM9.81969 22.0076C9.95337 22.3864 10.2013 22.7145 10.5292 22.9465C10.8571 23.1785 11.2489 23.3031 11.6506 23.3031C12.0524 23.3031 12.4442 23.1785 12.7721 22.9465C13.1 22.7145 13.3479 22.3864 13.4816 22.0076H9.81839H9.81969ZM11.65 3.8857C9.93349 3.8857 8.28728 4.56758 7.07352 5.78134C5.85977 6.99509 5.17789 8.6413 5.17789 10.3578V16.8299C5.17794 17.0856 5.10227 17.3356 4.96042 17.5483L3.71389 19.4188H19.5848L18.3383 17.5483C18.1969 17.3355 18.1217 17.0855 18.1221 16.8299V10.3578C18.1221 8.6413 17.4402 6.99509 16.2265 5.78134C15.0127 4.56758 13.3665 3.8857 11.65 3.8857Z" fill="black"/>
</svg>
