<svg width="23" height="21" viewBox="0 0 23 21" fill="none" xmlns="http://www.w3.org/2000/svg">
<path d="M1.28711 18.0288V7.67236C1.28711 6.52842 2.21446 5.60107 3.3584 5.60107H3.87622C4.52817 5.60107 5.14208 5.29412 5.53325 4.77256L7.83238 1.70705C7.94973 1.55059 8.13391 1.4585 8.32949 1.4585H14.9576C15.1533 1.4585 15.3374 1.55059 15.4547 1.70705L17.7539 4.77256C18.145 5.29412 18.759 5.60107 19.4109 5.60107H19.9287C21.0727 5.60107 22 6.52842 22 7.67236V18.0288C22 19.1728 21.0727 20.1001 19.9287 20.1001H3.3584C2.21446 20.1001 1.28711 19.1728 1.28711 18.0288Z" stroke="white" stroke-linecap="round" stroke-linejoin="round"/>
<path d="M11.6436 15.9575C13.9314 15.9575 15.7861 14.1028 15.7861 11.8149C15.7861 9.5271 13.9314 7.67236 11.6436 7.67236C9.35567 7.67236 7.50098 9.5271 7.50098 11.8149C7.50098 14.1028 9.35567 15.9575 11.6436 15.9575Z" stroke="white" stroke-linecap="round" stroke-linejoin="round"/>
</svg>
