<svg width="22" height="22" viewBox="0 0 22 22" fill="none" xmlns="http://www.w3.org/2000/svg">
<g clip-path="url(#clip0_1342_1871)">
<path d="M2.51377 0.739184C1.66729 0.898169 0.889551 1.69309 0.734863 2.55246C0.67041 2.90051 0.67041 7.75598 0.734863 8.10403C0.893848 8.99348 1.68447 9.77551 2.57822 9.9259C2.77158 9.95598 3.91025 9.96887 6.19619 9.96028C9.4876 9.94739 9.53486 9.94739 9.65088 9.85715C9.71533 9.80989 9.80986 9.71536 9.85713 9.6509C9.94736 9.53489 9.94736 9.48762 9.96025 6.19621C9.96885 3.91028 9.95596 2.77161 9.92588 2.57825C9.77549 1.6845 8.99346 0.893872 8.104 0.734888C7.78174 0.674731 2.82314 0.679029 2.51377 0.739184ZM7.9665 2.11418C8.19424 2.18293 8.47354 2.46223 8.54229 2.68997C8.58096 2.82317 8.59385 3.58801 8.59385 5.73215V8.59387H5.73213C3.58799 8.59387 2.82314 8.58098 2.68994 8.54231C2.46221 8.47356 2.18291 8.19426 2.11416 7.96653C2.04111 7.71301 2.04111 2.94348 2.11416 2.68997C2.17861 2.47512 2.45791 2.18293 2.66416 2.11848C2.8876 2.04973 7.73018 2.04543 7.9665 2.11418Z" fill="black"/>
<path d="M13.8573 0.73898C13.0022 0.897964 12.2245 1.70148 12.0741 2.57804C12.044 2.7714 12.0311 3.90578 12.0397 6.19171L12.0526 9.52609L12.1772 9.68507C12.4007 9.98156 12.2331 9.96867 15.8897 9.96867C18.0596 9.96867 19.28 9.95148 19.4475 9.9214C20.3241 9.76242 21.1061 8.98039 21.2651 8.10382C21.2952 7.94054 21.3124 6.93937 21.3124 5.32804C21.3124 3.71671 21.2952 2.71554 21.2651 2.55226C21.1061 1.6757 20.3241 0.893668 19.4475 0.734684C19.1253 0.674527 14.1667 0.678824 13.8573 0.73898ZM19.31 2.11398C19.5378 2.18273 19.8171 2.46203 19.8858 2.68976C19.9245 2.82297 19.9374 3.51047 19.9374 5.35382C19.9374 7.76437 19.9331 7.84601 19.8471 8.03507C19.7311 8.29289 19.6538 8.37453 19.4003 8.49054L19.1854 8.59367H16.2979H13.4061V5.73195C13.4061 3.58781 13.419 2.82297 13.4577 2.68976C13.5221 2.47492 13.8014 2.18273 14.0077 2.11828C14.2311 2.04953 19.0737 2.04523 19.31 2.11398Z" fill="black"/>
<path d="M2.51377 12.0827C1.66729 12.2417 0.889551 13.0366 0.734863 13.896C0.67041 14.244 0.67041 19.0995 0.734863 19.4476C0.893848 20.3241 1.67588 21.1062 2.55244 21.2651C2.90049 21.3296 7.75596 21.3296 8.104 21.2651C8.98057 21.1062 9.7626 20.3241 9.92158 19.4476C9.95166 19.28 9.96885 18.0597 9.96885 15.8897C9.96885 12.2331 9.98174 12.4007 9.68525 12.1772L9.52627 12.0526L6.12744 12.0483C4.1165 12.044 2.64268 12.0569 2.51377 12.0827ZM8.59385 16.2937C8.59385 19.1081 8.58955 19.1897 8.50361 19.3788C8.3876 19.6366 8.31025 19.7183 8.05674 19.8343L7.84189 19.9374H5.354C3.51064 19.9374 2.82314 19.9245 2.68994 19.8858C2.46221 19.8171 2.18291 19.5378 2.11416 19.3101C2.04111 19.0565 2.04111 14.287 2.11416 14.0335C2.17861 13.8187 2.45791 13.5265 2.66416 13.462C2.76729 13.4319 3.71689 13.4147 5.70635 13.4104L8.59385 13.4062V16.2937Z" fill="black"/>
<path d="M12.4396 12.0913C12.2806 12.1601 12.1388 12.3147 12.0786 12.4737C12.0142 12.6413 12.0142 19.0952 12.0786 19.4476C12.2376 20.3241 13.0196 21.1062 13.8962 21.2651C14.2442 21.3296 19.0997 21.3296 19.4478 21.2651C20.3243 21.1062 21.1063 20.3241 21.2653 19.4476C21.3298 19.0995 21.3298 14.244 21.2653 13.896C21.1063 13.0194 20.3243 12.2374 19.4478 12.0784C19.0396 12.0054 12.6071 12.0183 12.4396 12.0913ZM19.3103 13.4577C19.538 13.5265 19.8173 13.8058 19.886 14.0335C19.9247 14.1667 19.9376 14.8542 19.9376 16.6976C19.9376 19.1081 19.9333 19.1897 19.8474 19.3788C19.7313 19.6366 19.654 19.7183 19.4005 19.8343L19.1856 19.9374H16.6978C14.8544 19.9374 14.1669 19.9245 14.0337 19.8858C13.806 19.8171 13.5267 19.5378 13.4579 19.3101C13.4192 19.1769 13.4063 18.412 13.4063 16.2679V13.4062H16.2681C18.4122 13.4062 19.1771 13.419 19.3103 13.4577Z" fill="black"/>
</g>
<defs>
<clipPath id="clip0_1342_1871">
<rect width="22" height="22" fill="white"/>
</clipPath>
</defs>
</svg>
