<svg width="82" height="112" viewBox="0 0 82 112" fill="none" xmlns="http://www.w3.org/2000/svg">
<path d="M8.12187 0.437441C5.2125 1.57494 2.9375 4.92182 2.9375 8.09369C2.9375 9.49369 3.4625 10.1499 4.57812 10.1499C5.67187 10.1499 6.21875 9.49369 6.21875 8.11557C6.21875 5.99369 7.8375 3.87182 9.91562 3.25932C10.4406 3.10619 20.6781 3.06244 41.5469 3.10619L72.3906 3.17182L73.4406 3.78432C74.5781 4.46244 75.3875 5.53432 75.8031 6.93432C76.0219 7.72182 75.9562 8.57494 75.3219 13.2562C74.5125 19.1843 74.3594 19.6874 72.9375 20.3874C72.2156 20.7593 70.2469 20.7812 41.175 20.7812C19.8031 20.7812 10.0031 20.7156 9.56562 20.5406C8.03437 19.9718 7.575 19.0093 7.18125 15.7062C7.00625 14.1968 6.50312 13.5624 5.45312 13.5624C4.6 13.5624 3.8125 14.2406 3.8125 14.9624C3.8125 16.5374 4.5125 19.8406 5.05937 20.8249C5.71562 22.0062 7.11562 23.2312 8.29687 23.6249C8.93125 23.8437 9.01875 23.9531 9.12812 24.8937C9.43437 27.2124 12.1687 56.6999 12.0812 56.7437C12.0594 56.7874 10.9875 56.7437 9.71875 56.6562C6.04375 56.3718 4.18437 56.9406 2.36875 58.8874C0.88125 60.4843 0.421875 61.6437 0.421875 63.8749C0.421875 66.1062 0.88125 67.2656 2.36875 68.8624C3.725 70.3062 5.43125 71.0718 7.75 71.2468L9.5 71.3781L9.39062 72.0562C9.01875 74.1124 4.46875 108.172 4.46875 108.784C4.46875 109.703 5.25625 110.906 6.10937 111.322C6.4375 111.475 7.575 111.672 8.60312 111.716C10.6594 111.825 11.4906 111.519 12.2125 110.403C12.4094 110.119 13.3281 106.619 14.2469 102.637L15.9531 95.3749L41.1094 95.4187L66.2437 95.4843L67.9062 102.594C68.825 106.509 69.6781 109.9 69.8094 110.141C69.9406 110.381 70.3125 110.819 70.6406 111.125C71.1875 111.628 71.3844 111.672 73.3312 111.672C74.9281 111.65 75.6281 111.562 76.175 111.278C77.0062 110.819 77.75 109.725 77.75 108.937C77.75 108.631 77.0062 102.987 76.1094 96.3812C74.8406 87.0843 74.4031 84.2843 74.1187 83.9781C73.8781 83.7156 73.4406 83.5624 72.9375 83.5624C71.8656 83.5624 71.2969 84.1749 71.3625 85.2687C71.3625 85.7062 72.0187 90.7593 72.8062 96.4687C74.6219 109.878 74.5344 108.391 73.5062 108.391H72.6312L68.3875 90.2562C66.0687 80.3031 64.2094 72.0781 64.2969 72.0124C64.4062 71.9031 69.2625 71.5312 69.3719 71.6187C69.3937 71.6406 69.6562 73.3687 69.9625 75.4687C70.4656 78.9906 70.5531 79.3187 71.0781 79.7781C71.7781 80.3906 72.2812 80.4124 73.025 79.8218C73.725 79.2749 73.7469 78.8156 73.1562 74.7031C72.9156 73.0187 72.7187 71.5749 72.7187 71.5093C72.7187 71.4437 73.5062 71.3124 74.4906 71.2468C77.6187 71.0062 79.8281 69.6062 81.0531 67.0687C81.8625 65.3624 82.0375 63.8531 81.6 62.1687C81.0094 59.8062 79.6531 58.1874 77.4219 57.1812C76.2406 56.6343 75.9125 56.5906 73.7031 56.6124C72.3906 56.6343 71.0344 56.6999 70.7062 56.7874C70.1594 56.8968 70.0937 56.8531 70.0937 56.3499C70.0937 55.7156 72.8719 26.1624 73.0469 24.7843C73.1562 23.9749 73.2656 23.8437 74.0531 23.5374C75.2344 23.0562 76.8531 21.5249 77.3562 20.4093C77.9469 19.0749 79.3469 9.05619 79.1937 7.32807C78.9312 4.65932 76.9625 1.81557 74.5781 0.656191L73.4844 0.109316L41.3281 0.0655659C10.3094 0.0218159 9.12812 0.0218159 8.12187 0.437441ZM17.9437 39.7031C18.8187 48.2343 19.5625 55.6718 19.6062 56.2187L19.6719 57.2031L17.7031 57.1374C16.6312 57.0937 15.6687 56.9843 15.6031 56.9187C15.5156 56.8312 14.8156 49.7656 14.0062 41.2343C13.1969 32.6812 12.4969 25.3312 12.4312 24.8718L12.3 24.0406L14.3344 24.1062L16.3687 24.1718L17.9437 39.7031ZM35.75 40.9062V57.7718L30.3469 57.6406C25.6437 57.5312 23.0844 57.3999 23.0406 57.2468C23.0406 57.2249 22.275 49.7437 21.3562 40.6218L19.6719 24.0624H27.7H35.75V40.9062ZM43.1875 40.9062V57.7499H41.1094H39.0312V40.9062V24.0624H41.1094H43.1875V40.9062ZM62.4375 24.4781C62.4375 24.9156 59.4625 54.5781 59.2437 56.2624C59.1125 57.2906 59.1125 57.2906 58.2156 57.3999C57.7125 57.4656 54.8687 57.5749 51.8937 57.6406L46.4687 57.7718V40.9062V24.0624H54.4531C62.1312 24.0624 62.4375 24.0843 62.4375 24.4781ZM69.7219 25.0906C69.6562 25.6812 68.9562 33.0749 68.1469 41.5624L66.6812 56.9843L64.625 57.1156C63.4875 57.2031 62.525 57.2468 62.5031 57.2249C62.4812 57.2031 63.225 49.7437 64.1437 40.6218L65.8062 24.0624H67.8187H69.8094L69.7219 25.0906ZM12.7812 60.1562C23.1062 60.7687 27.9406 60.8999 40.8906 60.9218C54.4094 60.9218 60.6875 60.7249 70.6187 60.0687C72.8937 59.8937 75.0812 59.8499 75.4969 59.9374C78.3406 60.5937 79.5219 64.2249 77.6187 66.4999C76.4594 67.8562 76.2187 67.8999 68.4531 68.3593C50.0125 69.4093 32.2719 69.4093 13.5469 68.3374C10.1781 68.1624 7.05 67.8999 6.6125 67.7906C4.99375 67.3749 3.59375 65.5812 3.59375 63.8749C3.59375 62.2781 5.01562 60.3312 6.39375 60.0249C6.72187 59.9593 7.09375 59.8718 7.20312 59.8281C7.33437 59.7843 7.81562 59.7843 8.29687 59.8499C8.77812 59.8937 10.7906 60.0249 12.7812 60.1562ZM17.3312 71.8812C17.9656 71.9687 18.0531 72.0781 17.9437 72.4718C17.8781 72.7343 15.9969 80.7843 13.7656 90.3437C11.5344 99.9031 9.65312 107.909 9.5875 108.106C9.5 108.391 9.2375 108.5 8.60312 108.5C8.14375 108.5 7.75 108.456 7.75 108.391C7.75 108.216 12.5406 72.9531 12.6719 72.2749L12.7812 71.6187L14.7062 71.6843C15.7562 71.7281 16.9375 71.8156 17.3312 71.8812ZM38.4844 72.2749C46.7969 72.2968 55.1969 72.2531 57.1875 72.2093L60.775 72.0999L63.0937 82.0531L65.4344 91.9843L41.1531 92.0499C27.7875 92.0718 16.85 92.0718 16.8062 92.0281C16.7406 91.9843 21.225 72.7562 21.4 72.2531C21.4875 72.0343 21.7719 72.0124 22.45 72.1218C22.975 72.2093 30.1937 72.2749 38.4844 72.2749Z" fill="black"/>
</svg>
