<svg width="106" height="106" viewBox="0 0 106 106" fill="none" xmlns="http://www.w3.org/2000/svg">
<path d="M0.849988 0.565604L0.346863 1.06873L0.171863 53L0.0187378 104.931L0.631238 105.456C1.24374 105.981 1.28749 106.003 4.21874 105.85C13.0781 105.412 20.4719 103.859 28.1281 100.862C32.0437 99.3312 32.175 98.9156 29.6812 96.2469C23.1406 89.225 19.3125 81.2625 18.1094 72.1844C17.6719 68.7719 17.6281 57.1562 18.0656 57.1562C18.7 57.1562 25.525 53.5687 27.9531 51.95C31.2125 49.7844 33.3562 48.0125 36.6594 44.7312C43.9 37.5781 48.9531 29.0469 51.8844 19.05C52.3437 17.4531 52.8031 15.7031 52.8906 15.1562L53.0656 14.1719L53.7875 16.9062C54.9469 21.2812 56.1719 24.6281 58.25 28.8281C61.225 34.9312 64.55 39.6125 69.3187 44.3812C74.2844 49.3687 81.3719 54.2906 87.0812 56.675L88.2187 57.1781V63.3469C88.2187 66.7375 88.1094 70.3906 88 71.4844C86.9281 80.825 83.1219 88.8969 76.3187 96.2687C73.825 98.9594 73.9562 99.3312 77.8719 100.862C85.5062 103.859 93.0312 105.434 101.672 105.85C104.603 105.981 104.756 105.959 105.347 105.5L105.937 105.041V71.4844V37.9281L105.369 37.4906C104.647 36.9219 104.166 36.9219 103.509 37.4469L102.984 37.8625L102.919 46.2187L102.853 54.5531L101.169 54.4875L99.4844 54.4219L98.325 51.8187C93.1406 40.1375 89.7281 23.5344 89.1594 7.2156L89.0281 3.12498H95.9406H102.853L102.919 8.37498C102.984 14.0187 103.006 14.1062 104.187 14.3906C104.581 14.4781 104.931 14.3906 105.347 14.0625L105.937 13.6031V7.28123V0.959354L105.369 0.521854L104.778 0.0624789H53.0656H1.35311L0.849988 0.565604ZM17.2562 4.48123C17.1906 5.24685 17.0812 7.32498 17.0156 9.1406C16.8625 12.925 16.2281 19.6406 15.5719 23.9062C13.9312 34.7781 11.4375 43.8562 7.91561 51.8844L6.75624 54.5312H5.04999H3.34374V28.8281V3.12498H10.3437H17.3656L17.2562 4.48123ZM34.5156 5.13748C33.7062 16.25 31.475 24.9125 26.9906 34.2969C23.8406 40.8812 19.7719 46.8531 14.5656 52.4969L12.7062 54.5312H11.3937C10.4312 54.5312 10.1031 54.4656 10.1906 54.2469C12.8156 48.2094 14.3687 43.8125 15.7906 38.3437C18.2187 29.0469 19.8375 17.6062 20.1219 7.6531L20.2531 3.12498H27.4719H34.6687L34.5156 5.13748ZM51.3812 5.13748C51.1406 8.4406 50.3969 12.8375 49.5 16.3594C46.8531 26.75 41.9312 35.4125 34.6031 42.6531C31.6062 45.6062 29.9219 46.9844 26.2906 49.4125C23.7312 51.1406 18.2406 54.0937 17.6062 54.0937C17.4531 54.0937 18.0875 53.2406 19.0062 52.1687C26.5312 43.5719 32.2187 32.5031 35.1719 20.7781C36.4625 15.6812 36.9437 12.4219 37.6 4.48123L37.7312 3.12498H44.6219H51.5344L51.3812 5.13748ZM68.8156 6.12185C69.625 22.7906 76.625 40.0937 87.6281 52.6062L89.0937 54.2906L88.2844 53.9406C79.3156 50.2 70.325 42.7187 64.6156 34.2312C60.1531 27.5812 57.0906 19.7062 55.6469 11.1094C55.2312 8.72498 54.75 4.56873 54.75 3.5406C54.75 3.14685 55.0344 3.12498 61.7062 3.12498H68.6844L68.8156 6.12185ZM86.0312 5.35623C86.0531 11.8094 87.1687 22.4187 88.6781 30.3156C90.0781 37.7094 92.55 46.1094 94.9781 51.7531C95.5906 53.175 96.0937 54.4 96.0937 54.4437C96.0937 54.4875 95.5469 54.5312 94.8687 54.5312H93.6219L92.1125 52.9344C84.9156 45.475 79.075 35.6969 75.6406 25.35C73.3656 18.5031 72.3812 13.275 71.7031 4.69998L71.5937 3.12498H78.8125H86.0312V5.35623ZM14.7187 61.225V64.8125H9.03124H3.34374V61.2031V57.5937L9.03124 57.6156H14.7187V61.225ZM102.875 61.2031V64.8125H97.0781H91.2812V61.225V57.6156H97.0781L102.875 57.5937V61.2031ZM14.8062 69.8875C15.5062 79.7969 19.5094 89.4656 25.8312 96.5094C26.9687 97.7781 27.1219 98.0406 26.7937 98.1719C26.5969 98.2594 25.2844 98.7187 23.9062 99.1781C18.1094 101.169 12.3125 102.284 5.15936 102.787L3.12499 102.919V85.3969V67.875H8.89999H14.6531L14.8062 69.8875ZM102.875 85.3969V102.919L100.862 102.787C93.0312 102.219 86.4031 100.862 79.95 98.4562L78.7906 98.0187L79.9281 96.7937C86.2062 89.925 90.275 80.4969 91.1281 70.7625L91.3687 67.875H97.1219H102.875V85.3969Z" fill="black"/>
</svg>
