<svg width="25" height="23" viewBox="0 0 25 23" fill="none" xmlns="http://www.w3.org/2000/svg">
<path d="M11.621 0.684977C9.56534 1.14396 8.1542 2.9799 8.26651 5.05509C8.33975 6.44669 9.03311 7.64298 10.2196 8.41447C11.0155 8.93205 12.036 9.17619 12.954 9.059C15.0683 8.79533 16.621 7.1547 16.7333 5.05509C16.8065 3.64884 16.1669 2.27677 15.0439 1.4467C14.6679 1.16349 14.038 0.855875 13.5985 0.733805C13.1884 0.616617 12.0409 0.592203 11.621 0.684977Z" fill="black"/>
<path d="M3.22744 3.80957C2.83681 3.92188 2.59756 4.03906 2.27041 4.28809C1.00088 5.25 0.86904 7.14453 2.00185 8.27734C2.53408 8.80957 3.16396 9.07324 3.90615 9.07324C5.16103 9.07324 6.23037 8.22852 6.51845 6.99316C6.82119 5.7041 6.06924 4.32715 4.80947 3.87793C4.42373 3.74121 3.60342 3.70703 3.22744 3.80957Z" fill="black"/>
<path d="M20.4149 3.80957C20.0243 3.92188 19.7851 4.03906 19.4579 4.28809C18.1884 5.25 18.0565 7.14453 19.1894 8.27734C19.7216 8.80957 20.3515 9.07324 21.0936 9.07324C22.3485 9.07324 23.4179 8.22852 23.706 6.99316C24.0087 5.7041 23.2567 4.32715 21.997 3.87793C21.6112 3.74121 20.7909 3.70703 20.4149 3.80957Z" fill="black"/>
<path d="M11.4502 10.748C9.99996 10.958 9.15523 11.2754 8.25191 11.959C7.2607 12.7061 6.60641 13.5996 6.24996 14.708C5.91305 15.748 5.83004 16.876 5.88863 19.3613L5.93258 21.0947L6.0693 21.373C6.24996 21.7393 6.54781 22.0273 6.93355 22.2129L7.25094 22.3643H12.2558C17.5488 22.3643 17.705 22.3594 18.2177 22.1396C18.5058 22.0127 18.7646 21.7344 18.9404 21.3682L19.0673 21.0947L19.082 18.6973C19.0966 16.0752 19.0722 15.7188 18.8183 14.918C18.1738 12.8623 16.3623 11.207 14.3554 10.8359C13.999 10.7676 11.7627 10.7041 11.4502 10.748Z" fill="black"/>
<path d="M2.51465 10.8455C1.4502 11.1043 0.517578 11.9734 0.166016 13.0428L0.0244141 13.4773V16.6268V19.7762L0.136719 19.9812C0.307617 20.3035 0.522461 20.5184 0.820312 20.6648L1.09863 20.8016L2.65625 20.8162C3.51074 20.826 4.2627 20.8211 4.32617 20.8064L4.44336 20.7771L4.43359 18.6873C4.42383 16.5193 4.45801 15.9725 4.63867 15.0789C4.90234 13.8191 5.50781 12.6228 6.33789 11.7342L6.55762 11.4998L6.44043 11.4021C6.22559 11.2215 5.54688 10.9139 5.2002 10.8406C4.73145 10.743 2.92969 10.7478 2.51465 10.8455Z" fill="black"/>
<path d="M19.7803 10.8455C19.4141 10.9236 18.8428 11.1824 18.6182 11.3728L18.457 11.5096L18.75 11.8318C19.5801 12.7645 20.1074 13.8191 20.3613 15.0594C20.5322 15.909 20.5664 16.534 20.5615 18.6873L20.5566 20.7771L20.6738 20.8064C20.7373 20.8211 21.4795 20.826 22.3193 20.8162C23.7646 20.8016 23.8672 20.7967 24.0771 20.699C24.3896 20.5525 24.6875 20.2693 24.8438 19.9764L24.9756 19.7273V16.6023V13.4773L24.834 13.0428C24.4775 11.9637 23.54 11.0945 22.4609 10.8406C22.0361 10.743 20.2344 10.743 19.7803 10.8455Z" fill="black"/>
</svg>
