<svg width="22" height="22" viewBox="0 0 22 22" fill="none" xmlns="http://www.w3.org/2000/svg">
<g clip-path="url(#clip0_1342_1958)">
<path d="M1.18164 0.0597911C0.704688 0.210182 0.365234 0.506666 0.154688 0.944947L0.0214844 1.22424V3.67346V6.12268L0.163281 6.41057C0.335156 6.76292 0.674609 7.08518 1.02266 7.22698L1.26758 7.32581L4.87695 7.3387C7.46797 7.34729 8.55938 7.3387 8.74414 7.30432C9.43164 7.17112 9.92148 6.68128 10.0547 5.99378C10.0891 5.81331 10.0977 5.06565 10.0891 3.50159C10.0762 1.2801 10.0762 1.26721 9.97734 1.02229C9.83555 0.674244 9.51328 0.334791 9.16094 0.162916L8.87305 0.0211192L5.11328 0.0125254C2.15703 0.0039317 1.31484 0.0168223 1.18164 0.0597911Z" fill="black"/>
<path d="M13.101 0.0597904C12.6456 0.180103 12.203 0.579712 12.0225 1.02229L11.9237 1.26721L11.9108 6.25159C11.9022 9.85237 11.9108 11.309 11.9452 11.4938C12.0784 12.1813 12.5682 12.6711 13.2557 12.8043C13.4405 12.8387 14.5319 12.8473 17.1229 12.8387L20.7323 12.8258L20.9772 12.727C21.3253 12.5852 21.6647 12.2629 21.8366 11.9106L21.9784 11.6227V6.42346V1.22424L21.8452 0.944947C21.6733 0.584009 21.4155 0.326197 21.0632 0.158619L20.7753 0.0211186L17.037 0.0125248C14.171 0.00822793 13.2514 0.0168217 13.101 0.0597904Z" fill="black"/>
<path d="M1.28906 9.19961C0.807813 9.29414 0.356641 9.65937 0.1375 10.132L0.0214844 10.377V15.5762V20.7754L0.154688 21.0547C0.322266 21.4113 0.588672 21.6777 0.945313 21.8453L1.22461 21.9785H5.04883H8.87305L9.16094 21.8367C9.51328 21.6648 9.83555 21.3254 9.97734 20.9773L10.0762 20.7324L10.0891 15.748C10.0977 12.1473 10.0891 10.6906 10.0547 10.5059C9.92578 9.83125 9.44453 9.34141 8.77422 9.19961C8.49922 9.14375 1.58984 9.13945 1.28906 9.19961Z" fill="black"/>
<path d="M13.1698 14.7125C12.5253 14.8715 12.0741 15.3484 11.9452 16.0059C11.9108 16.1863 11.9022 16.9297 11.9108 18.498C11.9237 20.7195 11.9237 20.7324 12.0225 20.9773C12.1643 21.3254 12.4866 21.6648 12.8389 21.8367L13.1268 21.9785H16.951H20.7753L21.0632 21.841C21.4155 21.6734 21.6733 21.4156 21.8452 21.0547L21.9784 20.7754V18.3262V15.877L21.8366 15.5891C21.6647 15.2367 21.3253 14.9145 20.9772 14.7727L20.7323 14.6738L17.0585 14.6652C14.2698 14.6609 13.3331 14.6695 13.1698 14.7125Z" fill="black"/>
</g>
<defs>
<clipPath id="clip0_1342_1958">
<rect width="22" height="22" fill="white"/>
</clipPath>
</defs>
</svg>
