<svg width="17" height="16" viewBox="0 0 17 16" fill="none" xmlns="http://www.w3.org/2000/svg">
<path d="M0.794774 0.348901C1.00891 0.134648 1.29929 0.0142878 1.60208 0.0142878C1.90486 0.0142878 2.19525 0.134648 2.40938 0.348901L8.45331 6.39804L14.4972 0.348901C14.6026 0.239747 14.7286 0.152681 14.8679 0.092785C15.0072 0.032889 15.157 0.0013618 15.3087 4.31509e-05C15.4603 -0.0012755 15.6106 0.0276405 15.751 0.0851044C15.8913 0.142568 16.0188 0.227429 16.126 0.334735C16.2332 0.442041 16.318 0.569643 16.3754 0.710096C16.4328 0.850549 16.4617 1.00104 16.4604 1.15279C16.4591 1.30454 16.4276 1.4545 16.3677 1.59393C16.3079 1.73337 16.2209 1.85948 16.1118 1.9649L10.0679 8.01404L16.1118 14.0632C16.3199 14.2787 16.4349 14.5674 16.4323 14.8671C16.4297 15.1667 16.3097 15.4534 16.0979 15.6653C15.8862 15.8772 15.5998 15.9974 15.3004 16C15.001 16.0026 14.7126 15.8874 14.4972 15.6792L8.45331 9.63004L2.40938 15.6792C2.19402 15.8874 1.90558 16.0026 1.60619 16C1.30679 15.9974 1.0204 15.8772 0.808684 15.6653C0.596971 15.4534 0.476881 15.1667 0.47428 14.8671C0.471678 14.5674 0.586773 14.2787 0.794774 14.0632L6.8387 8.01404L0.794774 1.9649C0.580706 1.75058 0.460449 1.45995 0.460449 1.1569C0.460449 0.853856 0.580706 0.563218 0.794774 0.348901Z" fill="#0D0D0D" fill-opacity="0.5"/>
</svg>
