<svg width="15" height="15" viewBox="0 0 15 15" fill="none" xmlns="http://www.w3.org/2000/svg">
<path d="M14.1524 0H1.52003C1.08694 0 0.736389 0.352435 0.736389 0.787849V13.488C0.736389 13.9234 1.08694 14.2759 1.52003 14.2759H8.32168V8.75467H6.4775V6.59456H8.32168V5.00369C8.32168 3.15943 9.44168 2.15565 11.0782 2.15565C11.8618 2.15565 12.5354 2.21454 12.7316 2.24042V4.16766L11.6036 4.16855C10.7134 4.16855 10.5413 4.59415 10.5413 5.21783V6.59456H12.6694L12.3926 8.75556H10.5413V14.2759H14.1533C14.5855 14.2759 14.9361 13.9234 14.9361 13.488V0.787849C14.9361 0.352435 14.5855 0 14.1524 0Z" fill="black"/>
</svg>
