<svg width="25" height="22" viewBox="0 0 25 22" fill="none" xmlns="http://www.w3.org/2000/svg">
<path d="M12.1631 1.86345C10.7479 0.594434 8.89316 -0.0719649 6.99392 0.00617064C5.09468 0.0843062 3.30097 0.900802 1.99479 2.28178C0.688602 3.66276 -0.0268571 5.4991 0.000771416 7.39975C0.0283999 9.3004 0.796933 11.1152 2.14271 12.4576L10.4442 20.7579C10.9001 21.2136 11.5184 21.4697 12.1631 21.4697C12.8078 21.4697 13.426 21.2136 13.882 20.7579L22.1834 12.4576C23.5292 11.1152 24.2978 9.3004 24.3254 7.39975C24.353 5.4991 23.6375 3.66276 22.3314 2.28178C21.0252 0.900802 19.2315 0.0843062 17.3322 0.00617064C15.433 -0.0719649 13.5783 0.594434 12.1631 1.86345ZM10.7384 3.86194L11.3036 4.42598C11.5316 4.65388 11.8407 4.7819 12.1631 4.7819C12.4854 4.7819 12.7946 4.65388 13.0225 4.42598L13.5878 3.86194C14.0363 3.39752 14.5729 3.02708 15.1661 2.77224C15.7594 2.51741 16.3974 2.38327 17.0431 2.37766C17.6887 2.37205 18.329 2.49508 18.9266 2.73957C19.5242 2.98406 20.0671 3.34511 20.5236 3.80166C20.9802 4.25822 21.3412 4.80112 21.5857 5.3987C21.8302 5.99629 21.9532 6.63658 21.9476 7.28221C21.942 7.92785 21.8079 8.56591 21.553 9.15915C21.2982 9.75239 20.9278 10.2889 20.4633 10.7375L12.1631 19.039L3.86281 10.7375C2.97707 9.82042 2.48696 8.59214 2.49804 7.31721C2.50912 6.04228 3.0205 4.82271 3.92204 3.92117C4.82359 3.01962 6.04316 2.50824 7.31809 2.49716C8.59302 2.48608 9.82129 2.97619 10.7384 3.86194Z" fill="#0D0D0D"/>
</svg>
