<svg width="25" height="22" viewBox="0 0 25 22" fill="none" xmlns="http://www.w3.org/2000/svg">
<path d="M12.1631 2.42593C10.7479 1.19284 8.89316 0.545307 6.99392 0.62123C5.09468 0.697154 3.30097 1.49053 1.99479 2.83241C0.688602 4.17429 -0.0268571 5.95863 0.000771416 7.80547C0.0283999 9.6523 0.796933 11.4157 2.14271 12.7201L10.4442 20.7854C10.9001 21.2282 11.5184 21.477 12.1631 21.477C12.8078 21.477 13.426 21.2282 13.882 20.7854L22.1834 12.7201C23.5292 11.4157 24.2978 9.6523 24.3254 7.80547C24.353 5.95863 23.6375 4.17429 22.3314 2.83241C21.0252 1.49053 19.2315 0.697154 17.3322 0.62123C15.433 0.545307 13.5783 1.19284 12.1631 2.42593ZM10.7384 4.36782L11.3036 4.9159C11.5316 5.13734 11.8407 5.26174 12.1631 5.26174C12.4854 5.26174 12.7946 5.13734 13.0225 4.9159L13.5878 4.36782C14.0363 3.91655 14.5729 3.55661 15.1661 3.30899C15.7594 3.06136 16.3974 2.93102 17.0431 2.92557C17.6887 2.92012 18.329 3.03967 18.9266 3.27723C19.5242 3.5148 20.0671 3.86563 20.5236 4.30926C20.9802 4.75288 21.3412 5.28042 21.5857 5.86108C21.8302 6.44174 21.9532 7.0639 21.9476 7.69126C21.942 8.31862 21.8079 8.93861 21.553 9.51505C21.2982 10.0915 20.9278 10.6129 20.4633 11.0487L12.1631 19.1151L3.86281 11.0487C2.97707 10.1576 2.48696 8.9641 2.49804 7.72527C2.50912 6.48644 3.0205 5.3014 3.92204 4.42538C4.82359 3.54936 6.04316 3.05246 7.31809 3.04169C8.59302 3.03093 9.82129 3.50716 10.7384 4.36782Z" fill="#0D0D0D"/>
</svg>
