<svg width="15" height="15" viewBox="0 0 15 15" fill="none" xmlns="http://www.w3.org/2000/svg">
<path d="M3.40725 0H11.6554C13.2981 0.00177054 14.6294 1.34013 14.6312 2.99155V11.2841C14.6294 12.9357 13.2982 14.2741 11.6556 14.2758H3.40725C1.76451 14.2741 0.433249 12.9357 0.431488 11.2843V2.99173C0.433249 1.34016 1.76448 0.00177054 3.40707 0H3.40724H3.40725ZM11.6554 13.0345C12.6165 13.0334 13.3954 12.2504 13.3964 11.2842V2.99176C13.3954 2.02549 12.6165 1.24246 11.6555 1.2414H3.40724C2.44612 1.24246 1.66729 2.02549 1.66625 2.99164V11.2842C1.66729 12.2504 2.44612 13.0334 3.40714 13.0345H3.40724H11.6554ZM7.53133 3.55656C9.49872 3.55656 11.0936 5.16 11.0936 7.13793C11.0936 9.11586 9.49871 10.7193 7.53133 10.7193C5.56394 10.7193 3.96907 9.11586 3.96907 7.13793C3.97152 5.16099 5.56494 3.55903 7.53109 3.55656H7.53133ZM7.53133 9.47793C8.81679 9.47793 9.85884 8.43027 9.85884 7.13793C9.85884 5.84559 8.81679 4.79793 7.53133 4.79793C6.24587 4.79793 5.20382 5.84559 5.20382 7.13793C5.2052 8.42973 6.24644 9.47652 7.53119 9.47793H7.53133ZM12.2419 3.28965C12.2419 3.77986 11.8467 4.17724 11.3591 4.17724C10.8715 4.17724 10.4762 3.77986 10.4762 3.28965C10.4762 2.79945 10.8715 2.40207 11.3591 2.40207C11.8466 2.40207 12.2419 2.79945 12.2419 3.28965Z" fill="black"/>
</svg>
