<svg width="112" height="112" viewBox="0 0 112 112" fill="none" xmlns="http://www.w3.org/2000/svg">
<path d="M2.07812 0.306253C1.18125 0.700003 0.262499 1.81563 0.109374 2.69063C0.043749 3.08438 -9.74463e-07 8.575 0.043749 14.9188C0.109374 26.1625 0.109374 26.4469 0.568749 27.0375C0.809374 27.3656 1.29062 27.8469 1.61875 28.0875C2.20937 28.5469 2.42812 28.5469 16.1437 28.5469H30.0781L30.8 28.0438C32.3094 26.95 32.2656 27.4531 32.2656 14.3281C32.2656 1.20313 32.3094 1.70625 30.8 0.612503L30.0781 0.109378L16.4062 0.0656279C5.38125 0.0218779 2.60312 0.0656279 2.07812 0.306253ZM28.9844 14.3281V25.2656L16.1437 25.3313L3.28125 25.375V14.3281V3.28125L16.1437 3.325L28.9844 3.39063V14.3281Z" fill="black"/>
<path d="M13.1469 18.725C12.5344 19.4906 12.5781 20.2344 13.2344 20.8906C13.7156 21.3938 13.9125 21.4375 16.0562 21.4375C18.1344 21.4375 18.3969 21.3938 18.9 20.9344C19.6875 20.2344 19.7531 19.3156 19.0312 18.5938C18.6375 18.2 18.3094 18.1563 16.1 18.1563C13.65 18.1563 13.5844 18.1781 13.1469 18.725Z" fill="black"/>
<path d="M47.3594 0.306254C46.55 0.678129 45.8281 1.44375 45.5219 2.25313C45.3687 2.64688 45.2812 5.775 45.2812 11.0469V19.2063L40.7969 24.5875L36.3125 29.9688V33.5563C36.3125 36.9031 36.3344 37.1656 36.8156 37.8656C37.0781 38.2813 37.7344 38.8281 38.2812 39.0906L39.2437 39.5938H56H72.7562L73.7187 39.0906C74.2656 38.8281 74.9219 38.2813 75.1844 37.8656C75.6656 37.1656 75.6875 36.9031 75.6875 33.5563V29.9688L71.2687 24.675L66.8281 19.3594L66.7187 10.7844C66.6094 2.55938 66.5875 2.1875 66.15 1.61875C65.9094 1.29063 65.4281 0.809379 65.1 0.568754C64.5312 0.131254 64.2031 0.109379 56.2625 0.065629C49.7219 0.021879 47.8844 0.065629 47.3594 0.306254ZM63.4375 10.7188V18.1563H56H48.5625V10.7188V3.28125H56H63.4375V10.7188ZM67.375 25.0906C69.0594 27.125 70.4375 28.8313 70.4375 28.9188C70.4375 29.0281 63.9406 29.0938 56 29.0938C48.0594 29.0938 41.5625 29.0281 41.5625 28.9188C41.5625 28.8313 42.9406 27.125 44.625 25.0906L47.6875 21.4375H56H64.3125L67.375 25.0906ZM72.4062 34.3438V36.3125H56H39.5937V34.3438V32.375H56H72.4062V34.3438Z" fill="black"/>
<path d="M81.5938 0.39375C79.9969 1.24688 79.4719 2.90938 79.6688 6.36563C79.7781 8.37813 80.15 8.96875 81.2656 8.96875C82.6438 8.96875 82.8844 8.50938 82.95 5.79688L83.0156 3.39063L95.8781 3.325L108.719 3.28125V14.3281V25.375L95.8781 25.3313L83.0156 25.2656L82.95 19.2281C82.9063 13.4969 82.8844 13.1688 82.4688 12.7969C81.8563 12.25 80.8063 12.2938 80.2156 12.8844C79.7344 13.3438 79.7344 13.4531 79.7344 19.7531C79.7344 26.8406 79.7563 27.0156 81.2 28.0438L81.9219 28.5469H95.8563C109.572 28.5469 109.791 28.5469 110.381 28.0875C110.709 27.8469 111.191 27.3656 111.431 27.0375C111.891 26.4469 111.891 26.2063 111.891 14.3281C111.891 2.45 111.891 2.20938 111.431 1.61875C111.191 1.29063 110.709 0.809375 110.381 0.56875C109.791 0.109375 109.528 0.109375 96.075 0.0437505C83.0375 4.8615e-07 82.3156 0.0218755 81.5938 0.39375Z" fill="black"/>
<path d="M92.9688 18.5938C92.2469 19.3156 92.3125 20.2344 93.1 20.9344C93.6031 21.3938 93.8656 21.4375 95.9438 21.4375C98.0875 21.4375 98.2844 21.3938 98.7656 20.8906C99.4219 20.2344 99.4656 19.4906 98.8531 18.725C98.4156 18.1781 98.35 18.1563 95.9 18.1563C93.6906 18.1563 93.3625 18.2 92.9688 18.5938Z" fill="black"/>
<path d="M80.4563 40.2502C79.7344 40.797 79.6031 41.322 79.975 42.1752C80.325 43.0283 80.5656 43.0939 84.1094 43.1595L86.9531 43.2033L87.0188 45.1939L87.0844 47.1845L85.9688 47.8627C82.4906 50.0283 82.5563 54.9939 86.0781 56.9189C87.325 57.597 89.4031 57.7502 90.6281 57.247C93.1 56.197 94.3906 53.3533 93.5813 50.7064C93.275 49.6564 91.9188 48.0595 91 47.6877L90.3438 47.4252V45.2595V43.0939H95.9219H101.5V45.2377V47.3595L100.494 47.8845C98.7656 48.8252 97.5844 51.122 97.9125 53.0252C98.35 55.7595 100.406 57.5314 103.141 57.5314C105.306 57.5314 107.144 56.3283 107.931 54.4252C108.391 53.3095 108.369 51.297 107.866 50.2033C107.45 49.2627 106.006 47.8189 105.241 47.5783C104.803 47.447 104.781 47.2939 104.781 45.2595V43.0939H107.931C111.081 43.0939 111.103 43.0939 111.541 42.5252C112.109 41.8033 112.131 41.1033 111.584 40.447L111.169 39.922L96.075 39.8564C81.3094 39.8127 81.0031 39.8127 80.4563 40.2502ZM89.3594 50.6189C91.3719 51.472 90.7813 54.2502 88.5938 54.2502C86.5156 54.2502 85.9031 51.4502 87.8063 50.6189C88.6375 50.2689 88.4844 50.2689 89.3594 50.6189ZM104.519 51.1002C105.634 52.3689 104.781 54.2502 103.075 54.2502C100.931 54.2502 100.472 51.3627 102.484 50.5095C103.141 50.247 103.95 50.4877 104.519 51.1002Z" fill="black"/>
<path d="M13.4531 47.1845C12.8406 47.3376 11.6594 48.2782 11.3313 48.847C11.1344 49.197 11.025 51.1001 10.9375 55.4532L10.8281 61.5782L6.45312 61.6876C1.53125 61.8188 1.225 61.9063 0.415625 63.4595C-3.77208e-07 64.2907 -3.82424e-07 64.8595 0.0437496 87.0407C0.109375 109.616 0.109375 109.791 0.56875 110.381C0.809375 110.709 1.29062 111.191 1.61875 111.431C2.1875 111.869 2.5375 111.891 8.77187 111.956L15.3125 112.022L15.8594 111.475C16.5594 110.775 16.5594 109.944 15.8594 109.266L15.3344 108.719H9.29687H3.28125V94.0626V79.4063H17.9375H32.5938V94.0626V108.719H26.6219C20.9125 108.719 20.6281 108.741 20.1688 109.156C19.5125 109.769 19.5125 110.95 20.1688 111.563L20.65 112L65.2094 111.956L109.791 111.891L110.381 111.431C110.709 111.191 111.191 110.709 111.431 110.381C111.891 109.791 111.891 109.616 111.956 87.0407C112 64.7501 112 64.2907 111.563 63.4595C111.344 63.0001 110.797 62.4095 110.403 62.147L109.659 61.6876H65.5375H21.4375V55.8251C21.4375 50.1813 21.4156 49.9407 20.9563 49.0001C20.1688 47.4688 19.4031 47.1407 16.4063 47.097C15.0281 47.0751 13.6938 47.1188 13.4531 47.1845ZM18.0469 56.0001V61.5782L16.1438 61.6438L14.2188 61.7095V56.0001V50.2907L16.1438 50.3563L18.0469 50.422V56.0001ZM32.5938 70.547V76.1251H17.9375H3.28125V70.547V64.9688H17.9375H32.5938V70.547ZM76.125 70.547V76.1251H56H35.875V70.547V64.9688H56H76.125V70.547ZM108.719 70.547V76.1251H94.0625H79.4063V70.547V64.9688H94.0625H108.719V70.547ZM76.125 94.0626V108.719H56H35.875V94.0626V79.4063H56H76.125V94.0626ZM108.719 94.0626V108.719H94.0625H79.4063V94.0626V79.4063H94.0625H108.719V94.0626Z" fill="black"/>
<path d="M14.9844 69.4531C14.3719 70.0438 14.3281 70.3719 14.6781 71.1594C15.05 71.9688 15.7719 72.1875 17.9375 72.1875C20.1031 72.1875 20.825 71.9688 21.1969 71.1594C21.5469 70.4156 21.5031 70.1313 20.9781 69.475C20.5406 68.9281 20.475 68.9063 18.025 68.9063C15.6406 68.9063 15.4875 68.9281 14.9844 69.4531Z" fill="black"/>
<path d="M40.3594 69.4531C39.7469 70.0438 39.7031 70.3719 40.0531 71.1594C40.3813 71.8813 41.125 72.1875 42.525 72.1875C44.0344 72.1875 44.8438 71.6188 44.8438 70.525C44.8438 69.3 44.2531 68.9063 42.4375 68.9063C41.0813 68.9063 40.8188 68.9719 40.3594 69.4531Z" fill="black"/>
<path d="M54.075 69.2781C53.8125 69.4969 53.55 69.9344 53.4625 70.2625C53.3531 70.7438 53.4625 70.9844 53.9875 71.5313C54.5781 72.1219 54.7969 72.1875 56 72.1875C57.2031 72.1875 57.4219 72.1219 58.0125 71.5313C58.5375 70.9844 58.6469 70.7438 58.5375 70.2625C58.2969 69.2344 57.6625 68.9063 56 68.9063C54.9062 68.9063 54.4031 69.0156 54.075 69.2781Z" fill="black"/>
<path d="M67.5937 69.3438C67.3312 69.6063 67.1562 70.0656 67.1562 70.525C67.1562 71.6188 67.9656 72.1875 69.475 72.1875C70.875 72.1875 71.6187 71.8813 71.9469 71.1594C72.2969 70.3719 72.2531 70.0438 71.6406 69.4531C71.1812 68.9719 70.9187 68.9063 69.5625 68.9063C68.3156 68.9063 67.9437 68.9938 67.5937 69.3438Z" fill="black"/>
<path d="M91.0219 69.4752C90.7594 69.8033 90.5625 70.1971 90.5625 70.3502C90.5625 70.9189 91.0656 71.7064 91.5906 71.9471C92.2687 72.2533 95.8562 72.2533 96.5562 71.9471C97.6719 71.4439 97.7594 69.6939 96.7094 69.1471C96.4687 69.0158 95.2 68.9064 93.8656 68.9064C91.5469 68.9064 91.4594 68.9283 91.0219 69.4752Z" fill="black"/>
<path d="M41.8687 83.65C41.4969 83.825 40.9062 84.3281 40.5562 84.7875L39.9219 85.5969L39.8562 93.6031C39.7906 102.616 39.8344 102.966 41.3 104.081L42.0656 104.672H56H69.9344L70.7 104.081C72.1656 102.966 72.2094 102.616 72.1437 93.6031L72.0781 85.5969L71.4437 84.7875C70.3062 83.3 70.8094 83.3437 55.9562 83.3437C45.15 83.3656 42.4156 83.4094 41.8687 83.65ZM68.9062 94.0625V101.5H56H43.0937V94.0625V86.625H56H68.9062V94.0625Z" fill="black"/>
<path d="M47.9719 90.8251C46.9219 91.3283 46.8562 93.0783 47.8844 93.6033C48.475 93.9314 63.525 93.9314 64.1156 93.6033C65.1656 93.0564 65.0781 91.3064 63.9625 90.8033C63.2406 90.4751 48.65 90.497 47.9719 90.8251Z" fill="black"/>
<path d="M83.8906 89.3594C83.3438 89.8844 83.3438 89.9281 83.3438 94.0625C83.3438 98.1969 83.3438 98.2406 83.8906 98.7656C84.175 99.0719 84.6781 99.3125 84.9844 99.3125C85.2906 99.3125 85.7937 99.0719 86.0781 98.7656C86.625 98.2406 86.625 98.1969 86.625 94.0625C86.625 89.9281 86.625 89.8844 86.0781 89.3594C85.7937 89.0531 85.2906 88.8125 84.9844 88.8125C84.6781 88.8125 84.175 89.0531 83.8906 89.3594Z" fill="black"/>
<path d="M7.76562 89.3595C7.21875 89.8845 7.21875 89.9283 7.21875 94.0626C7.21875 98.197 7.21875 98.2408 7.76562 98.7658C8.44375 99.4658 9.275 99.4658 9.95312 98.7658C10.5 98.2408 10.5 98.2189 10.5 93.997C10.5 89.8626 10.5 89.7533 9.99687 89.2939C9.31875 88.6595 8.42187 88.6814 7.76562 89.3595Z" fill="black"/>
</svg>
