<svg width="72" height="112" viewBox="0 0 72 112" fill="none" xmlns="http://www.w3.org/2000/svg">
<path d="M13.1406 0.240623C12.2875 0.481255 10.9312 1.61875 10.4937 2.45C10.1656 3.08437 6.03124 25.55 6.03124 26.7094C6.03124 27.4094 6.90624 28.2188 7.67187 28.2188C7.95624 28.2188 8.39374 28.0438 8.65624 27.825C9.07187 27.4969 9.35624 26.1188 11.1937 15.9688C12.3094 9.64687 13.25 4.41875 13.25 4.30938C13.25 4.22188 13.4469 3.95937 13.6875 3.71875C14.125 3.28125 14.4094 3.28125 35.8687 3.28125C47.8344 3.28125 57.7875 3.34688 57.9625 3.4125C58.1594 3.5 58.4219 3.71875 58.5312 3.91563C58.7281 4.2875 68.1562 56.6562 68.1562 57.3781C68.1562 57.575 67.9594 57.9469 67.7187 58.1875C67.2812 58.625 66.9969 58.625 36 58.625C5.00312 58.625 4.71874 58.625 4.28124 58.1875C4.04062 57.9469 3.84374 57.575 3.84374 57.3344C3.84374 57.1156 4.74062 51.975 5.83437 45.9156C6.92812 39.8563 7.82499 34.5625 7.84687 34.1688C7.86874 33.25 7.16874 32.5281 6.24999 32.5281C4.87187 32.5281 4.89374 32.4625 2.74999 44.4062C0.387494 57.575 0.387494 57.6406 0.868744 58.9531C1.32812 60.1125 2.59687 61.2938 3.82187 61.6437C4.41249 61.8188 7.75937 61.9062 14.9125 61.9062H25.1937L25.1719 63.3937C25.1719 64.2031 25.2375 65.0563 25.3469 65.3188C25.4781 65.7125 25.2594 65.8875 23.225 66.8937C16.7281 70.1313 12.4406 75.3156 10.9312 81.7688C10.7344 82.6438 10.5812 84.2188 10.5812 85.6406C10.5812 89.6656 11.675 93.1656 13.9937 96.6656C15.2187 98.5031 18.6094 101.784 20.425 102.9C21.1687 103.381 21.7812 103.819 21.7812 103.906C21.7812 103.994 21.6062 104.388 21.4094 104.803C21.1469 105.284 21.0156 106.05 21.0156 106.991C21.0156 108.216 21.125 108.588 21.6719 109.506C22.0875 110.163 22.7437 110.819 23.4 111.234L24.4719 111.891H36H47.5281L48.6 111.234C49.2562 110.819 49.9125 110.163 50.3281 109.506C50.875 108.588 50.9844 108.216 50.9844 106.991C50.9844 106.05 50.8531 105.284 50.6125 104.803C50.3937 104.388 50.2187 103.994 50.2187 103.906C50.2187 103.819 50.7875 103.403 51.4875 102.966C53.3906 101.784 53.9375 101.172 53.9375 100.297C53.9375 99.3781 53.3031 98.6562 52.4937 98.6562C52.1875 98.6562 51.3344 99.0719 50.5906 99.6188C49.8469 100.144 48.6437 100.887 47.9437 101.259L46.6312 101.959L35.8031 101.894L24.9531 101.828L23.0937 100.734C20.6875 99.3125 17.3844 96.0969 16.1594 93.9531C10.7125 84.4813 15.2187 73.5438 26.4187 69.0156C27.8625 68.4469 28.3437 68.3375 28.8687 68.4906C29.7219 68.7313 41.9719 68.7313 43.0219 68.4906C43.7 68.3375 44.1375 68.425 45.7781 69.1031C48.0094 70.0219 48.8844 70.525 50.8094 71.9469L52.1875 72.9531V79.9969C52.1875 87.4563 52.2531 87.9156 53.2156 88.3531C53.9594 88.6812 54.2437 88.6594 54.8781 88.1344L55.4687 87.6969L55.5125 82.2938L55.5781 76.8906L56.4094 78.5094C58.7062 82.9281 58.7281 88.1344 56.4312 92.9031C55.7312 94.3469 55.6875 94.5438 55.95 95.0906C56.1031 95.4188 56.4969 95.8344 56.8469 96.0312C57.8094 96.5781 58.4656 96.0531 59.5594 93.8438C60.8281 91.3062 61.3969 88.7906 61.3969 85.6406C61.3969 80.8719 59.8219 76.6719 56.65 72.9313L55.4687 71.5531V66.7188V61.9062H61.3969C68.1562 61.9062 68.6812 61.8188 70.0375 60.4625C71.1312 59.3688 71.525 58.275 71.3719 56.7875C71.2406 55.4313 62.0969 4.375 61.7906 3.21563C61.5062 2.12188 59.9312 0.546875 58.8375 0.240623C57.7875 -0.0437469 14.125 -0.0656204 13.1406 0.240623ZM43.1094 62.4531C43.7 63.0219 43.7875 63.5688 43.4156 64.3781C42.9781 65.3406 42.475 65.4062 36 65.4062C29.525 65.4062 29.0219 65.3406 28.5844 64.3781C28.2125 63.5688 28.3 63.0219 28.8906 62.4531L29.4156 61.9062H36H42.5844L43.1094 62.4531ZM52.1875 65.2969C52.1875 67.1562 52.1219 68.6875 52.0562 68.6875C51.9906 68.6875 51.6625 68.4906 51.3125 68.25C50.9844 68.0094 49.7594 67.3531 48.6 66.8063C46.5875 65.8219 46.5219 65.7563 46.675 65.2094C46.7625 64.9031 46.8281 64.0281 46.8281 63.2625L46.8062 61.9062H49.4969H52.1875V65.2969ZM47.2656 105.766C48.1187 106.597 47.8562 107.997 46.7844 108.478C46.0406 108.806 25.9594 108.806 25.2156 108.478C24.1875 108.019 23.9031 106.728 24.6469 105.787L25.0844 105.219H35.9125H46.7406L47.2656 105.766Z" fill="black"/>
</svg>
