<svg width="84" height="76" viewBox="0 0 84 76" fill="none" xmlns="http://www.w3.org/2000/svg">
<path d="M49.8906 0.695382C48.7188 0.929757 47.1758 1.7696 46.3359 2.60944C45.9453 3.0196 42.5664 7.60944 38.8164 12.8438C35.0859 18.0782 31.3164 23.2735 30.4375 24.3673C29.5586 25.4805 27.293 27.961 25.3789 29.8946C23.4844 31.8282 21.8438 33.6055 21.707 33.8399C21.5508 34.1524 21.4922 38.7227 21.4922 50.2657V66.2618L22.0586 67.0235C22.7031 67.9219 26.9023 72.0235 28.0352 72.9024C28.9922 73.6446 30.8086 74.5626 32.2344 75.0313C33.2305 75.3634 34.3438 75.4024 47.2734 75.461C57.0195 75.5001 61.6289 75.461 62.5469 75.3048C64.5391 74.9532 66.4336 73.9571 67.9766 72.4141C68.6992 71.6915 69.4609 70.754 69.6758 70.3243C69.9102 69.8946 72.957 63.0782 76.4727 55.1876C80.3984 46.3399 82.9961 40.2462 83.25 39.3087C83.582 38.0001 83.6211 37.2969 83.5625 34.3282C83.5039 30.9102 83.5039 30.8516 82.8789 29.5626C82.1758 28.0587 80.7695 26.5352 79.4805 25.8712C77.625 24.9337 77.3906 24.9141 65.2031 24.9141C58.875 24.9141 53.7188 24.8751 53.7188 24.8165C53.7188 24.7774 54.8711 21.8673 56.2578 18.3516C59.207 10.9688 59.4219 10.0899 58.9336 7.64851C58.4258 5.14851 57.1758 3.09773 55.3789 1.86726C53.8164 0.793038 51.6289 0.324288 49.8906 0.695382Z" fill="#A69689"/>
<path d="M5.53516 30.8516C3.5625 31.4961 2.05859 32.8047 1.04297 34.7188L0.496094 35.7539V51.4766V67.1992L1.0625 68.332C1.74609 69.6602 3.36719 71.2617 4.63672 71.8477C5.41797 72.1992 5.92578 72.2773 7.625 72.2773C9.5 72.2773 9.77344 72.2383 10.8086 71.7109C12.1953 71.0078 13.543 69.6016 14.2266 68.1172L14.7539 67.0039V51.4766V35.9492L14.1289 34.6602C12.8984 32.1602 10.6914 30.7539 7.91797 30.6367C6.96094 30.5977 6.04297 30.6953 5.53516 30.8516Z" fill="#A69689"/>
</svg>
