<svg width="84" height="82" viewBox="0 0 84 82" fill="none" xmlns="http://www.w3.org/2000/svg">
<path d="M47.5469 0.961102C47.1172 1.05876 46.4141 1.27361 46.0039 1.42986C44.0898 2.23064 43.7188 2.69939 35.7109 13.8908C31.4531 19.8283 27.3125 25.5314 26.4922 26.547C24.832 28.5978 20.5742 33.1877 20.3398 33.1877C20.2617 33.1877 20.0273 32.8166 19.8125 32.3478C19.6172 31.8986 18.8359 30.9025 18.0742 30.1603C16.6289 28.715 15.0078 27.7775 13.2305 27.3478C12 27.0549 9.51953 27.0549 8.30859 27.3283C4.73438 28.2072 1.80469 31.0392 0.710938 34.7306C0.4375 35.6877 0.398438 37.8361 0.398438 54.1056V72.4259L0.847656 73.8517C3.28906 81.508 13.0938 83.6564 18.4258 77.7189C18.9531 77.133 19.5586 76.3127 19.7734 75.883C19.9883 75.4338 20.2031 75.0431 20.2422 75.0041C20.2812 74.965 21.2188 75.8049 22.332 76.8791C24.0703 78.5783 24.6172 78.9689 26.1992 79.7306C29.2656 81.1955 28.3867 81.1369 45.7109 81.1369H61.2383L62.5078 80.6877C63.2109 80.4338 64.168 80.0041 64.6562 79.7111C65.8086 79.047 67.625 77.3088 68.3477 76.1759C69.3242 74.633 82.8008 44.0666 83.2109 42.4259C83.7773 40.258 83.7773 34.7502 83.2109 32.9728C82.2539 29.9064 79.6562 27.6603 76.4336 27.133C75.8086 27.0158 69.9883 26.9377 63.3086 26.9377C53.8164 26.9377 51.3555 26.8791 51.4336 26.6838C51.4922 26.5666 52.6836 23.5392 54.1094 20.0041C57.0586 12.6799 57.2344 12.133 57.2344 10.2385C57.2344 5.64861 54.2852 1.74235 50.2031 0.961102C49.0508 0.746258 48.6797 0.746258 47.5469 0.961102ZM50.5938 5.45329C52.1172 6.23454 53.3086 8.75408 53.0742 10.6877C53.0156 11.215 51.5312 15.2189 49.6367 19.965C47.8008 24.5549 46.2578 28.5197 46.1797 28.7736C46.0039 29.4767 46.6094 30.5705 47.3711 30.922C47.9375 31.1955 49.6758 31.2345 62.0977 31.2345C76.1211 31.2345 76.1797 31.2345 77.0781 31.6642C78.0547 32.1135 78.9531 33.1681 79.3242 34.301C79.5977 35.1799 79.4609 40.8049 79.1094 41.7814C78.9922 42.1525 75.75 49.5353 71.9219 58.1681C65.3008 73.1095 64.9102 73.9299 63.9727 74.8869C63.4453 75.4338 62.5664 76.0978 62.0195 76.3517L61.043 76.84H45.418H29.793L28.25 76.0978C26.9219 75.4728 26.3555 75.0041 23.9141 72.6017L21.1016 69.8283V54.1252V38.4025L24.3828 35.0627C26.1797 33.2267 28.4648 30.7463 29.4414 29.5353C30.418 28.3244 34.5977 22.6213 38.7383 16.84C45.9844 6.72283 46.707 5.76579 47.5664 5.29704C48.2109 4.94548 49.7539 5.02361 50.5938 5.45329ZM13.4453 31.801C14.7148 32.4455 15.75 33.5002 16.3555 34.7111L16.9023 35.8244V54.0861V72.3478L16.3555 73.4611C15.7695 74.672 14.7344 75.7072 13.4453 76.3908C12.7422 76.7619 12.3125 76.84 10.75 76.84C9.1875 76.84 8.75781 76.7619 8.05469 76.3908C6.76562 75.7072 5.73047 74.672 5.14453 73.4611L4.59766 72.3478L4.53906 54.4963C4.48047 34.7502 4.44141 35.4338 5.73047 33.7345C6.43359 32.8166 7.89844 31.7424 8.875 31.4299C9.92969 31.0978 12.5078 31.3127 13.4453 31.801Z" fill="#A69689"/>
</svg>
