<svg width="23" height="29" viewBox="0 0 23 29" fill="none" xmlns="http://www.w3.org/2000/svg">
<path d="M10.6277 0.090683C9.76113 0.300253 8.92852 0.95162 8.55469 1.7106L8.36777 2.09576H7.2293C5.65469 2.09576 5.60938 2.12408 5.60938 3.20592V3.79498H4.18203C3.11719 3.79498 2.6584 3.81763 2.39219 3.87994C1.30469 4.14049 0.398438 5.04674 0.177539 6.10592C0.132227 6.32115 0.115234 9.36842 0.115234 16.5618C0.115234 26.5192 0.115234 26.7288 0.228516 27.0856C0.511719 27.9975 1.29902 28.6829 2.34121 28.9151C2.70371 28.9944 3.68926 29.0001 11.6982 28.9887L20.6475 28.9717L21.027 28.8245C21.7236 28.5526 22.3354 28.0542 22.6016 27.5331C22.9018 26.9383 22.8848 27.5444 22.8848 16.5391C22.8848 5.42056 22.9018 6.09459 22.5619 5.38092C22.3637 4.96744 21.7123 4.32174 21.2875 4.11783C20.7041 3.84029 20.3813 3.79498 18.8236 3.79498H17.3906V3.20592C17.3906 2.5149 17.3453 2.36197 17.0961 2.20904C16.9262 2.10709 16.8072 2.09576 15.7367 2.09576H14.5643L14.383 1.7106C14.1338 1.19518 13.5334 0.594784 13.018 0.345566C12.3326 0.0227146 11.3471 -0.0849037 10.6277 0.090683ZM12.2363 1.47271C12.8027 1.76158 13.1256 2.14674 13.2955 2.71881C13.4938 3.40982 13.5957 3.45514 14.9494 3.45514H15.9746V4.84283V6.23052H11.5H7.02539V4.8485V3.4608L8.06758 3.44381C9.31934 3.42115 9.34766 3.40982 9.57988 2.7981C9.79512 2.22037 9.88008 2.07877 10.1973 1.79556C10.6107 1.42174 10.9619 1.29713 11.5283 1.31978C11.8625 1.33678 12.0494 1.37642 12.2363 1.47271ZM5.6207 6.12857C5.6377 7.03482 5.64902 7.11978 5.7623 7.28404C5.83027 7.38033 5.96055 7.49361 6.04551 7.5276C6.16445 7.57291 7.62578 7.5899 11.568 7.57857L16.9262 7.56158L17.0791 7.41998C17.351 7.17076 17.3906 6.98951 17.3906 6.02662V5.14303L18.852 5.16568L20.3076 5.18267L20.6305 5.34127C20.976 5.51119 21.1686 5.70377 21.3725 6.08326L21.4971 6.31549L21.5141 16.3692C21.5254 24.1743 21.5141 26.4795 21.4574 26.6778C21.3725 27.0006 21.0156 27.3631 20.6418 27.5047C20.3756 27.6067 20.0641 27.6124 11.6473 27.6294C2.16563 27.6463 2.55645 27.6577 2.04668 27.3348C1.78047 27.1649 1.62188 26.9553 1.53691 26.6495C1.48594 26.4795 1.47461 23.8741 1.48594 16.3692C1.50293 6.67799 1.50859 6.30982 1.61055 6.11724C1.88242 5.60181 2.24492 5.30728 2.72637 5.21666C2.8623 5.18834 3.56465 5.16568 4.28965 5.16002L5.59805 5.15435L5.6207 6.12857Z" fill="black"/>
<path d="M8.07316 9.7647C7.98254 9.81001 7.4048 10.3198 6.79875 10.8975C6.19269 11.4752 5.67726 11.951 5.66027 11.951C5.63762 11.951 5.42238 11.7415 5.17883 11.4809C4.62375 10.8975 4.51047 10.8182 4.20461 10.8182C3.78547 10.8182 3.51359 11.192 3.59855 11.6508C3.62687 11.8208 3.78547 12.0133 4.45949 12.693C4.91262 13.1518 5.35441 13.5596 5.4507 13.5993C5.78488 13.7352 5.93781 13.6333 7.45012 12.2002C8.82648 10.8975 9.06437 10.6313 9.06437 10.3934C9.06437 10.1952 8.86613 9.89497 8.66222 9.78736C8.43566 9.66841 8.30539 9.66275 8.07316 9.7647Z" fill="black"/>
<path d="M10.5031 11.4753C10.2766 11.5829 10.1406 11.8265 10.1406 12.121C10.1406 12.4439 10.4068 12.7158 10.7693 12.7724C10.9053 12.7894 12.8027 12.8007 14.9834 12.7894C19.2994 12.7724 19.1125 12.7837 19.3164 12.4439C19.526 12.1097 19.4354 11.7415 19.0955 11.515L18.9029 11.3847H14.7908C11.2451 11.3847 10.6561 11.4017 10.5031 11.4753Z" fill="black"/>
<path d="M8.44301 15.0687C8.3807 15.1027 7.83129 15.6125 7.21957 16.2016L6.10941 17.2664L5.58266 16.7283C5.03324 16.1676 4.80668 16.0373 4.51215 16.1053C4.16664 16.1789 3.92875 16.5924 4.01937 16.9605C4.05902 17.1135 5.54867 18.7107 5.76391 18.8354C5.92816 18.926 6.25668 18.926 6.40961 18.8354C6.65883 18.6937 9.36625 16.0656 9.43422 15.9014C9.53051 15.6691 9.42855 15.3406 9.20199 15.148C9.01508 14.9895 8.65258 14.9498 8.44301 15.0687Z" fill="black"/>
<path d="M10.5032 16.9921C10.0388 17.1791 10.0218 17.972 10.4806 18.2099C10.7298 18.3402 18.7841 18.3402 19.0559 18.2099C19.3958 18.0457 19.5261 17.6265 19.3448 17.2753C19.1636 16.9242 19.3335 16.9355 14.7739 16.9412C12.4913 16.9412 10.5655 16.9638 10.5032 16.9921Z" fill="black"/>
<path d="M8.07316 20.8151C7.98254 20.8547 7.4048 21.3645 6.79875 21.9422C6.19269 22.52 5.67726 22.9957 5.66027 22.9957C5.64328 22.9957 5.42805 22.7862 5.17883 22.5256C4.61242 21.9366 4.5048 21.8629 4.20461 21.8629C3.78547 21.8629 3.51359 22.2368 3.59855 22.6955C3.62687 22.8655 3.78547 23.058 4.45949 23.7377C4.91262 24.1965 5.35441 24.6043 5.4507 24.644C5.79055 24.7856 5.93781 24.678 7.45012 23.245C8.82648 21.9422 9.06437 21.676 9.06437 21.4381C9.06437 21.2399 8.86613 20.9397 8.66222 20.8321C8.43566 20.7131 8.30539 20.7075 8.07316 20.8151Z" fill="black"/>
<path d="M10.5599 22.4862C10.4976 22.5088 10.3729 22.6108 10.2936 22.7127C9.97646 23.0866 10.1634 23.653 10.6392 23.7889C10.9563 23.8739 18.7161 23.8625 18.9767 23.7719C19.0843 23.7323 19.2259 23.619 19.2995 23.5114C19.5261 23.1715 19.4468 22.7977 19.0956 22.5598L18.903 22.4295L14.7909 22.4352C12.5309 22.4352 10.6278 22.4578 10.5599 22.4862Z" fill="black"/>
</svg>
