<svg width="18" height="19" viewBox="0 0 18 19" fill="none" xmlns="http://www.w3.org/2000/svg">
<path d="M14.5696 1.75779e-05H14.5797C15.5256 1.75779e-05 16.3815 0.385538 16.9988 1.008L16.999 1.00823C17.6176 1.62925 18 2.48583 18 3.4318C18 4.38188 17.6142 5.24183 16.9907 5.86358L16.9906 5.86365L5.59551 17.2762L0 18.0089L0.732647 12.4133L12.1452 1.01737C12.7638 0.391852 13.621 0.00344717 14.569 0L14.5696 1.75779e-05ZM5.01278 16.0924L16.1099 4.97866C16.5058 4.58555 16.7511 4.04112 16.7517 3.4394V3.43927V3.43716C16.7517 2.83366 16.5085 2.28693 16.1147 1.88974L16.1149 1.88988C15.7224 1.49363 15.1782 1.24828 14.5767 1.24828C13.9731 1.24828 13.4273 1.49532 13.0347 1.89378L13.0302 1.89821L1.91652 12.9961L1.4495 16.5594L5.01278 16.0924ZM14.5538 7.41803L10.5909 3.4551L11.4734 2.57259L15.4363 6.53552L14.5538 7.41803ZM0 18.0097L0.797598 11.9188L1.48439 12.1011C2.57834 12.3974 3.51671 12.9571 4.2613 13.7091L4.26178 13.7096C5.03234 14.4586 5.60535 15.407 5.89767 16.4715L5.90769 16.5145L6.09171 17.2013L0 18.0097ZM1.8441 13.5439L1.44946 16.5577L4.46328 16.1573C4.19697 15.5515 3.83487 15.0353 3.39043 14.6032L3.38931 14.6021L3.37932 14.5921C2.95036 14.1583 2.44102 13.805 1.87531 13.5562L1.8441 13.5439ZM4.29679 14.5946L3.41428 13.7121L12.5723 4.55403L13.4548 5.43657L4.29679 14.5946Z" fill="black"/>
</svg>
