<svg width="15" height="14" viewBox="0 0 15 14" fill="none" xmlns="http://www.w3.org/2000/svg">
<path d="M12.1097 1.36644e-05H12.1176C12.8533 1.36644e-05 13.519 0.299701 13.9991 0.783575L13.9993 0.783753C14.4804 1.26651 14.7778 1.93238 14.7778 2.66774C14.7778 3.40629 14.4778 4.07478 13.9928 4.5581L13.9928 4.55816L5.1299 13.4298L0.777832 13.9993L1.34767 9.64957L10.2241 0.790863C10.7052 0.304609 11.372 0.00267968 12.1092 0L12.1097 1.36644e-05ZM4.67666 12.5095L13.3077 3.8702C13.6157 3.56461 13.8065 3.1414 13.807 2.67364V2.67355V2.67191C13.807 2.20277 13.6178 1.77777 13.3115 1.469L13.3116 1.46911C13.0064 1.16108 12.5831 0.97036 12.1152 0.97036C11.6458 0.97036 11.2213 1.1624 10.9159 1.47215L10.9125 1.47559L2.26846 10.1026L1.90522 12.8726L4.67666 12.5095ZM12.0975 5.76646L9.01517 2.68585L9.70157 1.99982L12.7838 5.08044L12.0975 5.76646ZM0.777832 14L1.39819 9.26516L1.93236 9.4069C2.78321 9.63724 3.51305 10.0723 4.09218 10.6569L4.09255 10.6573C4.69188 11.2395 5.13755 11.9768 5.36491 12.8043L5.37271 12.8376L5.51583 13.3716L0.777832 14ZM2.21213 10.5285L1.90519 12.8713L4.24927 12.56C4.04214 12.0891 3.76051 11.6878 3.41484 11.3519L3.41396 11.3511L3.40619 11.3433C3.07255 11.006 2.6764 10.7314 2.23641 10.538L2.21213 10.5285ZM4.11978 11.3452L3.43338 10.6592L10.5563 3.54011L11.2427 4.22616L4.11978 11.3452Z" fill="white"/>
</svg>
