<svg width="21" height="21" viewBox="0 0 21 21" fill="none" xmlns="http://www.w3.org/2000/svg">
<g clip-path="url(#clip0_977_359)">
<path d="M16.3897 15.9388C15.9796 15.6927 15.9878 15.1021 16.4061 14.8888C16.5579 14.8109 16.644 14.8068 17.7268 14.8068L18.8876 14.8068L15.0239 10.9431L11.1561 7.07532L8.89208 9.33938C7.64521 10.5822 6.5665 11.6281 6.49267 11.665C6.3245 11.747 6.13993 11.747 5.97587 11.665C5.7831 11.5624 0.122941 5.95559 0.0573155 5.79563C-0.160067 5.28294 0.356729 4.79485 0.873526 5.02044C0.947355 5.05325 2.02607 6.08684 3.34267 7.38294C4.63056 8.65442 5.8036 9.81516 5.95946 9.96282L6.23427 10.2335L8.50243 7.96946C9.74521 6.72669 10.8239 5.68079 10.8977 5.64387C11.0659 5.56184 11.2464 5.56184 11.4145 5.64387C11.4884 5.68079 13.3956 7.5593 15.6597 9.81516L19.7694 13.9249L19.7694 12.7642C19.7694 11.706 19.7776 11.5911 19.8474 11.4517C19.9376 11.2753 20.1919 11.1154 20.3806 11.1154C20.5897 11.1154 20.8235 11.2589 20.9179 11.4435C20.9958 11.5993 20.9999 11.6814 20.9999 13.5763C20.9999 15.4712 20.9958 15.5532 20.9179 15.7091C20.8645 15.8157 20.7784 15.9019 20.6718 15.9552C20.5159 16.0331 20.4339 16.0372 18.5308 16.0372L16.5497 16.0372L16.3897 15.9388Z" fill="#A69689"/>
</g>
<defs>
<clipPath id="clip0_977_359">
<rect width="21" height="21" fill="white" transform="matrix(1 -8.74228e-08 -8.74228e-08 -1 0 21)"/>
</clipPath>
</defs>
</svg>
