<svg width="21" height="21" viewBox="0 0 21 21" fill="none" xmlns="http://www.w3.org/2000/svg">
<path d="M16.3897 5.0612C15.9796 5.3073 15.9878 5.89792 16.4061 6.11121C16.5579 6.18913 16.644 6.19324 17.7268 6.19324H18.8876L15.0239 10.0569L11.1561 13.9247L8.89208 11.6606C7.64521 10.4178 6.56649 9.37195 6.49267 9.33503C6.3245 9.253 6.13993 9.253 5.97587 9.33503C5.7831 9.43757 0.12294 15.0444 0.0573155 15.2044C-0.160067 15.7171 0.35673 16.2051 0.873526 15.9796C0.947354 15.9468 2.02607 14.9132 3.34267 13.6171C4.63056 12.3456 5.8036 11.1848 5.95946 11.0372L6.23427 10.7665L8.50243 13.0305C9.74521 14.2733 10.8239 15.3192 10.8977 15.3561C11.0659 15.4382 11.2464 15.4382 11.4145 15.3561C11.4884 15.3192 13.3956 13.4407 15.6597 11.1848L19.7694 7.07507V8.23581C19.7694 9.29402 19.7776 9.40886 19.8474 9.54831C19.9376 9.72468 20.1919 9.88464 20.3806 9.88464C20.5897 9.88464 20.8235 9.74109 20.9179 9.55652C20.9958 9.40066 20.9999 9.31863 20.9999 7.42371C20.9999 5.52878 20.9958 5.44675 20.9179 5.29089C20.8645 5.18425 20.7784 5.09812 20.6718 5.0448C20.5159 4.96687 20.4339 4.96277 18.5308 4.96277H16.5497L16.3897 5.0612Z" fill="#A69689"/>
</svg>
