<svg width="26" height="29" viewBox="0 0 26 29" fill="none" xmlns="http://www.w3.org/2000/svg">
<path d="M0.533087 1.53591C0.182696 1.70969 -0.0356632 2.20301 0.015118 2.69633C0.055743 3.07753 0.228399 3.4307 0.522931 3.76145C0.802227 4.06978 1.38113 4.40053 3.69676 5.58337C4.83426 6.16078 5.17957 6.42986 5.39285 6.89515C5.52488 7.18666 5.58074 7.60711 6.31707 13.6783C7.1702 20.781 7.12449 20.4783 7.53074 20.9155C7.92176 21.3304 7.40379 21.3023 15.153 21.3023H22.1151L22.369 21.1678C22.6585 21.022 22.9378 20.7025 23.0647 20.3774C23.2221 19.9793 25.8932 11.1388 25.9542 10.8249C26.0964 10.0905 25.8882 9.46266 25.4159 9.19918L25.162 9.05343L16.6714 9.03661L8.18074 9.0254L8.15535 8.8404C8.14012 8.7451 8.07918 8.24618 8.02332 7.73604C7.83035 6.04306 7.78465 5.77958 7.64246 5.54413C7.27176 4.92188 5.95145 4.06978 2.64051 2.31513C1.03582 1.46864 0.82254 1.39015 0.533087 1.53591ZM23.2577 11.4472C23.2577 11.4584 23.1104 12.0077 22.9327 12.6692L22.6128 13.8745H15.6608H8.70887L8.59715 12.9215C8.53621 12.3946 8.47527 11.8508 8.46004 11.6994L8.42449 11.4359H15.8436C19.9214 11.4359 23.2577 11.4415 23.2577 11.4472ZM21.9882 16.1785C21.9882 16.201 21.8561 16.7055 21.3991 18.3985C21.3737 18.4938 21.0386 18.4994 15.3104 18.4994H9.24715L9.21668 18.3144C9.17605 18.0285 8.98816 16.3523 8.98816 16.2402C8.98816 16.1505 9.33348 16.1449 15.4882 16.1449C19.0632 16.1449 21.9882 16.1617 21.9882 16.1785Z" fill="black"/>
<path d="M9.98857 22.5355C9.25732 22.6701 8.56162 23.3708 8.34326 24.1781C8.2417 24.5537 8.2417 25.1759 8.34326 25.5459C8.65303 26.6783 9.7042 27.4015 10.7452 27.2053C11.1972 27.1156 11.5882 26.8969 11.9132 26.5381C12.3397 26.0673 12.5429 25.5235 12.5429 24.862C12.5429 23.7184 11.8065 22.7542 10.7706 22.5355C10.4659 22.4739 10.339 22.4739 9.98857 22.5355Z" fill="black"/>
<path d="M18.6519 22.5632C17.3164 22.8828 16.6156 24.5421 17.2351 25.9268C18.0273 27.6982 20.3176 27.6534 21.0894 25.8595C21.2418 25.5007 21.2519 25.4391 21.2519 24.8616C21.2519 24.2898 21.2418 24.217 21.0945 23.8806C20.8051 23.2079 20.2465 22.709 19.6117 22.5632C19.2004 22.4623 19.0633 22.4679 18.6519 22.5632Z" fill="black"/>
</svg>
