<svg width="176" height="176" viewBox="0 0 176 176" fill="none" xmlns="http://www.w3.org/2000/svg">
<path opacity="0.964" fill-rule="evenodd" clip-rule="evenodd" d="M85.422 21.1406C92.3004 20.5101 97.9723 22.8018 102.438 28.0156C122.432 60.9015 142.599 93.6722 162.938 126.328C166.72 133.881 166.032 140.985 160.875 147.641C157.563 151.115 153.496 153.005 148.672 153.312C108.339 153.542 68.0052 153.542 27.672 153.312C19.5833 152.443 14.2552 148.146 11.6876 140.422C10.6754 135.79 11.1337 131.322 13.0626 127.016C33.5446 93.9585 53.9403 60.8441 74.2501 27.6718C77.1974 24.1091 80.9213 21.932 85.422 21.1406ZM86.797 32.4843C89.5178 32.2118 91.7521 33.1285 93.5001 35.2343C113.208 67.3176 132.917 99.4011 152.625 131.484C155.239 136.628 153.807 140.122 148.328 141.969C108.339 142.198 68.349 142.198 28.3595 141.969C23.0009 140.59 21.3395 137.325 23.3751 132.172C43.3343 99.9501 63.1573 67.6376 82.8439 35.2343C83.9267 33.9244 85.2443 33.0077 86.797 32.4843Z" fill="black"/>
<path opacity="0.991" fill-rule="evenodd" clip-rule="evenodd" d="M85.7657 49.3282C89.1551 48.5891 91.6187 49.7348 93.1563 52.7657C93.3856 72.4739 93.3856 92.1825 93.1563 111.891C92.1914 114.292 90.4156 115.438 87.8282 115.328C85.2408 115.438 83.465 114.292 82.5001 111.891C82.2708 92.1825 82.2708 72.4739 82.5001 52.7657C83.1951 51.2119 84.2838 50.0662 85.7657 49.3282Z" fill="black"/>
<path opacity="0.937" fill-rule="evenodd" clip-rule="evenodd" d="M85.7657 120.828C92.3925 120.522 94.6268 123.501 92.4688 129.766C90.0814 132.024 87.3888 132.425 84.3907 130.969C82.1326 128.581 81.7314 125.889 83.1875 122.891C83.9142 121.99 84.7736 121.302 85.7657 120.828Z" fill="black"/>
</svg>
