<svg width="23" height="23" viewBox="0 0 23 23" fill="none" xmlns="http://www.w3.org/2000/svg">
<path d="M8.75145 2.24486e-05C13.5848 2.24486e-05 17.5029 3.91819 17.5029 8.75147C17.5029 13.5847 13.5848 17.503 8.75149 17.503C3.91815 17.503 0 13.5848 0 8.75151C0.00574999 3.92051 3.92049 0.00574999 8.75093 0H8.75149L8.75145 2.24486e-05ZM8.75145 15.4772C12.466 15.4772 15.4771 12.466 15.4771 8.75147C15.4771 5.03695 12.466 2.02584 8.75145 2.02584C5.03697 2.02584 2.02579 5.03702 2.02579 8.75154C2.0304 12.4641 5.03884 15.4726 8.75104 15.4772H8.75149L8.75145 15.4772ZM21.5647 23L13.3531 14.7854L14.7853 13.3531L23 21.5647L21.5647 23Z" fill="black"/>
</svg>
