<svg width="23" height="23" viewBox="0 0 23 23" fill="none" xmlns="http://www.w3.org/2000/svg">
<path d="M8.75145 2.15239e-05C13.5848 2.15239e-05 17.5029 3.7568 17.5029 8.39099C17.5029 13.0252 13.5848 16.782 8.75149 16.782C3.91815 16.782 0 13.0252 0 8.39103C0.00574999 3.75902 3.92049 0.00551315 8.75093 0H8.75149L8.75145 2.15239e-05ZM8.75145 14.8397C12.466 14.8397 15.4771 11.9525 15.4771 8.39099C15.4771 4.82947 12.466 1.94239 8.75145 1.94239C5.03697 1.94239 2.02579 4.82954 2.02579 8.39106C2.0304 11.9507 5.03884 14.8353 8.75104 14.8397H8.75149L8.75145 14.8397ZM21.5647 22.0526L13.3531 14.1763L14.7853 12.8031L23 20.6765L21.5647 22.0526Z" fill="black"/>
</svg>
