<svg width="90" height="112" viewBox="0 0 90 112" fill="none" xmlns="http://www.w3.org/2000/svg">
<path d="M12.5156 0.546867C8.00939 1.53124 4.31252 4.37499 2.36564 8.35624C0.550016 12.0312 0.703141 8.31249 0.703141 51.0781C0.703141 93.8656 0.550016 90.1031 2.38752 93.8437C3.98439 97.125 7.46252 100.122 10.9406 101.194L12.1875 101.587V103.819C12.1875 106.641 12.5813 107.953 13.8938 109.419C15.3813 111.059 16.7156 111.672 18.8594 111.672C20.3469 111.672 20.8063 111.584 21.8563 111.059C22.5344 110.731 23.4094 110.097 23.7813 109.681C24.1531 109.266 25.225 107.341 26.1875 105.416L27.9375 101.937H45H62.0625L63.8125 105.416C64.775 107.341 65.8469 109.266 66.2188 109.681C66.5906 110.097 67.4656 110.731 68.1438 111.059C69.1938 111.584 69.6531 111.672 71.1406 111.672C72.6063 111.672 73.0656 111.562 73.9844 111.081C75.3844 110.359 76.3688 109.353 77.1125 107.953C77.6156 106.991 77.7031 106.553 77.7688 104.212L77.8563 101.566L79.0813 101.194C82.5375 100.122 86.0156 97.125 87.6125 93.8437C89.45 90.1031 89.2969 93.8656 89.2969 51.0781C89.2969 8.29062 89.45 12.0531 87.6344 8.31249C86.3656 5.70937 83.7406 3.10624 81.0938 1.81562C77.6594 0.131242 79.6063 0.218742 44.8469 0.240617C19.975 0.240617 13.5656 0.306242 12.5156 0.546867ZM77.1125 3.82812C81.0063 4.74687 84.3094 7.80937 85.4688 11.55C85.9063 12.9281 85.9063 13.6719 85.9063 51.0781C85.9063 88.4844 85.9063 89.2281 85.4688 90.6062C84.3094 94.3469 81.0063 97.4094 77.1125 98.3281C75.0125 98.8094 14.9438 98.8094 12.8656 98.3281C9.01564 97.4094 5.66877 94.325 4.53127 90.6062C4.09377 89.2281 4.09377 88.4844 4.09377 51.0781C4.09377 13.6719 4.09377 12.9281 4.53127 11.55C5.66877 7.87499 9.01564 4.74687 12.7563 3.84999C14.725 3.36874 75.1 3.34687 77.1125 3.82812ZM24.2188 102.091C24.2188 102.2 23.5844 103.447 22.8406 104.891C21.7031 107.1 21.3531 107.581 20.6094 108.019C19.0563 108.916 17.1969 108.456 16.0375 106.881C15.6656 106.4 15.5563 105.897 15.5125 104.103L15.425 101.937H19.8219C22.25 101.937 24.2188 102.003 24.2188 102.091ZM74.4875 104.103C74.4438 105.897 74.3344 106.4 73.9625 106.881C72.8031 108.456 70.9438 108.916 69.3906 108.019C68.6469 107.581 68.2969 107.1 67.1594 104.891C66.4156 103.447 65.7813 102.2 65.7813 102.091C65.7813 102.003 67.75 101.937 70.1781 101.937H74.575L74.4875 104.103Z" fill="black"/>
<path d="M13.6532 8.83748C11.6407 9.55935 10.0657 11.1781 9.30004 13.3C8.95004 14.2625 8.92816 16.975 8.92816 51.0781C8.92816 85.1812 8.95004 87.8937 9.30004 88.8562C10.0875 91 11.8157 92.7281 13.9375 93.45C14.9657 93.8219 72.5625 93.975 74.8375 93.625C77.4625 93.2312 79.3 91.875 80.4813 89.4906L80.9844 88.4844V51.0781V13.6719L80.4813 12.6656C79.7375 11.1781 78.6657 10.0187 77.3532 9.29685L76.1719 8.6406L45.3282 8.59685C19.7782 8.5531 14.3313 8.59685 13.6532 8.83748ZM75.7782 12.1844C76.1938 12.3812 76.8063 12.9281 77.1125 13.4094L77.7032 14.3062L77.7688 27.825L77.8125 41.3437H68.1438C62.8282 41.3437 58.5625 41.2562 58.6938 41.1687C58.8032 41.0594 59.35 40.7969 59.9407 40.6C61.0344 40.1844 61.625 39.5719 61.625 38.8281C61.6032 38.5875 59.8969 33.7312 57.8188 28.0219C53.7719 16.9312 53.5313 16.4281 51.7813 15.5312C50.3813 14.8094 48.9375 14.9406 45.7219 16.0781C44.1907 16.625 42.7032 17.2375 42.4188 17.4125C41.9375 17.7406 41.8063 17.7187 40.625 17.1937C39.4438 16.6687 39.1594 16.625 36.0094 16.625C32.5969 16.6469 31.3938 16.8437 30.6063 17.5656C30.2782 17.8719 30.1907 17.85 29.7313 17.4781C28.8782 16.8 27.7844 16.625 24.3063 16.625C21.0907 16.625 20.9594 16.6469 19.8219 17.2375C18.3125 18.025 17.5032 19.1625 17.2188 20.8906C17.1094 21.6125 17 26.5125 17 31.7625V41.3437H14.5938H12.1875L12.2313 27.825L12.2969 14.3062L12.8657 13.4094C14.025 11.6812 11.3344 11.8125 44.9563 11.8125C72.4969 11.8125 75.0782 11.8344 75.7782 12.1844ZM50.7532 18.7469C51.0157 19.0531 57.4907 36.5094 57.7313 37.5812C57.775 37.7781 56.5282 38.325 54.0125 39.2656C50.2719 40.6219 50.2063 40.6437 50.0094 40.1625C49.025 37.8656 43.4688 22.05 43.4688 21.525C43.4688 20.5844 43.9063 20.2562 46.5532 19.2719C49.0907 18.3094 50.2282 18.1781 50.7532 18.7469ZM28.0469 20.4531L28.5938 20.9781V31.0625V41.125H24.5469H20.5V30.9531V20.8031L20.9813 20.3437C21.4188 19.95 21.7469 19.9062 24.4813 19.9062C27.4125 19.9062 27.5438 19.9281 28.0469 20.4531ZM39.4875 20.3437L39.9688 20.8031V30.9531V41.125H35.9219H31.875V31.0625V20.9781L32.4219 20.4531C32.925 19.9281 33.0563 19.9062 35.9875 19.9062C38.7219 19.9062 39.05 19.95 39.4875 20.3437ZM45.1969 36.5312C46.05 38.8719 46.75 40.9062 46.75 41.0594C46.75 41.2562 46.2907 41.3437 45.1094 41.3437H43.4688V36.7062C43.4688 34.1687 43.5125 32.1344 43.5563 32.1781C43.6 32.2219 44.3438 34.1906 45.1969 36.5312ZM77.8125 51.1875V57.75H45H12.1875V51.1875V44.625H45H77.8125V51.1875ZM77.7688 74.4406L77.7032 87.85L77.1125 88.7469C76.4563 89.7312 75.5594 90.2344 74.05 90.4312L73 90.5844V81.0031C73 75.7312 72.8907 70.8312 72.7813 70.1094C72.4969 68.3594 71.6875 67.2219 70.1782 66.4344C69.0407 65.8656 68.8438 65.8437 65.6938 65.8437C63.8782 65.8437 61.9969 65.9531 61.5157 66.0844C60.3563 66.4125 58.6938 68.075 58.3657 69.2344C58.2125 69.825 58.125 73.5437 58.125 80.325V90.5625L52.3938 90.5406L46.6407 90.5187L47.5157 90.1031C47.9969 89.8844 48.5 89.6875 48.6313 89.6875C49.1344 89.6875 49.8125 88.7687 49.8125 88.1125C49.8125 87.3906 42.8563 68.0094 42.0907 66.6094C41.8282 66.15 41.1938 65.45 40.6688 65.1C39.9032 64.5531 39.4657 64.4219 38.2625 64.3562C36.95 64.2906 36.5125 64.3781 34.0844 65.275C32.5969 65.8219 31.0657 66.4562 30.6719 66.6969C30.0157 67.0687 29.95 67.0687 29.4469 66.7187C28.4407 65.9969 27.4563 65.8437 24.1313 65.8437C21.0907 65.8437 20.7407 65.8875 19.6907 66.3687C18.3125 67.025 17.35 68.25 17.0219 69.8031C16.8688 70.4812 16.7813 74.55 16.7813 80.7406V90.5625L15.8625 90.4312C14.4188 90.2125 13.5219 89.7094 12.8875 88.7469L12.2969 87.85L12.2313 74.4406L12.1875 61.0312H45H77.8125L77.7688 74.4406ZM38.9407 67.8562C39.3782 68.2062 46.1813 86.8437 45.9407 87.0625C45.8532 87.15 44.1469 87.8281 42.1563 88.55C39.6844 89.4469 38.5032 89.775 38.4157 89.6C38.0219 88.9219 31.6563 71.0937 31.6563 70.7C31.6563 69.8906 32.4219 69.3656 34.8282 68.4906C37.3657 67.5719 38.35 67.4187 38.9407 67.8562ZM27.8282 69.6719L28.375 70.1969V80.2812V90.3437H24.2188H20.0625V80.6312C20.0625 74.3969 20.15 70.6781 20.2813 70.2844C20.6969 69.2125 21.0032 69.125 24.2625 69.125C27.1938 69.125 27.325 69.1469 27.8282 69.6719ZM69.0188 69.5625L69.5 70.0219V80.1719V90.3437H65.4532H61.4063V80.2812V70.1969L61.9532 69.6719C62.4563 69.1469 62.5875 69.125 65.5188 69.125C68.2532 69.125 68.5813 69.1687 69.0188 69.5625ZM35.025 90.0594C35.1782 90.5625 35.1563 90.5625 33.4282 90.5625H31.6563V85.6844L31.6782 80.8281L33.275 85.2031C34.15 87.6094 34.9375 89.7969 35.025 90.0594Z" fill="black"/>
</svg>
