<svg width="150" height="78" viewBox="0 0 150 78" fill="none" xmlns="http://www.w3.org/2000/svg">
<path d="M16.8164 1.32422C13.7109 2.08594 11.1328 4.25391 9.72655 7.33008C8.99413 8.88281 8.93553 9.26367 8.84764 14.5957L8.73046 20.2207L7.32421 20.6895C4.39452 21.6562 2.13866 23.707 0.791002 26.6074C0.146471 28.0137 0.146471 28.0723 0.0585804 46.6758C-0.0293103 67.3301 -0.0879041 66.5391 1.84569 67.7109C2.6953 68.2383 3.36913 68.2969 9.90233 68.2969H16.9922V71.168C16.9922 74.5078 17.4609 75.7676 19.0723 76.5586C19.9512 77.0273 21.0058 77.0859 27.7734 77.0859C34.3359 77.0859 35.6543 76.998 36.5039 76.6172C37.998 75.8848 38.4668 74.7715 38.6133 71.2852L38.7598 68.2969H74.8828H111.035V71.4023C111.035 73.8047 111.152 74.6836 111.533 75.3574C112.5 76.9688 113.145 77.0859 121.641 77.0859C128.379 77.0859 129.463 77.0273 130.371 76.5586C131.953 75.7969 132.422 74.5371 132.422 71.1387V68.2969H139.834C146.631 68.2969 147.275 68.2383 148.154 67.7109C150.088 66.5391 150.029 67.3301 149.941 46.6758C149.854 28.0723 149.854 28.0137 149.209 26.6074C147.861 23.707 145.605 21.6562 142.676 20.6895L141.27 20.2207L141.152 14.5957C141.064 9.26367 141.006 8.88281 140.273 7.33008C139.336 5.30859 137.725 3.49219 135.996 2.4668C133.535 1.00195 132.48 0.914062 117.422 0.914062C104.678 0.914062 103.33 0.972656 101.719 1.44141C99.9609 1.99805 97.8808 3.25781 96.8555 4.40039L96.2988 5.01562L95.0098 3.81445C94.2773 3.16992 92.959 2.26172 92.0508 1.85156L90.3808 1.06055H75H59.6191L57.9492 1.85156C57.041 2.26172 55.7226 3.16992 54.9902 3.81445L53.7012 5.01562L53.1445 4.40039C52.1191 3.25781 50.039 1.99805 48.2812 1.44141C46.6699 0.972656 45.3515 0.914062 32.4316 0.943359C22.2656 0.943359 17.9004 1.06055 16.8164 1.32422ZM48.5156 6.33398C49.4238 6.91992 50.2148 7.71094 50.6836 8.53125L51.416 9.84961L51.5039 19.2246C51.5918 28.3066 51.6211 28.6289 52.207 29.2441C53.2324 30.3574 54.8144 30.0938 55.5176 28.7168C55.8691 28.043 55.957 26.2266 55.957 18.9316C55.957 8.88281 55.957 8.79492 58.0078 6.94922C58.623 6.39258 59.6484 5.80664 60.2637 5.63086C61.7871 5.19141 88.2129 5.19141 89.7363 5.63086C90.3515 5.80664 91.3769 6.39258 91.9922 6.94922C94.043 8.79492 94.043 8.88281 94.043 18.9316C94.043 26.2266 94.1308 28.043 94.4824 28.7168C95.1855 30.0938 96.7676 30.3574 97.793 29.2441C98.3789 28.6289 98.4082 28.3066 98.4961 19.2246L98.584 9.84961L99.3164 8.53125C99.7851 7.71094 100.576 6.91992 101.484 6.33398L102.92 5.45508L117.305 5.36719L131.689 5.2793L133.301 6.09961C134.355 6.62695 135.205 7.35938 135.791 8.17969L136.67 9.46875L136.758 15.0059C136.846 19.6348 136.787 20.543 136.436 20.543C135.557 20.543 132.422 22.3887 131.426 23.4727C129.463 25.6699 128.818 27.3691 128.672 30.709L128.555 33.7266H115.254C106.816 33.7266 101.455 33.8438 100.488 34.0488C99.668 34.2246 98.4082 34.7812 97.6465 35.3086L96.2695 36.2754L95.0098 35.3086C94.3066 34.7812 93.1348 34.2246 92.2851 34.0488C90.3515 33.6387 60.2051 33.6094 57.9785 34.0195C57.0996 34.1953 55.8398 34.6934 55.1367 35.1914C54.4629 35.6895 53.8183 36.0703 53.7598 36.0703C53.7012 36.0703 53.0566 35.6895 52.3828 35.1914C50.6543 33.9902 48.5742 33.668 43.0078 33.7852C38.4961 33.873 38.3203 33.9023 37.7637 34.5762C37.0312 35.4551 37.0605 36.3926 37.8223 37.3594L38.4082 38.1211L43.3008 38.1504C48.6621 38.1504 49.8633 38.3848 50.7715 39.6445C51.6211 40.7578 51.7676 44.0684 51.0644 45.4453C49.9805 47.5547 50.4492 47.5254 31.9336 47.4375C13.6816 47.3496 14.5019 47.4375 13.5937 45.4746C13.2422 44.7422 13.1543 43.9219 13.2422 42.3105C13.418 39.8496 14.0039 38.9121 15.791 38.4141C16.3769 38.2676 20.0976 38.1211 24.082 38.1211H31.3183L31.9043 37.3594C32.666 36.3926 32.6953 35.4551 31.9629 34.5762C31.4062 33.9023 31.2598 33.873 26.4258 33.7852L21.4453 33.6973L21.3281 30.709C21.1816 27.3691 20.5371 25.6699 18.5742 23.4727C17.5781 22.3887 14.4433 20.543 13.5644 20.543C13.2129 20.543 13.1543 19.6348 13.2422 15.0059L13.3301 9.46875L14.209 8.17969C14.7949 7.35938 15.6445 6.62695 16.6992 6.09961L18.3105 5.2793L32.6953 5.36719L47.0801 5.45508L48.5156 6.33398ZM14.4726 25.7578C16.2305 26.9883 16.9922 28.6582 16.9922 31.3828V33.6387L15.2637 33.9902C12.334 34.5762 9.84374 36.8027 9.08202 39.5566C8.70116 40.9043 8.70116 44.6836 9.08202 46.0312C9.90233 48.9609 12.6269 51.3926 15.6152 51.7734L16.9922 51.9785V57.9258V63.9023H10.6933H4.39452V46.6758V29.4492L5.12694 27.9551C6.82616 24.5566 11.2793 23.502 14.4726 25.7578ZM143.027 25.6992C143.672 26.168 144.434 27.0762 144.873 27.9551L145.605 29.4492V46.6758V63.9023H139.307H133.008V57.9551V52.0078L134.766 51.6562C139.072 50.748 141.533 46.9688 141.123 41.7539C140.801 37.5352 138.516 34.8691 134.473 33.9902L133.008 33.668V31.4121C133.008 29.5957 133.154 28.8633 133.682 27.8379C135.41 24.6152 139.922 23.5605 143.027 25.6992ZM91.8164 38.5312C93.457 39.2051 94.043 40.377 94.043 42.8965C94.043 45.2988 93.5742 46.2363 91.9922 47.0566C90.7324 47.7012 59.2676 47.7012 58.0078 47.0566C56.4258 46.2363 55.957 45.2988 55.957 42.8965C55.957 40.4062 56.543 39.2344 58.125 38.5312C59.4726 37.9453 90.4101 37.9453 91.8164 38.5312ZM134.736 38.6484C136.143 39.4102 136.816 40.8164 136.816 42.9551C136.816 44.918 136.289 46.002 134.883 46.9395C134.062 47.4668 133.213 47.4961 117.832 47.4961C100.195 47.4961 100.254 47.4961 99.1699 45.8555C98.6133 44.9766 98.291 42.8965 98.5547 41.5195C98.789 40.377 99.9609 38.7949 100.898 38.4141C101.25 38.2676 108.779 38.1504 117.627 38.1504C132.715 38.1211 133.828 38.1504 134.736 38.6484ZM54.8437 50.2793C56.6894 51.832 57.3047 51.8906 75 51.8906C92.7832 51.8906 93.3105 51.8613 95.2441 50.2207C95.9765 49.5762 96.2402 49.5176 96.6504 49.7812C96.914 49.9863 97.793 50.4844 98.584 50.9238L100.049 51.7441L114.346 51.832L128.613 51.9199V57.8965V63.9023H75H21.3867V57.8965V51.8906H35.0976C49.9805 51.8906 50.918 51.8027 52.6465 50.2793C53.6719 49.3711 53.789 49.3711 54.8437 50.2793ZM33.9844 70.4941V72.6914H27.6855H21.3867V70.4941V68.2969H27.6855H33.9844V70.4941ZM128.027 70.4941V72.6914H121.729H115.43V70.4941V68.2969H121.729H128.027V70.4941Z" fill="black"/>
</svg>
