<svg width="112" height="98" viewBox="0 0 112 98" fill="none" xmlns="http://www.w3.org/2000/svg">
<path d="M49.2188 0.131248C40.5781 0.524994 34.4094 1.11562 27.5625 2.23125C22.9469 2.99687 22.3125 3.25937 22.3125 4.48437C22.3125 5.11874 23.1875 6.12499 23.7344 6.12499C23.9312 6.12499 25.4844 5.88437 27.1906 5.6C43.7062 2.75625 64.1156 2.5375 81.4844 5.05312C92.8375 6.67187 102.244 9.71249 106.422 13.0812C108.784 14.9625 109.244 16.6687 107.975 18.5937C103.097 25.9656 70.7 31.2812 42.6562 29.3125C25.5719 28.1094 11.1781 24.4781 5.57812 19.95C2.58125 17.5437 2.58125 15.4875 5.57812 13.0594C7.28437 11.6812 11.4187 9.69061 14.9844 8.50936C16.5594 8.00624 18.025 7.41562 18.2437 7.19687C18.7687 6.69375 18.7906 5.6 18.2656 5.03124C17.675 4.37499 16.7344 4.48437 13.3875 5.6C6.60625 7.85312 2.0125 10.85 0.590625 13.9562C0.13125 14.9187 0.109375 15.3125 0.109375 19.7969V24.6094L0.721875 25.8562C2.69062 29.8594 9.82187 33.5125 20.3875 35.9625C27.7812 37.6687 37.4062 38.9375 45.3906 39.2656C47.2062 39.3312 49.1969 39.4406 49.8094 39.5062L50.9469 39.6156L51.0125 55.0156L51.0781 70.4156L51.5594 70.8969C52.1937 71.5312 53.2437 71.5312 53.8781 70.8969L54.3594 70.4156L54.425 55.0156L54.4906 39.5937H56H57.5312V60.8562C57.5312 72.5594 57.4437 82.25 57.3563 82.3812C57.0719 82.8187 56.175 83.1687 55.6719 83.0375C54.6 82.775 54.4688 82.4031 54.4688 79.7781C54.4688 76.6937 54.25 75.8187 53.375 75.4687C52.85 75.25 52.5875 75.25 52.0625 75.4687C51.3187 75.775 50.9688 76.6937 50.9688 78.3344V79.3187L49.8312 79.6031C45.0625 80.8062 40.25 84.0656 38.7188 87.1062C36.8156 90.9344 39.0687 94.1281 45.0844 96.1187C54.2062 99.1375 67.7687 97.7156 72.2312 93.2969C73.5219 92.0062 74.0031 91 74.0031 89.5344C74.0031 85.8594 68.6656 81.2875 62.5187 79.6906L61.0312 79.3187V59.4781V39.6156L62.1906 39.5062C62.8031 39.4406 64.7062 39.3312 66.3906 39.2656C69.9562 39.1125 75.6 38.6312 79.1875 38.1719C83.4094 37.625 89.5563 36.5094 90.0594 36.1812C91.1094 35.525 90.8031 33.6437 89.6 33.3375C89.2937 33.2719 88.0031 33.4031 86.6906 33.6656C77.0437 35.4812 68.4906 36.1812 56.1094 36.2031C44.45 36.2031 36.6844 35.6344 27.7812 34.1031C14.1094 31.7844 4.79063 27.8687 3.5 23.9312C3.04062 22.5531 3.28125 22.4437 4.70312 23.4281C11.3969 28 25.3531 31.3031 43.6406 32.6375C45.6969 32.7687 51.2531 32.9 56 32.9C60.7469 32.9 66.325 32.7687 68.3594 32.6375C86.625 31.3031 100.581 28 107.297 23.4281C107.997 22.9469 108.631 22.5969 108.675 22.6406C108.916 22.8812 108.434 24.325 107.844 25.1125C106.356 27.1906 102.703 29.1812 97.0594 31.0406C94.8281 31.7844 94.2812 32.2219 94.2812 33.25C94.2812 33.9719 95.1125 34.7812 95.8344 34.7812C96.8187 34.7812 102.222 32.7906 104.737 31.5219C106.794 30.4719 109.069 28.7437 110.228 27.3437C111.803 25.4406 112 24.6312 112 19.6656C112 14.8969 111.759 13.9125 110.206 12.1406C105 6.23437 90.2562 2.03437 69.0156 0.437492C65.9313 0.196869 52.2812 -7.62939e-06 49.2188 0.131248ZM51.625 83.6719C52.4125 85.2687 54.2281 86.4062 56.0656 86.4062C57.3781 86.4062 59.15 85.4656 59.9594 84.3719C60.3094 83.8906 60.5938 83.3656 60.5938 83.1906C60.5938 82.6656 61.1406 82.6437 62.5844 83.125C66.0625 84.3062 69.6062 86.8 70.4594 88.6812C70.8969 89.6875 70.8312 89.9937 69.9344 90.9344C68.775 92.1812 65.9531 93.275 62.125 93.9969C59.2812 94.5219 52.7844 94.5219 49.875 93.9969C44.9094 93.1 41.3438 91.2625 41.3438 89.6C41.3438 87.6531 44.975 84.7 49.2188 83.2125C50.0062 82.9281 50.75 82.7094 50.9031 82.7094C51.0344 82.6875 51.3625 83.125 51.625 83.6719Z" fill="black"/>
</svg>
