<svg width="15" height="13" viewBox="0 0 15 13" fill="none" xmlns="http://www.w3.org/2000/svg">
<path d="M14.2291 2.24483C13.7068 2.47503 13.1477 2.6334 12.5584 2.70523C13.1597 2.34253 13.6194 1.76882 13.8386 1.08537C13.2746 1.41549 12.6507 1.65461 11.9873 1.78979C11.4584 1.22054 10.7022 0.862305 9.86311 0.862305C8.25456 0.862305 6.95085 2.17256 6.95085 3.78752C6.95085 4.01995 6.9788 4.24301 7.02717 4.45447C4.60746 4.34071 2.46242 3.17187 1.0278 1.40613C0.77576 1.83619 0.632432 2.33584 0.632432 2.87966C0.632432 3.89726 1.14761 4.78951 1.92638 5.31414C1.45025 5.30031 1.00207 5.16782 0.609358 4.94966V4.98491C0.609358 6.40402 1.61221 7.58713 2.94343 7.85659C2.7007 7.92127 2.44156 7.95875 2.17842 7.95875C1.99161 7.95875 1.81322 7.94046 1.63528 7.90744C2.0098 9.06914 3.08188 9.91499 4.35985 9.94041C3.36631 10.7234 2.10698 11.19 0.750023 11.19C0.518835 11.19 0.28809 11.1788 0.0564575 11.1507C1.35085 11.9805 2.87864 12.4659 4.52891 12.4659C9.88353 12.4659 12.8095 8.00693 12.8095 4.14531C12.8095 4.02218 12.8095 3.89682 12.8002 3.77101C13.3713 3.36192 13.8656 2.84353 14.2561 2.25599L14.2291 2.24483Z" fill="black"/>
</svg>
