<svg width="23" height="25" viewBox="0 0 23 25" fill="none" xmlns="http://www.w3.org/2000/svg">
<path d="M11.25 2.5C9.92392 2.5 8.65215 3.02678 7.71447 3.96447C6.77678 4.90215 6.25 6.17392 6.25 7.5C6.25 8.82608 6.77678 10.0979 7.71447 11.0355C8.65215 11.9732 9.92392 12.5 11.25 12.5C12.5761 12.5 13.8479 11.9732 14.7855 11.0355C15.7232 10.0979 16.25 8.82608 16.25 7.5C16.25 6.17392 15.7232 4.90215 14.7855 3.96447C13.8479 3.02678 12.5761 2.5 11.25 2.5ZM3.75 7.5C3.75 5.51088 4.54018 3.60322 5.9467 2.1967C7.35322 0.790176 9.26088 0 11.25 0C13.2391 0 15.1468 0.790176 16.5533 2.1967C17.9598 3.60322 18.75 5.51088 18.75 7.5C18.75 9.48912 17.9598 11.3968 16.5533 12.8033C15.1468 14.2098 13.2391 15 11.25 15C9.26088 15 7.35322 14.2098 5.9467 12.8033C4.54018 11.3968 3.75 9.48912 3.75 7.5ZM6.25 20C5.25544 20 4.30161 20.3951 3.59835 21.0983C2.89509 21.8016 2.5 22.7554 2.5 23.75C2.5 24.0815 2.3683 24.3995 2.13388 24.6339C1.89946 24.8683 1.58152 25 1.25 25C0.918479 25 0.600537 24.8683 0.366116 24.6339C0.131696 24.3995 0 24.0815 0 23.75C0 22.0924 0.65848 20.5027 1.83058 19.3306C3.00269 18.1585 4.5924 17.5 6.25 17.5H16.25C17.9076 17.5 19.4973 18.1585 20.6694 19.3306C21.8415 20.5027 22.5 22.0924 22.5 23.75C22.5 24.0815 22.3683 24.3995 22.1339 24.6339C21.8995 24.8683 21.5815 25 21.25 25C20.9185 25 20.6005 24.8683 20.3661 24.6339C20.1317 24.3995 20 24.0815 20 23.75C20 22.7554 19.6049 21.8016 18.9017 21.0983C18.1984 20.3951 17.2446 20 16.25 20H6.25Z" fill="#0D0D0D"/>
</svg>
