<?xml version="1.0" encoding="utf-8"?>
<!-- Generator: Adobe Illustrator 19.2.1, SVG Export Plug-In . SVG Version: 6.00 Build 0)  -->
<svg version="1.1" id="Layer_1" xmlns="http://www.w3.org/2000/svg" xmlns:xlink="http://www.w3.org/1999/xlink" x="0px" y="0px"
	 viewBox="0 0 445 430" enable-background="new 0 0 445 430" xml:space="preserve" height="430" width="450"> 
<g>
	<g class="fix-search">
		<g id="Search">
				<ellipse transform="matrix(0.639 -0.7692 0.7692 0.639 -47.9347 162.6655)" fill="#D1E2E7" cx="149.3" cy="132.4" rx="42.1" ry="42.1"/>
			<path fill="#1A4265" d="M169,141.1c-0.2,0.1-0.5,0-0.7-0.2L147,121.1l-8.2,25.1c-0.1,0.4-0.5,0.6-0.9,0.4c0,0,0,0,0,0l-12.8-4.3
				c-0.4-0.1-0.6-0.5-0.4-0.9c0.1-0.4,0.5-0.6,0.9-0.4l0,0l12.1,4.1l8.3-25.4c0.1-0.4,0.5-0.6,0.9-0.4c0.1,0,0.2,0.1,0.3,0.2
				l21.2,19.8l4.4-22.3c0.1-0.4,0.4-0.6,0.8-0.5c0.4,0.1,0.6,0.4,0.5,0.8l-4.6,23.5C169.4,140.8,169.2,141,169,141.1L169,141.1
				L169,141.1z"/>
			
				<ellipse transform="matrix(0.9614 -0.2751 0.2751 0.9614 -34.1293 39.9647)" fill="#047A9A" cx="125.4" cy="141.6" rx="2.7" ry="2.7"/>
			
				<ellipse transform="matrix(0.9614 -0.2751 0.2751 0.9614 -34.6612 43.488)" fill="#FFA619" cx="137.7" cy="145.3" rx="2.7" ry="2.7"/>
			
				<ellipse transform="matrix(0.9614 -0.2751 0.2751 0.9614 -27.3494 45.0094)" fill="#047A9A" cx="146.8" cy="120" rx="2.7" ry="2.7"/>
			
				<ellipse transform="matrix(0.9614 -0.2751 0.2751 0.9614 -32.1294 51.8574)" fill="#047A9A" cx="168.8" cy="140.5" rx="2.7" ry="2.7"/>
			
				<ellipse transform="matrix(0.9614 -0.2751 0.2751 0.9614 -25.4738 52.2275)" fill="#047A9A" cx="173.4" cy="116.9" rx="2.7" ry="2.7"/>
			
				<rect x="135.2" y="136.3" transform="matrix(0.3175 -0.9483 0.9483 0.3175 -35.0877 228.0987)" fill="#14324C" width="11.5" height="4.2"/>
			<path fill="#14324C" d="M150.7,109.2c-7.5-2.5-15.6,1.5-18.1,9c-2.5,7.5,1.5,15.6,9,18.1c7.5,2.5,15.6-1.5,18.1-9c0,0,0,0,0,0
				C162.2,119.8,158.2,111.7,150.7,109.2z M142.7,133.2c-5.8-1.9-8.9-8.2-7-13.9c1.9-5.8,8.2-8.9,13.9-7s8.9,8.2,7,13.9c0,0,0,0,0,0
				C154.7,132,148.4,135.1,142.7,133.2C142.7,133.2,142.7,133.2,142.7,133.2L142.7,133.2z"/>
			<path fill="#FFFFFF" d="M149.9,111.5c-6.2-2.1-13,1.3-15.1,7.5s1.3,13,7.5,15.1s13-1.3,15.1-7.5c0,0,0,0,0,0
				C159.6,120.3,156.2,113.6,149.9,111.5z M142.9,132.3c-5.3-1.8-8.1-7.5-6.3-12.8c1.8-5.3,7.5-8.1,12.8-6.3
				c5.3,1.8,8.1,7.5,6.3,12.8C153.9,131.2,148.3,134.1,142.9,132.3L142.9,132.3z"/>
			<path fill="#14324C" d="M144,139.3l-6-2c-0.7-0.2-1.5,0.2-1.8,0.9l-6.6,19.6c-0.2,0.7,0.2,1.5,0.9,1.8l6,2
				c0.7,0.2,1.5-0.2,1.8-0.9l6.6-19.6C145.1,140.3,144.7,139.5,144,139.3z"/>
			<path fill="#14324C" d="M144,139.3l-3-1l-7.4,22.3l3,1c0.7,0.2,1.5-0.2,1.8-0.9l6.6-19.6C145.1,140.3,144.7,139.5,144,139.3z"/>
		</g>
	</g>
	<g class="fix-network">
		<g id="Network">
			<path fill="#1A4265" d="M144.6,82.5c9.5,19.4,32.8,27.4,52.2,18s27.4-32.8,18-52.2c-9.5-19.4-32.8-27.4-52.2-18
				C143.2,39.7,135.1,63.1,144.6,82.5C144.6,82.5,144.6,82.5,144.6,82.5L144.6,82.5z"/>
			<path fill="#60A6B9" d="M163.3,87.8c0.6,0.8,1.8,1,2.7,0.3l11.4-8.9l-12.8-1.6L163.3,87.8z"/>
			<path fill="#FFFFFF" d="M178.6,75L178.6,75h-0.1H178.6z"/>
			<path fill="#FFFFFF" d="M170.3,69c0.2,0.5,0.5,0.9,0.8,1.4c1.4-0.9,4.7-1.2,8.6-0.7c3.5,0.4,6.4,1.4,7.8,2.4
				c0.4-0.4,0.7-0.8,1.1-1.2c-2.6-1.7-5.5-2.7-8.6-3C175.9,67.4,172.3,67.8,170.3,69z"/>
			<path fill="#60A6B9" d="M157.1,74.8l3.1-25.3c0.3-2.1,2.2-3.6,4.3-3.3l34.8,4.2c2.1,0.3,3.6,2.2,3.3,4.3l-3.1,25.3
				c-0.3,2.1-2.2,3.6-4.3,3.3L160.5,79C158.4,78.8,156.9,76.9,157.1,74.8z"/>
			<path fill="#FFFFFF" d="M181.2,53.6c-5.9-0.7-11.3,3.5-12,9.4c-0.7,5.9,3.5,11.3,9.4,12c5.9,0.7,11.3-3.5,12-9.4c0,0,0,0,0,0
				C191.4,59.7,187.2,54.3,181.2,53.6z M178.9,73.3c-5-0.6-8.5-5.1-7.9-10.1s5.1-8.5,10.1-7.9c5,0.6,8.5,5.1,7.9,10.1
				C188.3,70.4,183.8,73.9,178.9,73.3C178.9,73.3,178.9,73.3,178.9,73.3z"/>
			<path fill="#FFFFFF" d="M181.5,54c-2.5-0.3-5,4.1-5.7,9.8s0.7,10.6,3.2,10.9s5-4.1,5.7-9.8S184,54.3,181.5,54z M179.2,73
				c-1.5-0.2-2.2-4.2-1.6-9s2.2-8.5,3.7-8.3s2.2,4.2,1.6,9S180.7,73.2,179.2,73L179.2,73z"/>
			<path fill="#FFFFFF" d="M180.9,58.9c-3.8-0.5-7-1.6-8.1-2.8c-0.4,0.4-0.8,0.7-1.1,1.1c1.7,1.6,5,2.9,9,3.4
				c3.1,0.5,6.2,0.2,9.1-0.9c-0.2-0.5-0.5-1-0.8-1.4C187.5,59.1,184.4,59.3,180.9,58.9z"/>
			
				<rect x="179.2" y="53.6" transform="matrix(0.1207 -0.9927 0.9927 0.1207 94.8176 234.8759)" fill="#FFFFFF" width="1.7" height="20.7"/>
			
				<rect x="179.1" y="54" transform="matrix(0.1207 -0.9927 0.9927 0.1207 94.3548 235.2164)" fill="#FFFFFF" width="1.7" height="20.7"/>

		</g>
	</g>
	<g class="fix-mail">
		 <g id="Mail">
			<path fill="#FFFFFF" d="M226.5,147.2l-15.2-6l-0.5,0.6c-0.3,0.4-0.6,0.8-0.9,1.1l13,5.1l-24,6.9l8.5-11.6c-0.7-0.2-1.4-0.4-2-0.8
				l-10.1,13.6c-0.3,0.5-0.3,1.1,0.2,1.5c0.3,0.2,0.6,0.3,0.9,0.2l30-8.6l0,0c0.6-0.1,0.9-0.7,0.8-1.3
				C227.2,147.6,226.9,147.3,226.5,147.2z"/>
			
				<ellipse transform="matrix(0.9267 -0.3759 0.3759 0.9267 -37.7786 88.3763)" fill="#FFA619" cx="207.6" cy="141" rx="27.1" ry="27.1"/>
			<path fill="#FFFFFF" d="M227.5,148.9l-32,9.2l-6.5-22.8l32-9.2L227.5,148.9z M196.9,155.5l27.9-8l-5.4-18.7l-27.9,8L196.9,155.5z"
				/>
			<path fill="#FFFFFF" d="M209.1,145.3c-0.2,0.1-0.5,0.1-0.7-0.1l-18.6-8.3c-0.5-0.2-0.8-0.9-0.6-1.4c0.1-0.3,0.4-0.5,0.7-0.6
				l30-8.6c0.6-0.1,1.1,0.2,1.3,0.8c0.1,0.3,0,0.5-0.1,0.8l-11.4,16.9C209.6,145.1,209.4,145.3,209.1,145.3z M193.3,136.2l15.1,6.8
				l9.2-13.7L193.3,136.2z"/>
		</g>
	</g>
	<g class="fix-gear">
		<g id="Gear">
			
				<ellipse transform="matrix(0.7555 -0.6551 0.6551 0.7555 31.8531 170.6724)" fill="#7F426C" cx="244.6" cy="42.7" rx="35.1" ry="35.1"/>
			<path fill="#FFFFFF" d="M227.4,24.2l4.8,2l7.3-3.2l1.4-5.5l7.6,0.6l1.4,5l7,3.7l5.2-2.4l4.2,6.3l-3,4.3l1.4,7.8l5.1,2.5l-2.3,7.3
				l-5.2,0.3l-5.2,6l1.2,5.5l-7.1,2.8l-3.5-3.9l-7.9-0.2l-3.6,4.4l-6.6-3.8l0.9-5.2l-4.7-6.4h-5.7l-1-7.5l4.6-2.5l2.1-7.7l-3.5-4.5
				L227.4,24.2L227.4,24.2L227.4,24.2z M237.4,35.1c4.3-3.7,10.9-3.2,14.5,1.2c3.7,4.3,3.2,10.9-1.2,14.5c-4.3,3.7-10.8,3.2-14.5-1.1
				C232.5,45.4,233,38.8,237.4,35.1L237.4,35.1z"/>

		</g>
	</g>
	<g class="fix-computer">
		<g id="Computer">
			<path fill="#047A9A" d="M361.4,213c12-14.8,9.8-36.5-5-48.5s-36.5-9.8-48.5,5c-12,14.8-9.8,36.5,5,48.5
				C327.7,230,349.4,227.8,361.4,213C361.4,213,361.4,213,361.4,213L361.4,213z"/>
			<path fill="#14324C" d="M352,207.8l6.9-22.5c0.4-1.2-0.3-2.5-1.5-2.9l-35.6-11c-1.2-0.4-2.5,0.3-2.9,1.5c0,0,0,0,0,0l-6.9,22.5
				L352,207.8z"/>
			
				<rect x="325.5" y="170" transform="matrix(0.2942 -0.9557 0.9557 0.2942 56.4536 454.4337)" fill="#FFFFFF" width="20.9" height="37.9"/>
			<path fill="#14324C" d="M307.2,194.9l-0.5,1.6c-0.4,1.1,0.3,2.3,1.4,2.7c0,0,0,0,0,0l45.1,13.9c1.1,0.3,2.3-0.3,2.7-1.4
				c0,0,0,0,0,0l0.5-1.6L307.2,194.9z"/>
			
				<rect x="336.7" y="163.8" transform="matrix(0.2942 -0.9557 0.9557 0.2942 65.1899 451.3362)" fill="#FFA619" width="3" height="35.5"/>
			
				<rect x="321.5" y="188.1" transform="matrix(0.2942 -0.9557 0.9557 0.2942 43.3827 444.8138)" fill="#FFA619" width="2.6" height="9.9"/>
			
				<rect x="337" y="178.9" transform="matrix(0.2942 -0.9557 0.9557 0.2942 62.2122 452.0464)" fill="#96A4A5" width="0.4" height="9.9"/>
			
				<rect x="336.7" y="180.1" transform="matrix(0.2944 -0.9557 0.9557 0.2944 60.8736 452.5363)" fill="#96A4A5" width="0.4" height="9.9"/>
			
				<rect x="336.3" y="181.1" transform="matrix(0.2942 -0.9557 0.9557 0.2942 59.6689 452.9599)" fill="#96A4A5" width="0.4" height="9.9"/>
			
				<rect x="336" y="182.2" transform="matrix(0.2942 -0.9557 0.9557 0.2942 58.4069 453.3972)" fill="#96A4A5" width="0.4" height="9.9"/>
			
				<rect x="335.7" y="183.3" transform="matrix(0.2942 -0.9557 0.9557 0.2942 57.1191 453.8788)" fill="#96A4A5" width="0.4" height="9.9"/>
			
				<rect x="332.9" y="192.3" transform="matrix(0.2942 -0.9557 0.9557 0.2942 46.5186 457.6033)" fill="#96A4A5" width="0.4" height="9.9"/>
			
				<rect x="347.8" y="182.1" transform="matrix(0.2942 -0.9557 0.9557 0.2942 66.7254 464.7732)" fill="#96A4A5" width="0.4" height="10.1"/>
			
				<rect x="347.5" y="183.2" transform="matrix(0.2942 -0.9557 0.9557 0.2942 65.4589 465.1844)" fill="#96A4A5" width="0.4" height="10.1"/>
			
				<rect x="347.2" y="184.3" transform="matrix(0.2942 -0.9557 0.9557 0.2942 64.1736 465.6494)" fill="#96A4A5" width="0.4" height="10.1"/>
			
				<rect x="346.8" y="185.4" transform="matrix(0.2942 -0.9557 0.9557 0.2942 62.918 466.0813)" fill="#96A4A5" width="0.4" height="10.1"/>
			
				<rect x="324.1" y="183.4" transform="matrix(0.2942 -0.9557 0.9557 0.2942 48.8663 442.8983)" fill="#96A4A5" width="0.4" height="9.9"/>
			
				<rect x="323.8" y="184.5" transform="matrix(0.2944 -0.9557 0.9557 0.2944 47.5381 443.3543)" fill="#96A4A5" width="0.4" height="9.9"/>
			
				<rect x="323.4" y="185.6" transform="matrix(0.2942 -0.9557 0.9557 0.2942 46.3191 443.8007)" fill="#96A4A5" width="0.4" height="9.9"/>
			
				<rect x="325.1" y="180.2" transform="matrix(0.2944 -0.9557 0.9557 0.2944 52.6629 441.5612)" fill="#96A4A5" width="0.4" height="9.9"/>
			
				<rect x="324.8" y="181.2" transform="matrix(0.2944 -0.9557 0.9557 0.2944 51.3881 442.0071)" fill="#96A4A5" width="0.4" height="9.9"/>
			
				<rect x="324.5" y="182.3" transform="matrix(0.2944 -0.9557 0.9557 0.2944 50.1122 442.4648)" fill="#96A4A5" width="0.4" height="9.9"/>
			
				<rect x="325.5" y="179" transform="matrix(0.2942 -0.9557 0.9557 0.2942 54.0555 441.0989)" fill="#96A4A5" width="0.4" height="9.9"/>
			
				<rect x="326.5" y="175.7" transform="matrix(0.2942 -0.9557 0.9557 0.2942 57.9036 439.7233)" fill="#96A4A5" width="0.4" height="9.9"/>
			
				<rect x="326.2" y="176.8" transform="matrix(0.2942 -0.9557 0.9557 0.2942 56.643 440.1885)" fill="#96A4A5" width="0.4" height="9.9"/>
			
				<rect x="325.8" y="177.9" transform="matrix(0.2942 -0.9557 0.9557 0.2942 55.374 440.6163)" fill="#96A4A5" width="0.4" height="9.9"/>
			
				<rect x="327.2" y="173.2" transform="matrix(0.2942 -0.9557 0.9557 0.2942 60.8055 438.6991)" fill="#FFFFFF" width="0.4" height="9.9"/>
			
				<rect x="339.6" y="195.7" transform="matrix(0.2942 -0.9557 0.9557 0.2942 52.0317 466.3836)" fill="#FFA619" width="4.4" height="4.6"/>
			
				<rect x="345" y="197.4" transform="matrix(0.2944 -0.9557 0.9557 0.2944 54.2055 472.7024)" fill="#FFA619" width="4.4" height="4.5"/>
			
				<rect x="343.2" y="186.4" transform="matrix(0.2892 -0.9573 0.9573 0.2892 62.1976 466.6956)" fill="#96A4A5" width="4.4" height="10.2"/>
			
				<ellipse transform="matrix(0.2942 -0.9557 0.9557 0.2942 71.6309 469.6208)" fill="#FFFFFF" cx="353.8" cy="186.3" rx="0.8" ry="0.8"/>
			
				<ellipse transform="matrix(0.2942 -0.9557 0.9557 0.2942 38.7505 460.6868)" fill="#FFA619" cx="331.3" cy="204.1" rx="0.8" ry="0.8"/>
			<path fill="#60A6B9" d="M337,191.4l0.5-0.4l-0.6-0.7l-0.5,0.4c-0.3-0.3-0.7-0.5-1.1-0.6v-0.7l-0.9-0.1v0.7c-0.4,0-0.8,0.2-1.2,0.4
				l-0.4-0.5l-0.7,0.6l0.4,0.5c-0.3,0.3-0.5,0.7-0.5,1.1h-0.7l-0.1,0.9h0.7c0,0.4,0.2,0.8,0.4,1.2l-0.5,0.4l0.6,0.7l0.5-0.4
				c0.3,0.3,0.7,0.5,1.1,0.6v0.7l0.9,0.1v-0.7c0.4,0,0.8-0.2,1.2-0.4l0.4,0.5l0.7-0.6l-0.4-0.5c0.3-0.3,0.5-0.7,0.5-1.1h0.7l0.1-0.9
				h-0.7C337.4,192.1,337.2,191.7,337,191.4z M336.2,192.9c-0.1,0.9-0.8,1.5-1.7,1.5c-0.9-0.1-1.5-0.8-1.5-1.7
				c0.1-0.9,0.8-1.5,1.7-1.5c0,0,0,0,0,0C335.6,191.3,336.3,192.1,336.2,192.9L336.2,192.9z"/>

		</g>
	</g>
	<g class="fix-data">
		<g id="Data">
			
				<ellipse transform="matrix(0.8607 -0.509 0.509 0.8607 11.5387 174.0326)" fill="#D1E2E7" cx="323.8" cy="65.9" rx="55.7" ry="55.7"/>
			
				<rect x="296.1" y="68.2" transform="matrix(0.9995 -3.175965e-02 3.175965e-02 0.9995 -2.3943 9.6036)" fill="#FFA619" width="9.9" height="24"/>
			
				<rect x="311.3" y="58.7" transform="matrix(0.9995 -3.175965e-02 3.175965e-02 0.9995 -2.2284 10.083)" fill="#7F426C" width="9.9" height="32.9"/>
			
				<rect x="326.1" y="60.7" transform="matrix(0.9995 -3.175965e-02 3.175965e-02 0.9995 -2.2447 10.5529)" fill="#60A6B9" width="9.9" height="30.5"/>
			
				<rect x="341.7" y="44.4" transform="matrix(0.9995 -3.175965e-02 3.175965e-02 0.9995 -1.9711 11.0455)" fill="#1A4265" width="9.9" height="46.2"/>
			<path fill="#14324C" d="M291.6,90.6c0.9,0.8,1.7,1.6,2.6,2.3l62.1-2c0.9-0.8,1.7-1.6,2.5-2.5L291.6,90.6z"/>
			<path fill="#FFFFFF" d="M282,74.1c-0.8,0-1.5-0.6-1.6-1.4c0-0.6,0.3-1.1,0.7-1.3L310.1,54c0.3-0.2,0.7-0.2,1-0.2l18.7,2.8
				l21.8-26.1c0.5-0.6,1.5-0.7,2.1-0.2s0.7,1.5,0.2,2.1l0,0l-22.3,26.7c-0.3,0.4-0.9,0.6-1.4,0.5l-19-2.8l-28.4,17
				C282.5,74,282.3,74.1,282,74.1z"/>
			<path fill="#FFFFFF" d="M354.4,43.3c-0.8,0-1.4-0.5-1.5-1.3l-1.1-9l-10.5,1.8c-0.8,0.1-1.6-0.4-1.8-1.2s0.4-1.6,1.2-1.8l12-2.1
				c0.8-0.2,1.6,0.4,1.8,1.2c0,0,0,0,0,0.1l1.2,10.6c0.1,0.8-0.5,1.6-1.3,1.7L354.4,43.3z"/>
			<path fill="#FFCD4E" d="M332.9,57.6c0,1.7-1.3,3-2.9,3.1c-1.7,0-3-1.3-3.1-2.9c0-1.6,1.2-3,2.9-3.1
				C331.4,54.6,332.8,55.9,332.9,57.6C332.9,57.5,332.9,57.6,332.9,57.6z"/>
			
				<ellipse transform="matrix(0.9995 -3.175965e-02 3.175965e-02 0.9995 -1.665 10.5058)" fill="#FFFFFF" cx="329.9" cy="57.7" rx="1.8" ry="1.8"/>
			
				<ellipse transform="matrix(0.9995 -3.175965e-02 3.175965e-02 0.9995 -1.6103 9.9142)" fill="#FFCD4E" cx="311.3" cy="55.6" rx="3" ry="3"/>
			
				<ellipse transform="matrix(0.9995 -3.175965e-02 3.175965e-02 0.9995 -1.6099 9.9142)" fill="#FFFFFF" cx="311.3" cy="55.6" rx="1.8" ry="1.8"/>

			<animateTransform attributeName="transform" additive="sum" type="scale" from="0" to="1" begin="1.750s" dur="0.5s" repeatCount="0" />
			<animateTransform attributeName="transform" additive="sum" type="rotate" from="0 323.847 65.927" to="180 323.847 65.927" begin="1.750s" dur="0.5s" repeatCount="0" />
		</g>
	</g>
	<g class="fix-clipboard">
		<g id="Clipboard">
			
				<ellipse transform="matrix(0.9616 -0.2745 0.2745 0.9616 -28.5896 80.1167)" fill="#3D1533" cx="272" cy="142.2" rx="49" ry="49"/>
			<path fill="#FFA619" d="M289.9,175.3c-0.2,1-1.2,1.7-2.2,1.5l-42.3-7.4c-1-0.2-1.7-1.2-1.5-2.2l9.9-56.3c0.2-1,1.2-1.7,2.2-1.5
				l42.3,7.4c1,0.2,1.7,1.2,1.5,2.2L289.9,175.3z"/>
			<path fill="#FECF8E" d="M290.1,174.4c-0.2,1-1.2,1.7-2.2,1.5c0,0,0,0,0,0l-42.3-7.4c-1-0.2-1.7-1.2-1.5-2.2l9.9-56.3
				c0.2-1,1.2-1.7,2.2-1.5l42.3,7.4c1,0.2,1.7,1.2,1.5,2.2L290.1,174.4z"/>
			<polygon fill="#FFA619" points="287.1,170.9 250.5,163.3 259.5,114.3 294.1,120.3 		"/>
			
				<rect x="246.9" y="122.8" transform="matrix(0.1733 -0.9849 0.9849 0.1733 85.9835 385.1283)" fill="#FFFFFF" width="50.9" height="37"/>
			<path fill="#6D92A8" d="M280.4,113.5l1-5.8c0.4-1.6-0.6-3.2-2.2-3.6c-1.6-0.4-3.2,0.6-3.6,2.2c0,0.1-0.1,0.3-0.1,0.4l-1,5.8
				L280.4,113.5z M278.7,105.8c1,0.2,1.7,1.1,1.5,2.1s-1.1,1.7-2.1,1.5c-1-0.2-1.6-1.1-1.5-2.1C276.7,106.3,277.7,105.6,278.7,105.8
				L278.7,105.8z"/>
			<path fill="#C4E1F2" d="M289,120.4l0.1-0.9c0.6-3.3-1.6-6.4-4.9-6.9l-13-2.3c-3.3-0.6-6.4,1.6-6.9,4.9l-0.1,0.9L289,120.4z"/>
			<path fill="#97B7CB" d="M289.2,119.4l0.1-0.9c0.6-3.3-1.6-6.4-4.9-6.9l-13-2.3c-3.3-0.6-6.4,1.6-6.9,4.9l-0.1,0.9L289.2,119.4z"/>
			
				<ellipse transform="matrix(0.1733 -0.9849 0.9849 0.1733 90.8679 366.6441)" fill="#FFA619" cx="263.8" cy="129.2" rx="4.1" ry="4.1"/>
			<path fill="#FFFFFF" d="M263,131.8c-0.2,0-0.4-0.1-0.5-0.3l-1.4-1.7c-0.2-0.4-0.1-0.9,0.3-1.1c0.3-0.2,0.7-0.1,1,0.1l0.9,1.1
				l2.3-1.8c0.4-0.2,0.9-0.1,1.1,0.3c0.2,0.3,0.1,0.7-0.1,1l-3,2.3C263.4,131.8,263.2,131.9,263,131.8z"/>
			<path fill="#C4E1F2" d="M289.7,131.1c-0.1,0.3-0.3,0.5-0.6,0.4c0,0,0,0,0,0l-19.1-3.3c-0.3-0.1-0.5-0.3-0.5-0.6l0,0
				c0.1-0.3,0.3-0.5,0.6-0.4l19.1,3.4C289.6,130.6,289.8,130.9,289.7,131.1L289.7,131.1L289.7,131.1z"/>
			<path fill="#C4E1F2" d="M289.3,133.8c-0.1,0.3-0.3,0.5-0.6,0.5c0,0,0,0,0,0l-19.1-3.4c-0.3-0.1-0.5-0.3-0.5-0.6c0,0,0,0,0,0l0,0
				c0.1-0.3,0.3-0.5,0.6-0.4l19.1,3.4C289.1,133.2,289.3,133.5,289.3,133.8L289.3,133.8z"/>
			<path fill="#C4E1F2" d="M280,134.9c-0.1,0.3-0.3,0.5-0.6,0.5c0,0,0,0,0,0l-10.3-1.8c-0.3-0.1-0.5-0.3-0.5-0.6c0,0,0,0,0,0l0,0
				c0.1-0.3,0.3-0.5,0.6-0.5c0,0,0,0,0,0l10.3,1.8C279.8,134.3,280.1,134.6,280,134.9C280,134.9,280,134.9,280,134.9L280,134.9z"/>
			
				<ellipse transform="matrix(0.1733 -0.9849 0.9849 0.1733 77.7354 374.2411)" fill="#FFA619" cx="261.8" cy="140.8" rx="4.1" ry="4.1"/>
			<path fill="#FFFFFF" d="M261,143.4c-0.2,0-0.4-0.1-0.5-0.3l-1.4-1.7c-0.3-0.3-0.3-0.8,0-1.2c0.3-0.3,0.8-0.3,1.2,0
				c0.1,0.1,0.1,0.1,0.2,0.2l0.9,1.1l2.3-1.8c0.3-0.3,0.9-0.3,1.2,0c0.3,0.3,0.3,0.9,0,1.2c0,0-0.1,0.1-0.2,0.1l-3,2.3
				C261.4,143.4,261.2,143.5,261,143.4z"/>
			<path fill="#C4E1F2" d="M287.7,142.8c-0.1,0.3-0.3,0.5-0.6,0.5c0,0,0,0,0,0l-19-3.4c-0.3-0.1-0.5-0.3-0.5-0.6c0,0,0,0,0,0l0,0
				c0.1-0.3,0.3-0.5,0.6-0.4l19.1,3.4C287.6,142.2,287.8,142.5,287.7,142.8L287.7,142.8L287.7,142.8z"/>
			<path fill="#C4E1F2" d="M278.4,143.9c-0.1,0.3-0.3,0.5-0.6,0.4l-10.3-1.8c-0.3-0.1-0.5-0.3-0.5-0.6l0,0c0.1-0.3,0.3-0.5,0.6-0.5
				c0,0,0,0,0,0l10.3,1.8C278.3,143.3,278.5,143.6,278.4,143.9C278.5,143.9,278.5,143.9,278.4,143.9L278.4,143.9L278.4,143.9z"/>
			
				<ellipse transform="matrix(0.1733 -0.9849 0.9849 0.1733 64.6159 381.8304)" fill="#FFA619" cx="259.8" cy="152.4" rx="4.1" ry="4.1"/>
			<path fill="#FFFFFF" d="M259,155c-0.2,0-0.4-0.1-0.5-0.3l-1.4-1.7c-0.3-0.3-0.3-0.8,0-1.2c0.3-0.3,0.8-0.3,1.2,0
				c0.1,0.1,0.1,0.1,0.2,0.2l0.9,1.1l2.3-1.8c0.4-0.3,0.9-0.1,1.1,0.2c0.2,0.3,0.2,0.8-0.1,1.1l-3,2.3C259.4,155,259.2,155,259,155z"
				/>
			<path fill="#C4E1F2" d="M285.6,154.4c-0.1,0.3-0.3,0.5-0.6,0.5c0,0,0,0,0,0l-19.1-3.4c-0.3-0.1-0.5-0.3-0.5-0.6c0,0,0,0,0,0l0,0
				c0.1-0.3,0.3-0.5,0.6-0.4l19.1,3.4C285.5,153.8,285.7,154.1,285.6,154.4L285.6,154.4z"/>
			<path fill="#C4E1F2" d="M285.2,157c-0.1,0.3-0.3,0.5-0.6,0.4l-19.1-3.4c-0.3-0.1-0.5-0.3-0.5-0.6l0,0c0.1-0.3,0.3-0.5,0.6-0.5
				c0,0,0,0,0,0l19.1,3.4C285,156.4,285.2,156.7,285.2,157C285.2,157,285.2,157,285.2,157L285.2,157z"/>
		</g>
	</g>
	<g class="fix-tools">
		<g id="Tools">
			<path fill="#FFA619" d="M442.8,155.6c8-22.1-3.4-46.4-25.5-54.4s-46.4,3.4-54.4,25.5c-8,22.1,3.4,46.4,25.5,54.4
				C410.4,189.1,434.8,177.7,442.8,155.6C442.8,155.6,442.8,155.6,442.8,155.6L442.8,155.6z"/>
			<path fill="#FFFFFF" d="M410.6,152.2l-8.7-22.3c3.9-3.7,4-9.9,0.2-13.7c-1.7-1.8-4-2.8-6.5-2.9l3.5,8.9l-2.9,3.6l-4.5-0.7
				l-3.5-8.9c-3.8,3.8-3.7,9.9,0.1,13.7c1.8,1.7,4.1,2.7,6.6,2.8l8.7,22.3c-3,3.4-2.6,8.5,0.7,11.4c1.4,1.2,3.1,1.9,4.9,2l-2.9-7.5
				l2.4-3l3.8,0.6l2.9,7.5c3.1-3.2,3.1-8.3-0.1-11.5C414.1,153.2,412.4,152.4,410.6,152.2z"/>
			<path fill="#E7E7E8" d="M410.6,152.2l-8.7-22.3c3.9-3.7,4-9.9,0.2-13.7c-1.7-1.8-4-2.8-6.5-2.9l3.5,8.9l-2.9,3.6l12.5,32.2
				l3.8,0.6l2.9,7.5c3.1-3.2,3.1-8.3-0.1-11.5C414.1,153.2,412.4,152.4,410.6,152.2z"/>
			<path fill="#FFFFFF" d="M424.6,128.2L424.6,128.2L424.6,128.2l1.9-0.1l3.9-4.2l-1.5-2.1l-5.2,2.4l-0.5,1.7l-0.1,0.1l0,0L403.7,139
				l2.6,3.5L424.6,128.2L424.6,128.2L424.6,128.2z"/>
			<path fill="#E7E7E8" d="M424.6,128.2L424.6,128.2L424.6,128.2l1.9-0.1l3.9-4.2l-0.8-1.1L405,140.8l1.3,1.8L424.6,128.2
				L424.6,128.2L424.6,128.2z"/>
			<path fill="#007899" d="M405.1,146.5c-0.8-1.1-0.5-2.6,0.6-3.3c1.1-0.7,2.5-0.5,3.3,0.5l0.2-0.1c1-0.8,1.3-2.3,0.5-3.3
				c-1.1-1.5-1.6-2.2-2.7-3.7c-0.8-1.1-2.2-1.3-3.3-0.6l-0.2,0.1c0.7,1.1,0.3,2.6-0.8,3.3c-1,0.6-2.4,0.4-3.1-0.5l0,0L378,154
				c-1.1,0.9-1.3,2.4-0.4,3.5c1.2,1.7,1.8,2.5,3,4.1c0.8,1.2,2.3,1.5,3.5,0.7L405.1,146.5L405.1,146.5z"/>
			<path opacity="0.5" fill="#FECF8E" enable-background="new    " d="M402.9,139.4c-1,0.8-2.5,0.5-3.3-0.5l5.4,7.5
				c-0.8-1.1-0.5-2.6,0.6-3.3c1.1-0.8,2.6-0.5,3.3,0.6l0,0l-5.5-7.6C404.2,137.2,403.9,138.7,402.9,139.4z"/>
			<path opacity="0.5" fill="#FECF8E" enable-background="new    " d="M379.3,153l6,8.4l2.4-1.8l-6-8.3L379.3,153z"/>
		</g>
	</g>
	<g class="fix-news">
		<g id="Newspaper">
				<ellipse transform="matrix(9.999500e-03 -0.9999 0.9999 9.999500e-03 223.6777 475.4405)" fill="#1A4265" cx="351.9" cy="124.8" rx="25.8" ry="25.8"/>
			<path fill="#007899" d="M366.2,123.1l-3.4-1.3l-1.3,3.4l-4.5-1.7l-5.7,14.9l6.6,2.5c1.4,0.5,3.1-0.7,3.9-2.8l2.7-7.1l1.5-4
				l0.6-1.5C367.1,124.5,366.8,123.4,366.2,123.1z"/>
			<path fill="#007899" d="M358.2,136.6l1.4-3.6l2.9-7.5l-5.4-2l-5.7,14.8l6.6,2.5c0.2,0.1,0.4,0.1,0.6,0.1
				C357.7,140.2,357.5,138.5,358.2,136.6z"/>
			<path fill="#F5F5F5" d="M357,121.8l-2.9,7.6l7.2,2.8l2.9-7.6c0.4-1,1.3-1.6,2-1.4l-7.2-2.8C358.2,120.1,357.4,120.8,357,121.8z"/>
			<path fill="#1A4265" d="M357,121.8l-2.9,7.6l6,2.3l3.6-9.5l-4.7-1.8C358.2,120.1,357.4,120.8,357,121.8z"/>
			<path fill="#F5F5F5" d="M357,136.2l1.4-3.6l6.8-17.8l-21.3-8.2l-8.2,21.5c-0.8,2.1-0.3,4.2,1.1,4.7l21.2,8.1
				C356.7,140.4,356.2,138.3,357,136.2z"/>
			
				<rect x="351.2" y="110.1" transform="matrix(0.3567 -0.9342 0.9342 0.3567 114.9198 405.0133)" fill="#007899" width="0.6" height="17.8"/>
			
				<rect x="350.8" y="111.5" transform="matrix(0.3569 -0.9341 0.9341 0.3569 113.307 405.4209)" fill="#007899" width="0.6" height="17.8"/>
			
				<rect x="347.2" y="114.9" transform="matrix(0.3569 -0.9341 0.9341 0.3569 110.886 402.1788)" fill="#007899" width="0.6" height="11.3"/>
			
				<rect x="350.5" y="105.7" transform="matrix(0.3567 -0.9342 0.9342 0.3567 120.1344 403.7552)" fill="#60A6B9" width="5.6" height="17.8"/>
			
				<rect x="342.4" y="124.4" transform="matrix(0.3569 -0.9341 0.9341 0.3569 100.6224 402.5587)" fill="#007899" width="0.6" height="7.6"/>
			
				<rect x="341.8" y="125.7" transform="matrix(0.3569 -0.9341 0.9341 0.3569 99.0727 402.9168)" fill="#007899" width="0.6" height="7.6"/>
			
				<rect x="339.2" y="128.4" transform="matrix(0.3569 -0.9341 0.9341 0.3569 96.9247 400.8103)" fill="#007899" width="0.6" height="3.2"/>
			
				<rect x="342.3" y="121.1" transform="matrix(0.3567 -0.9342 0.9342 0.3567 104.5408 401.5912)" fill="#1A4265" width="3.1" height="7.6"/>
			
				<rect x="351.9" y="128" transform="matrix(0.3569 -0.9341 0.9341 0.3569 103.3549 413.8013)" fill="#007899" width="0.6" height="7.6"/>
			
				<rect x="351.3" y="129.3" transform="matrix(0.3567 -0.9342 0.9342 0.3567 101.8605 414.145)" fill="#007899" width="0.6" height="7.6"/>
			
				<rect x="348.8" y="132" transform="matrix(0.3567 -0.9342 0.9342 0.3567 99.7146 412.0835)" fill="#007899" width="0.6" height="3.2"/>
			
				<rect x="351.9" y="124.7" transform="matrix(0.3569 -0.9341 0.9341 0.3569 107.2106 412.8547)" fill="#1A4265" width="3.1" height="7.6"/>
			<animateTransform attributeName="transform" additive="sum" type="scale" from="0" to="1" begin="2.086s" dur="0.75s" repeatCount="0" />
			<animateTransform attributeName="transform" type="rotate" from="0 351.948 124.757" to="180 351.948 124.757" begin="2.086s" dur="0.75s" repeatCount="0" />
		</g>
	</g>
	<g class="fix-beakercopy">
		<g id="BearkerCopy" >		
			<ellipse fill="#3D1533" cx="410.2" cy="46.8" rx="35.1" ry="35.1"/>
			<path fill="#FFFFFF" d="M414.3,24.2l1.8,15.3l14-1.7l1.5,12.8l-14,1.7l1.8,15.5l-13.4,1.6l-1.8-15.5l-14,1.7l-1.6-12.8l14-1.7
				L401,25.8L414.3,24.2z"/>
		</g>
	</g>

	<g id="Dot1">
		
			<ellipse transform="matrix(0.8979 -0.4403 0.4403 0.8979 -62.9775 120.0323)" fill="#B7D1D9" cx="227.2" cy="195.8" rx="4.4" ry="4.4"/>
	</g>
	<g id="Dot2">
		
			<ellipse transform="matrix(0.8979 -0.4403 0.4403 0.8979 -49.2792 189.0403)" fill="#B7D1D9" cx="382.8" cy="200.7" rx="4.4" ry="4.4"/>
	</g>
	<g id="Dot3">
		
			<ellipse transform="matrix(0.8979 -0.4403 0.4403 0.8979 -22.8756 61.7104)" fill="#B7D1D9" cx="121.6" cy="80.2" rx="4.4" ry="4.4"/>
	</g>
	<g id="Dot4">
		
			<ellipse transform="matrix(0.8979 -0.4403 0.4403 0.8979 31.0547 167.5191)" fill="#B7D1D9" cx="376.6" cy="16.8" rx="4.4" ry="4.4"/>
	</g>
	<g id="Dot5">
		
			<ellipse transform="matrix(0.8979 -0.4403 0.4403 0.8979 -22.594 106.7941)" fill="#B7D1D9" cx="218.9" cy="102.1" rx="4.4" ry="4.4"/>
	</g>
	<g id="Man">
		
		<rect x="121.6" y="308.8" fill="#B2B3B7" width="62.8" height="11.5"/>
		<path fill="#E7E7E8" d="M225.9,499.3l11.5-166.5c0-10.1-8.2-18.2-18.2-18.2l0,0H88c-10.1,0-18.2,8.2-18.2,18.2l0,0l7.1,166.5
			L225.9,499.3L225.9,499.3z"/>
		<path fill="#FFFFFF" d="M117.2,314.6v5.4c0,7.4,10.7,13.4,23.9,27h20.6c13.2-13.6,23.9-19.6,23.9-27v-5.4H117.2z"/>
		<path fill="#754C24" d="M182.6,316.4c0,6.3-9.1,11.4-20.3,11.4h-17.5c-11.2,0-20.3-5.1-20.3-11.4v-21.9c0-6.3,9.1-11.4,20.3-11.4
			h17.5c11.2,0,20.3,5.1,20.3,11.4V316.4z"/>
		<path fill="#3E3E3E" d="M162.3,283.1h-17.5c-11.2,0-20.3,5.1-20.3,11.4v10.1c10.8,5.1,24.2,8.9,34.3,8.9c8.3,0,16.4-2.1,23.7-6
			v-13C182.6,288.2,173.5,283.1,162.3,283.1z"/>
		<path fill="#754C24" d="M99.1,197.9l10.8,87.3c1.2,10,35.8,20.8,55.7,18.4c21.7-2.7,37.6-19.7,36.4-29.7l-10.8-87.3L99.1,197.9z"
			/>
		
			<ellipse transform="matrix(0.9291 -0.3697 0.3697 0.9291 -65.5926 85.1377)" fill="#B7D1D9" cx="189.3" cy="213.7" rx="6.8" ry="6.8"/>
		<path fill="#5E5E5E" d="M189.1,241c0.3,2.4,3.7,7.6,6.6,8.2c3.9,0.7,3.6-0.4,3.2-3.5l-2.5-55.6c-0.7-5.4-5.6-9.2-11-8.6
			c0,0,0,0,0,0l0,0c-5.4,0.7-21.3-3.3-20.6,2.1c0,0,8.7,4.3,14.9,18.2S189.1,241,189.1,241z"/>
		<path fill="#603B1D" d="M183,248.9c0.5,3.8,9.1,7.6,12.9,7.1l0,0c3.8-0.4,6.5-3.9,6-7.6c0,0,0,0,0,0l0.2-16.8
			c0-5.2-4.3-9.5-9.5-9.5c-0.3,0-0.6,0-0.9,0l0,0c-3.8,0.5-11.1,7.1-10.6,10.9L183,248.9z"/>
		<path fill="#E2CAAA" d="M189.8,239.7c-0.3-2.2-2-4-4.2-4.5c0.6-2.1,3.9-4.9,5.7-5.1c2.8-0.3,5.3,1.8,5.6,4.6c0,0.2,0,0.3,0,0.5
			l-0.1,9.1c0.2,2-1.2,3.9-3.2,4.1c-1.8,0.2-5.9-1.5-6.8-3.3C188.8,244.1,190.1,241.9,189.8,239.7z"/>
		<path fill="#754C24" d="M154.7,174.4c2.9,14.9,7.4,33.8,9.4,50.2c2.8,23,1.7,58.7,2.1,78.9c21.4-2.9,37.1-19.8,35.9-29.7
			l-10.8-87.3L154.7,174.4z"/>
		<path fill="#603B1D" d="M193.2,202.2l-1.9-15.7l-90.8,11.2l0.1,1.8c0.2,4.9,2.2,10.1,6.4,11.5c9.1,3.1,16.2-5.3,36.3-2.4
			c14.4,2.1,28,3.7,39.5,0.7C186.9,208.3,190.6,205.8,193.2,202.2z"/>
		<path fill="#5E5E5E" d="M116.7,249.9c0.3,2.4-1.7,8.3-4.5,9.6c-3.6,1.7-8.2-2-8.6-5l-6.4-52.1c-0.7-5.4,3.1-10.3,8.5-11
			c0,0,0,0,0,0l0,0c5.4-0.7,19.9-8.4,20.5-3c0,0-7.4,6.3-10.1,21.3S116.7,249.9,116.7,249.9z"/>
		<path fill="#6E6E6E" d="M197.5,162c-7.1,0.5,0.2,7.4-22.9,10.3c-6.7,0.8-17.6-0.9-28.6-2.4c-36.5-5.2-43.6,10.3-44.5,14.5
			c-0.6,2.4-0.7,4.9-0.3,7.4c0.5,3.3,1.9,12.6,10.4,16.1c8.9,3.7,13.9-6.3,34.2-5.3c14.5,0.7,28.2,1.2,39.4-2.9
			C205.4,192.5,204.7,161.6,197.5,162z"/>
		
			<ellipse transform="matrix(0.9924 -0.1227 0.1227 0.9924 -26.5248 24.0893)" fill="#3A2200" cx="182.3" cy="227.3" rx="4.1" ry="4.1"/>
		<path fill="#242424" d="M185.6,214.8l-10.8,1.3c-1.1,0.1-1.8,1.1-1.7,2.2s1.1,1.8,2.2,1.7c0,0,0,0,0.1,0l10.8-1.3
			c1.1-0.1,1.8-1.1,1.7-2.2C187.6,215.5,186.7,214.7,185.6,214.8z"/>
		
			<ellipse transform="matrix(0.9924 -0.1227 0.1227 0.9924 -27.4848 19.229)" fill="#3A2200" cx="142.3" cy="232.7" rx="4.1" ry="4.1"/>
		
			<ellipse transform="matrix(0.9924 -0.1227 0.1227 0.9924 -27.2217 19.3849)" fill="#FFFFFF" cx="143.7" cy="230.6" rx="1.3" ry="1.3"/>
		
			<ellipse transform="matrix(0.9925 -0.1226 0.1226 0.9925 -26.2666 24.2026)" fill="#FFFFFF" cx="183.6" cy="225.6" rx="1.3" ry="1.3"/>
		<path fill="#242424" d="M145.7,220.2l-10.8,1.3c-1.1,0.1-1.8,1.1-1.7,2.2s1.1,1.8,2.2,1.7c0,0,0,0,0.1,0l10.8-1.3
			c1.1-0.1,1.8-1.1,1.7-2.2S146.8,220.1,145.7,220.2C145.7,220.2,145.7,220.2,145.7,220.2z"/>
		<path fill="#5E5E5E" d="M165.6,303.5c21.7-2.7,37.6-19.7,36.4-29.7l-1.7-13.6l-8.7,6.6c0,0-7.6-8.9-24.1-8.9s-27.9,15.5-27.9,15.5
			l-20.1-1.1l-4.6-14.4l-8.1,1.9l3.1,25.3C111.1,295.1,145.7,306,165.6,303.5z"/>
		
			<ellipse transform="matrix(0.9925 -0.1226 0.1226 0.9925 -30.2942 22.2838)" fill="#603B1D" cx="166" cy="257.4" rx="7.4" ry="4.1"/>
		<path fill="#754C24" d="M161.8,215.8c1.7,6.5,3.8,13,6.2,19.3c3.2,8.2,8,15.8,6,20c-1.8,3.7-16.6,3.5-16.6,3.5L161.8,215.8z"/>
		<path fill="#603B1D" d="M168,235.1c-2.1-5.3-3.9-10.8-5.4-16.3c0.6,5.2,1.7,12,3.7,17c3.2,8.2,7,15.7,5,19.9
			c-0.5,1-1.9,1.7-3.8,2.2c3.1-0.5,5.8-1.3,6.5-2.8C176,250.9,171.2,243.3,168,235.1z"/>
		<path fill="#59361D" d="M169,282.3c7.7-1,14-4.7,16.7-9.4c-0.5-1.2-1.4-2.2-2.5-2.9c-9.9,3.6-20.5,4.9-31,3.8
			c-0.9,0.9-1.5,2.1-1.7,3.4C154.3,281.1,161.4,283.2,169,282.3z"/>
		<path fill="#3A2200" d="M168.8,280.9c8.3-1,15.1-4.9,18.1-9.6c-0.5-1.2-1.5-2.3-2.6-2.9c-10.7,3.7-22.1,5.1-33.4,4.1
			c-1,0.9-1.6,2.1-1.9,3.5C153,279.8,160.5,281.9,168.8,280.9z"/>
		<path fill="#F9ECDC" d="M168.1,275.5c6.4-0.8,12.6-2.2,18.7-4.3c-0.5-1.2-1.5-2.2-2.6-2.9c-10.7,3.7-22.1,5.1-33.4,4.1
			c-1,0.9-1.6,2.1-1.8,3.4C155.3,276.5,161.8,276.4,168.1,275.5z"/>
		<path fill="#754C24" d="M119.4,256.7c0.5,3.8-7,9.6-10.8,10.1l0,0c-3.8,0.5-7.2-2.2-7.6-6c0,0,0,0,0,0l-4.3-16.2
			c-1.3-5.1,1.8-10.2,6.9-11.5c0.3-0.1,0.6-0.1,0.9-0.2l0,0c3.8-0.5,12.5,4.2,13,8L119.4,256.7z"/>
		<path fill="#603B1D" d="M110.6,249.4c-0.3-2.2,0.9-4.4,2.9-5.4c-1.1-1.9-4.9-3.8-6.7-3.6c-2.8,0.4-4.7,3-4.3,5.8
			c0,0.2,0.1,0.3,0.1,0.5l2.3,8.8c0.3,2,2.1,3.5,4.1,3.2c1.8-0.2,5.3-2.9,5.8-4.9C112.6,253.5,110.9,251.7,110.6,249.4z"/>
		<path fill="#60A6B9" d="M152.5,346.3c0,0-14.2,11.7-14.2,23.1c0,11.7,5.2,22.7,14.2,30.1c9-7.4,14.2-18.5,14.2-30.1
			C166.7,358,152.5,346.3,152.5,346.3z"/>
		<path fill="#80B8C7" d="M152.5,346.3v53.2c-9-7.4-14.2-18.5-14.2-30.1C138.3,358,152.5,346.3,152.5,346.3z"/>
		<path fill="#80B8C7" d="M139.4,341.6c0-7.5,6.1-9.9,13.6-9.9s13.6,2.4,13.6,9.9c0,4-4.5,12.2-4.5,12.2s-5.6,2.5-9.2,2.5
			c-3.7,0-9.5-2.8-9.5-2.8S139.4,345.5,139.4,341.6z"/>
		<path fill="#60A6B9" d="M153,331.7c-1.1,0-2.2,0.1-3.2,0.2c6.8,4.2,9,13.1,4.8,20c-1,1.6-2.3,3.1-3.9,4.2c0.8,0.2,1.6,0.3,2.4,0.3
			c3.5,0,9.2-2.5,9.2-2.5s4.5-8.2,4.5-12.2C166.6,334.1,160.5,331.7,153,331.7z"/>
		<path d="M219.2,314.6h-31.2c0.7,2.8,3.2,5.7,3.3,8.6c0.9,20.4-18.1,37.8-37.9,37.8c-21.2,0-36.9-17.4-37.9-37.9
			c-0.1-3,2.2-5.8,2.8-8.6H88c-10.1,0-18.2,8.2-18.2,18.2l0,0l7.1,166.5h149l11.5-166.5C237.4,322.7,229.3,314.6,219.2,314.6z"/>
		<path fill="#191919" d="M58.8,499.3c0,0-10.9-21.9-10.9-39.8c0-27.8,13.7-58.9,24.8-74.2c7-9.9,15.2-18.9,24.2-27
			c10.1-8.3,11.6-23.2,3.3-33.3c-5.2-6.3-7-10.2-14.6-10c-6.8,0.3-13.3,2.6-18.8,6.7c-2.7,2.2-65.1,62-66.3,137.8
			c-0.1,4.8,9,39.8,9,39.8L58.8,499.3L58.8,499.3z"/>
		<path fill="#191919" d="M210.1,358c9.1,8.1,17.2,17.1,24.2,27c11,15.3,15.9,39.4,16.3,67.2c0.1,4-2.8,47.2-2.8,47.2h47.9
			c0,0,2.4-43.1,2.3-48c-1.3-75.7-55.2-127.8-57.9-130c-5.4-4.1-12-6.4-18.8-6.7c-7.6-0.3-9.4,3.6-14.6,10
			C198.5,334.8,200,349.7,210.1,358z"/>
		<path opacity="0.2" fill="#B2B3B7" enable-background="new    " d="M157.5,332.5l10.8,21.5c0,0,23.6-16.6,23.6-26.5
			c-0.1-6-2.6-11.7-7.1-15.7C184.7,311.8,180.2,324.7,157.5,332.5z"/>
		<path opacity="0.2" fill="#B2B3B7" enable-background="new    " d="M148.8,332.5L138.1,354c0,0-23.6-16.6-23.6-26.5
			c0.1-6,2.6-11.7,7.1-15.7C121.6,311.8,126.1,324.7,148.8,332.5z"/>
		<path fill="#FFFFFF" d="M157.5,329.5l10.8,21.5c0,0,23.6-16.6,23.6-26.5c-0.1-6-2.6-11.7-7.1-15.7
			C184.7,308.8,180.2,321.7,157.5,329.5z"/>
		<path fill="#E7E7E8" d="M185,334.3c0,0.8,0,1.5,0,2.3c3.9-4.2,6.8-8.6,6.8-12.1c-0.1-6-2.6-11.7-7.1-15.7c0,0-1.3,3.8-6.1,8.4
			C182.5,322.1,184.7,328.1,185,334.3z"/>
		<path fill="#FFFFFF" d="M148.8,329.5L138.1,351c0,0-23.6-16.6-23.6-26.5c0.1-6,2.6-11.7,7.1-15.7
			C121.6,308.8,126.1,321.7,148.8,329.5z"/>
	</g>
</g>
</svg>