<svg width="16" height="12" viewBox="0 0 16 12" fill="none" xmlns="http://www.w3.org/2000/svg">
<path d="M15.2388 2.53482C15.0555 1.88047 14.5479 1.36727 13.8942 1.18586C12.6904 0.86232 7.85118 0.86232 7.85118 0.86232C7.85118 0.86232 3.02113 0.854559 1.80481 1.18586C1.15443 1.36776 0.64446 1.88047 0.463049 2.53482C0.234839 3.77512 0.121458 5.03046 0.126765 6.29163C0.124353 7.54454 0.237252 8.79794 0.463049 10.0305C0.64446 10.6848 1.15443 11.198 1.80481 11.3824C3.00858 11.7059 7.85118 11.7059 7.85118 11.7059C7.85118 11.7059 12.6783 11.7059 13.8942 11.3824C14.5479 11.198 15.0555 10.6853 15.2388 10.0305C15.4603 8.79794 15.5684 7.54454 15.5606 6.29163C15.5684 5.03046 15.4627 3.77512 15.2388 2.53482ZM6.30533 8.61362V3.95944L10.3335 6.29163L6.30533 8.61362Z" fill="black"/>
</svg>
